<?xml version="1.0" standalone="no"?>
<!DOCTYPE svg PUBLIC "-//W3C//DTD SVG 1.1//EN" "http://www.w3.org/Graphics/SVG/1.1/DTD/svg11.dtd" >
<svg xmlns="http://www.w3.org/2000/svg" xmlns:xlink="http://www.w3.org/1999/xlink" version="1.1">
<metadata>
Created by FontForge 20170731 at Tue May  1 20:18:54 2018
 By Aleksey,,,
</metadata>
<defs>
<font id="PackardModern" horiz-adv-x="572" >
  <font-face 
    font-family="Packard Modern"
    font-weight="400"
    font-stretch="normal"
    units-per-em="1000"
    panose-1="2 3 5 3 8 3 6 2 4 3"
    ascent="800"
    descent="-200"
    x-height="401"
    cap-height="687"
    bbox="-33 -254 1205.11 845"
    underline-thickness="20"
    underline-position="-153"
    unicode-range="U+0020-2122"
  />
<missing-glyph horiz-adv-x="300" 
 />
    <glyph glyph-name=".notdef" horiz-adv-x="300" 
 />
    <glyph glyph-name=".null" horiz-adv-x="0" 
 />
    <glyph glyph-name="nonmarkingreturn" horiz-adv-x="333" 
 />
    <glyph glyph-name="space" unicode=" " horiz-adv-x="300" 
 />
    <glyph glyph-name="exclam" unicode="!" horiz-adv-x="165" 
d="M83 115q24 0 41 -17.5t17 -41.5t-17 -41t-41 -17q-25 0 -42 17t-17 41t17 41.5t42 17.5zM73 171l-42 443v7q0 22 14 41.5t38 19.5t37.5 -19.5t13.5 -42.5v-7l-41 -442h-20z" />
    <glyph glyph-name="quotedbl" unicode="&#x22;" horiz-adv-x="252" 
d="M24 473v189q0 26 15 39t32 13q15 0 27.5 -9t12.5 -29q0 -5 -1 -11.5t-3 -11.5l-70 -180h-13zM140 473v189q0 26 15 39t32 13q16 0 28.5 -9t12.5 -29q0 -5 -1.5 -11.5t-3.5 -11.5l-70 -180h-13z" />
    <glyph glyph-name="numbersign" unicode="#" horiz-adv-x="419" 
d="M169 450l-21 -105l106 -21l21 106zM129 349l21 105l-126 25v21l129 -26l35 175h20l-35 -179l106 -21l39 200h21l-41 -204l97 -19v-20l-100 20l-21 -106l121 -24v-20l-125 24l-59 -300h-21l60 304l-106 21l-64 -325h-20l65 329l-101 20v20z" />
    <glyph glyph-name="dollar" unicode="$" horiz-adv-x="406" 
d="M150 547q-34 0 -60 -21q-12 -9 -19 -21t-7 -24q0 -18 7.5 -30.5t19.5 -22t27.5 -16t31.5 -11.5v146v0zM241 118q29 8 51.5 30t22.5 54q0 36 -22 56.5t-52 33.5v-174zM221 300l-51 16v-203q6 -1 12.5 -1.5t13.5 -0.5t13 0.5t12 1.5v187zM221 533q-13 4 -25.5 7.5
t-25.5 5.5v-151l51 -15v153v0zM382 585q-6 -33 -32 -49.5t-58 -16.5q-13 0 -25.5 2.5t-25.5 5.5v-153q24 -9 46 -20t39.5 -27t27.5 -38t10 -51q0 -61 -35 -102t-88 -59v-158h-20v152q-12 -3 -25 -4.5t-26 -2.5v-145h-20v146q-35 2 -65.5 14.5t-56.5 36.5v59q28 -22 58 -37
t64 -22v205q-23 7 -42.5 15t-36.5 20q-22 16 -34.5 39.5t-12.5 60.5q0 27 10.5 50t27.5 40.5t40 29t48 16.5v68h20v-66q4 1 13 1q21 0 38 -3v68h20v-72l6 -1q14 -3 31.5 -5.5t44.5 -2.5q25 0 43 15z" />
    <glyph glyph-name="percent" unicode="%" horiz-adv-x="624" 
d="M600 247q0 -34 -12.5 -71.5t-35.5 -69t-54.5 -52t-69.5 -20.5q-41 0 -60.5 28.5t-19.5 66.5q0 32 12 69t33.5 69t52 53t67.5 21q19 0 35 -8t27.5 -21t18 -30t6.5 -35zM461 87q19 0 34 12.5t25 30.5t15 38t5 36q0 12 -3 27.5t-10 29t-18 22.5t-26 9q-20 0 -35 -13.5
t-25.5 -33t-16 -41t-5.5 -37.5q0 -13 3.5 -27t11 -26t18.5 -19.5t27 -7.5zM435 601q-37 -29 -81.5 -43.5t-91.5 -14.5q8 -12 11 -26t3 -28q0 -34 -12.5 -71.5t-35.5 -69t-54.5 -52t-69.5 -20.5q-41 0 -60.5 28.5t-19.5 66.5q0 32 12 69t33.5 69t52 53.5t67.5 21.5
q17 0 34 -3t34 -3q64 0 121.5 26t96.5 79h35l-346 -729h-94l365 647v0zM137 330q19 0 34 12t25 30t15 38.5t5 36.5q0 12 -3 27t-10 28.5t-18 23t-26 9.5q-20 0 -35 -13.5t-25.5 -33t-16 -41t-5.5 -37.5q0 -14 3.5 -28t11 -25.5t18.5 -19t27 -7.5z" />
    <glyph glyph-name="ampersand" unicode="&#x26;" horiz-adv-x="672" 
d="M295 409q-31 8 -65.5 24t-63 38.5t-47.5 51.5t-19 63t15 58t39 39.5t53.5 22.5t58.5 7q22 0 43.5 -5t42.5 -11t42 -11t43 -5q18 0 38.5 7t30.5 23l13 -6q-3 -37 -27 -64t-66 -27q-25 0 -48 10t-44.5 22t-43.5 22t-46 10q-12 0 -25 -4t-23.5 -13t-17.5 -23.5t-7 -36.5
q0 -38 20 -70t50 -56.5t65 -40.5t65 -22l-3 -20q-48 0 -93.5 -13t-81 -38.5t-57 -64.5t-21.5 -91q0 -44 14.5 -75t38 -51t52.5 -29t59 -9t58.5 10.5t51 29.5t36.5 46t14 61q0 40 -16.5 60t-36.5 20t-36.5 -20t-17.5 -61l-16 -7q-13 11 -19.5 26.5t-6.5 32.5q0 25 12 42.5
t31.5 28t44 15t48.5 4.5q31 0 63 -7.5t62 -7.5q17 0 26.5 10.5t9.5 26.5q0 8 -2.5 14.5t-6.5 11.5l12 15q26 -11 42 -28.5t16 -46.5q0 -18 -8.5 -31.5t-21.5 -22t-29 -13t-32 -4.5q-27 0 -54 6q5 -14 6.5 -27t1.5 -26q0 -47 -20.5 -82t-55 -58.5t-78.5 -35.5t-91 -12
q-45 0 -88.5 13t-77.5 38t-55 62.5t-21 87.5t25.5 88t65 65t87.5 43t93 21z" />
    <glyph glyph-name="quotesingle" unicode="'" horiz-adv-x="135" 
d="M24 473v189q0 26 15 39t32 13q15 0 27.5 -9t12.5 -29q0 -5 -1 -11.5t-3 -11.5l-70 -180h-13z" />
    <glyph glyph-name="parenleft" unicode="(" horiz-adv-x="293" 
d="M24 305q0 62 14 123t43.5 112.5t76 89.5t111.5 55v-21q-50 -22 -83.5 -61t-54.5 -87t-30 -101.5t-9 -104.5q0 -50 9 -103t30 -101t55 -87.5t83 -61.5v-32q-65 22 -111 59t-76 86t-44 108.5t-14 126.5z" />
    <glyph glyph-name="parenright" unicode=")" horiz-adv-x="293" 
d="M269 305q0 -67 -14 -126.5t-44 -108.5t-76.5 -86t-110.5 -59v32q49 22 83 61.5t55 87.5t30 101t9 103q0 51 -9 104.5t-30 101.5t-55 87t-83 61v21q65 -17 111.5 -55t76 -89.5t43.5 -112.5t14 -123z" />
    <glyph glyph-name="asterisk" unicode="*" horiz-adv-x="316" 
d="M158 713q11 0 18 -10t7 -24q0 -17 -9 -42.5t-11 -67.5q35 22 53 43t32 29q10 6 21 6q23 0 23 -21q0 -8 -4.5 -15.5t-14.5 -12.5q-8 -5 -18 -7t-22.5 -5.5t-28.5 -9t-36 -16.5q19 -10 35 -15.5t29 -8.5t23 -5.5t18 -6.5q9 -5 14 -13t5 -16q0 -10 -7 -15t-16 -5
q-12 0 -21 5q-14 8 -32 29.5t-53 43.5q1 -42 10.5 -68.5t9.5 -41.5q0 -14 -7 -24t-18 -10t-18 10t-7 24q0 9 3 18.5t6.5 22.5t7 29.5t3.5 38.5q-19 -12 -31.5 -23t-21.5 -20.5t-16.5 -17t-14.5 -11.5q-11 -6 -21 -6q-9 0 -16.5 5t-7.5 15q0 8 5 16t15 13q14 8 41 12.5
t65 24.5q-38 20 -65.5 25.5t-40.5 13.5q-9 5 -14.5 12.5t-5.5 15.5q0 10 7.5 15.5t15.5 5.5q12 0 22 -7q7 -4 14.5 -11.5t16.5 -17t21.5 -20.5t31.5 -22q0 22 -3.5 38t-7 29t-6.5 23t-3 19q0 14 7 24t18 10z" />
    <glyph glyph-name="plus" unicode="+" horiz-adv-x="471" 
d="M208 340v184h55v-184h184v-55h-184v-184h-55v184h-184v55h184z" />
    <glyph glyph-name="comma" unicode="," horiz-adv-x="192" 
d="M24 -114q76 31 93 113q-4 -1 -12 -1q-24 0 -41.5 17t-17.5 41t17.5 41.5t41.5 17.5q16 0 28 -7t19.5 -18.5t11.5 -25.5t4 -28q0 -31 -10.5 -58.5t-29.5 -49t-44 -37.5t-53 -24z" />
    <glyph glyph-name="hyphen" unicode="-" horiz-adv-x="243" 
d="M73 219q-20 0 -33 -12l-16 10q5 27 26.5 40.5t47.5 13.5q18 0 36 -3t36 -3q19 0 33 11l16 -9q-5 -27 -26.5 -40.5t-47.5 -13.5q-18 0 -36 3t-36 3z" />
    <glyph glyph-name="period" unicode="." horiz-adv-x="165" 
d="M83 115q24 0 41 -17.5t17 -41.5t-17 -41t-41 -17q-25 0 -42 17t-17 41t17 41.5t42 17.5z" />
    <glyph glyph-name="slash" unicode="/" horiz-adv-x="546" 
d="M90 -153h-66l432 836h66z" />
    <glyph glyph-name="zero" unicode="0" horiz-adv-x="505" 
d="M256 409q-37 0 -64 -18.5t-44.5 -47t-26 -63t-8.5 -65.5q0 -34 8.5 -67.5t26.5 -60t45.5 -43t66.5 -16.5q37 0 63 18.5t42.5 47t24 62.5t7.5 65q0 34 -7.5 67.5t-24 60.5t-43.5 43.5t-66 16.5zM36 192q0 57 19 100t50 74q37 36 84.5 54.5t95.5 18.5q38 0 73 -14.5
t61 -43.5q23 -25 36.5 -60t13.5 -81q0 -57 -17.5 -101t-47.5 -74q-34 -35 -79.5 -52t-94.5 -17q-38 0 -74.5 14.5t-65.5 43.5q-24 25 -39 59.5t-15 78.5z" />
    <glyph glyph-name="one" unicode="1" horiz-adv-x="290" 
d="M118 323q0 21 -8.5 33t-22 18t-30 7.5t-32.5 1.5l-1 20q41 2 79 11t74 29v-362q0 -21 8 -33t20.5 -18.5t28.5 -8t32 -1.5v-20h-238v20q16 0 32 1.5t29 8t21 18.5t8 33v242z" />
    <glyph glyph-name="two" unicode="2" horiz-adv-x="442" 
d="M401 127l17 -11l-76 -116h-318v41q20 12 49.5 28t61.5 35t64 41t57.5 46t41.5 50.5t16 55.5q0 25 -11 44t-29 31t-40.5 18t-46.5 6q-20 0 -41.5 -5.5t-40 -17.5t-30.5 -30t-12 -43q0 -19 10 -35.5t32 -16.5q14 0 23 14t11 26l20 -2q-1 -13 -5.5 -27t-13 -26t-20.5 -19.5
t-27 -7.5t-27 7t-19.5 18.5t-11.5 25t-4 27.5q0 40 16.5 70.5t43.5 51.5t61.5 31.5t69.5 10.5q32 0 62.5 -8.5t54 -26.5t38 -45.5t14.5 -64.5q0 -31 -14.5 -57.5t-38 -50t-53 -43.5t-61 -37t-61 -31t-52.5 -26h245z" />
    <glyph glyph-name="three" unicode="3" horiz-adv-x="387" 
d="M223 178q31 -3 57 -16.5t44.5 -34.5t28.5 -48.5t10 -58.5q0 -49 -19 -91.5t-50 -74t-71 -50t-82 -18.5q-31 0 -60.5 10.5t-56.5 34.5l13 15q36 -20 77 -20q34 0 66 14.5t56.5 39t39 58t14.5 72.5q0 52 -29.5 83t-83.5 31h-52l-7 20q21 14 46 31t46.5 37t36 44t14.5 53
q0 37 -21 60t-59 23q-29 0 -50 -15t-29 -43q-4 -13 -4 -29q0 -23 9 -44t27 -35l-10 -17q-32 14 -56 41t-24 64q0 29 14 51t36 37t48.5 23t51.5 8t51 -6.5t47 -20.5t34.5 -35.5t13.5 -51.5q0 -24 -10 -45.5t-26.5 -39.5t-37.5 -32.5t-43 -23.5z" />
    <glyph glyph-name="four" unicode="4" horiz-adv-x="508" 
d="M382 0v-173q-34 -3 -74 -14.5t-73 -29.5l-9 18q18 9 34 20t28.5 25t20 31t7.5 39v84h-292q8 64 36 123.5t67 114t84.5 104t88.5 94.5h82v-388h102v-48h-102zM316 48v354q-35 -37 -72 -78t-70.5 -86t-60.5 -92.5t-40 -97.5h243z" />
    <glyph glyph-name="five" unicode="5" horiz-adv-x="394" 
d="M88 243q45 -3 93 -15t87.5 -36t64.5 -62t25 -93q0 -57 -24.5 -106t-65 -84.5t-92.5 -56t-106 -20.5q-26 0 -46 4v45q19 -3 37 -3q38 0 77.5 13.5t71.5 38t52 58.5t20 76q0 49 -25.5 80.5t-63.5 50t-82 27t-82 10.5l62 245l194 17q17 2 30.5 10.5t22.5 22.5l18 -4
q1 -5 1 -9v-9q0 -20 -4.5 -40t-14 -35.5t-25.5 -25t-40 -9.5h-162z" />
    <glyph glyph-name="six" unicode="6" horiz-adv-x="560" 
d="M455 708q-66 -26 -129 -66.5t-112.5 -94.5t-79.5 -120t-30 -143q0 -41 10 -87t32 -84.5t56 -65t82 -28.5q3 -1 8 -1q38 0 65.5 17t45.5 44t27 61t9 67q0 30 -10.5 57.5t-29 48.5t-44 33.5t-54.5 12.5q-22 0 -41.5 -8.5t-34.5 -23.5t-24.5 -34.5t-11.5 -40.5h-20
q-1 4 -1 13q0 33 12.5 63t34.5 52t51.5 35t63.5 13q41 0 76.5 -16.5t61.5 -44.5t41 -65t15 -77q0 -52 -21 -96t-56 -76t-81 -50t-96 -18q-53 0 -98 21.5t-78 57.5t-51.5 83.5t-18.5 98.5q0 91 33.5 172t91.5 144.5t135.5 106t165.5 58.5z" />
    <glyph glyph-name="seven" unicode="7" horiz-adv-x="505" 
d="M175 340q-26 0 -48.5 -15t-32.5 -40l-19 6l31 156q12 -6 23.5 -10t25.5 -4h261q28 0 51 17l14 -13q-88 -165 -176 -328.5t-177 -328.5h-104l370 560h-219z" />
    <glyph glyph-name="eight" unicode="8" horiz-adv-x="497" 
d="M216 351q-20 -10 -39.5 -25.5t-35 -35t-25 -41.5t-9.5 -46q0 -33 11 -61t31 -48t47.5 -31.5t60.5 -11.5q28 0 52.5 9t42.5 25.5t28 41t10 54.5q0 34 -16.5 61.5t-42 49t-56.5 36t-59 23.5zM290 421q35 15 56 46t21 69q0 28 -9 52.5t-25.5 43t-40 29t-51.5 10.5
q-49 0 -80 -31t-31 -82q0 -29 16.5 -51.5t40.5 -39.5t52 -28.5t51 -17.5zM180 375q-24 11 -44.5 28.5t-35.5 39t-24 47t-9 52.5q0 36 15 68t40.5 56t58 38t68.5 14q34 0 68 -12t61 -34t44 -52.5t17 -67.5q0 -26 -9 -49.5t-25 -43.5t-36.5 -36t-42.5 -26q28 -11 52.5 -29
t43 -41.5t29 -51.5t10.5 -59q0 -44 -19 -85.5t-50.5 -73.5t-72.5 -51t-85 -19q-40 0 -76 15.5t-63 42t-43 62t-16 76.5q0 33 11.5 62.5t31.5 54t46 44t55 31.5z" />
    <glyph glyph-name="nine" unicode="9" 
d="M367 225q36 -39 36 -91q0 -35 -15 -62t-39 -45t-55 -27.5t-64 -9.5q-42 0 -77.5 16.5t-61.5 44.5t-40.5 65t-14.5 77q0 52 21 96t56 76t81 50t96 18q53 0 98 -21.5t78 -57.5t51.5 -83.5t18.5 -98.5q0 -65 -17 -124.5t-48.5 -111.5t-75.5 -96.5t-98 -78.5l-24 43
q39 31 73 67.5t59 79t39.5 89.5t14.5 99q0 42 -12 86t-35.5 80.5t-58.5 60t-82 23.5q-38 0 -66.5 -15t-47.5 -39.5t-28.5 -55.5t-9.5 -63q0 -30 8.5 -58t25.5 -50t42 -35.5t59 -13.5q22 0 42 8t35 22.5t23.5 34.5t8.5 43q0 26 -12 47z" />
    <glyph glyph-name="colon" unicode=":" horiz-adv-x="165" 
d="M83 115q24 0 41 -17.5t17 -41.5t-17 -41t-41 -17q-25 0 -42 17t-17 41t17 41.5t42 17.5zM83 331q24 0 41 -17t17 -41q0 -25 -17 -42t-41 -17q-25 0 -42 17t-17 42q0 24 17 41t42 17z" />
    <glyph glyph-name="semicolon" unicode=";" horiz-adv-x="192" 
d="M24 -114q76 31 93 113q-4 -1 -12 -1q-24 0 -41.5 17t-17.5 41t17.5 41.5t41.5 17.5q16 0 28 -7t19.5 -18.5t11.5 -25.5t4 -28q0 -31 -10.5 -58.5t-29.5 -49t-44 -37.5t-53 -24zM105 331q24 0 41 -17t17 -41q0 -25 -17 -42t-41 -17t-41.5 17t-17.5 42q0 24 17.5 41
t41.5 17z" />
    <glyph glyph-name="less" unicode="&#x3c;" horiz-adv-x="465" 
d="M103 313l338 -148v-59l-417 182v50l417 182v-60z" />
    <glyph glyph-name="equal" unicode="=" horiz-adv-x="471" 
d="M447 272v-55h-423v55h423zM447 408v-55h-423v55h423z" />
    <glyph glyph-name="greater" unicode="&#x3e;" horiz-adv-x="465" 
d="M24 520l417 -182v-50l-417 -182v59l337 148l-337 147v60z" />
    <glyph glyph-name="question" unicode="?" horiz-adv-x="420" 
d="M162 115q24 0 41.5 -17.5t17.5 -41.5t-17.5 -41t-41.5 -17t-41 17t-17 41t17 41.5t41 17.5zM147 162v5q0 34 9 61t24 49.5t33.5 41t38.5 36.5q18 16 34 31.5t28.5 33t20 39t7.5 48.5t-10 50t-27 39t-40 25t-49 9q-54 0 -97 -23t-78 -61l-17 7v66q35 30 75.5 47t86.5 17
q40 0 78 -15t67.5 -41.5t47 -62.5t17.5 -77q0 -44 -13 -75t-32.5 -54.5t-44 -40.5t-46.5 -33q-17 -12 -33.5 -24.5t-29.5 -27t-21 -31.5t-9 -39h-20z" />
    <glyph glyph-name="at" unicode="@" horiz-adv-x="695" 
d="M322 233q26 0 47.5 16t37.5 39t24.5 50t8.5 50q0 21 -12 42t-37 21q-24 0 -45 -18t-36 -43.5t-23.5 -54t-8.5 -48.5q0 -18 12 -36t32 -18zM507 451l17 -10l-56 -187q-2 -4 -2 -8v-9q0 -12 7 -21.5t21 -9.5q27 0 48.5 19.5t36.5 47t23 57.5t8 52q0 55 -20.5 99.5t-56 75.5
t-82.5 47.5t-100 16.5q-58 0 -107 -22t-84.5 -60t-55.5 -88.5t-20 -107.5q0 -62 27 -114.5t71.5 -91t101 -60.5t115.5 -22q92 0 175 43l11 -17q-57 -40 -122.5 -61.5t-134.5 -21.5q-68 0 -124 26.5t-96 71.5t-62 104.5t-22 125.5q0 75 30 140t80.5 113.5t117.5 76t141 27.5
q57 0 108 -18t88.5 -52t59.5 -81.5t22 -107.5q0 -41 -14 -86.5t-40.5 -83t-64 -62t-83.5 -24.5q-29 0 -48.5 21t-19.5 47q-26 -30 -55.5 -47.5t-58.5 -17.5q-17 0 -31 7t-24 19t-15.5 27.5t-5.5 31.5q0 36 15 76t41 73.5t61 55t75 21.5q26 0 46 -17.5t28 -40.5z" />
    <glyph glyph-name="A" unicode="A" horiz-adv-x="834" 
d="M252 258h295l-154 300zM570 0v20q24 0 44.5 15t20.5 41q0 11 -4 18l-64 124h-334l-65 -136q-6 -14 -6 -25q0 -23 19 -30t39 -7v-20h-196v20q48 0 75 17.5t46 57.5l230 480q-25 29 -50 46t-54 28l115 62l324 -620q6 -12 16 -25t22.5 -23t27 -16.5t29.5 -6.5h5v-20h-240z
" />
    <glyph glyph-name="B" unicode="B" horiz-adv-x="606" 
d="M340 333q-14 -9 -31 -9q-9 0 -21.5 4.5t-12.5 16.5q0 13 14 17t24 4q33 0 63.5 9.5t53.5 28t37 45.5t14 63q0 40 -15.5 68.5t-40.5 47t-56 27t-62 8.5q-24 0 -46.5 -5t-39.5 -14t-27.5 -22t-10.5 -29v-444q0 -27 12.5 -49.5t32.5 -39t44.5 -25.5t49.5 -9q34 0 68.5 8.5
t62 27t44.5 47t17 67.5q0 36 -15 64.5t-39.5 48.5t-55.5 31t-64 13zM24 20q17 0 34.5 3t31.5 10.5t22.5 20t8.5 32.5v515q0 27 -19.5 46.5t-46.5 19.5h-31v20h151q51 0 88 5t60 5q43 0 84.5 -11.5t74 -32.5t52.5 -51.5t20 -68.5q0 -29 -11.5 -54.5t-30 -46t-42 -35.5
t-47.5 -23q32 -8 61 -22t50.5 -35t34.5 -49t13 -64q0 -47 -21.5 -84.5t-55.5 -64t-76.5 -41t-84.5 -14.5h-320v20v0z" />
    <glyph glyph-name="C" unicode="C" horiz-adv-x="717" 
d="M689 157v-106q-59 -29 -123 -43t-129 -14q-80 0 -153 23t-128 67.5t-87.5 110.5t-32.5 153q0 79 30.5 144t82 111.5t120 72t145.5 25.5q36 0 62.5 -4t49.5 -8.5t44 -8t47 -3.5q20 0 38 4t38 10v-143h-18q-45 60 -113 90t-141 30q-69 0 -124 -25t-93.5 -67.5t-59 -100.5
t-20.5 -125q0 -65 20.5 -124t59 -103.5t93 -71t123.5 -26.5q32 0 70 8.5t73.5 25t64 41.5t41.5 57h20z" />
    <glyph glyph-name="D" unicode="D" horiz-adv-x="745" 
d="M183 113q0 -20 12 -35.5t32.5 -26.5t48 -17t59.5 -6q50 0 104 17t98.5 54t73.5 96.5t29 144.5q0 79 -24.5 139.5t-69 101t-106.5 61t-138 20.5q-23 0 -44.5 -3t-38 -10.5t-26.5 -20t-10 -30.5v-485v0zM149 687q16 0 39 1t50.5 1.5t57 1.5t57.5 1q70 0 134.5 -19.5
t113.5 -58.5t78.5 -97t29.5 -134q0 -74 -27.5 -143.5t-76 -122.5t-114.5 -85t-143 -32h-324v20q17 0 34 2t31 8.5t23 19.5t9 36v515q0 22 -9 35.5t-23 20t-31 8.5t-34 2v20h125v0z" />
    <glyph glyph-name="E" unicode="E" horiz-adv-x="528" 
d="M400 687q29 0 49 -8.5t32 -21.5t17 -29t5 -30q0 -6 -1 -14t-3.5 -16t-7 -13.5t-12.5 -5.5t-11 6.5t-5 17.5q-8 39 -27.5 61.5t-63.5 22.5h-116q-26 0 -43.5 -11.5t-17.5 -39.5v-240h135q27 0 47.5 13t20.5 43h20v-137h-20q0 29 -20.5 42t-47.5 13h-135v-219
q0 -42 26 -68.5t68 -26.5h84q51 0 80.5 27t35.5 75q1 11 3 17.5t11 6.5t14 -6t7.5 -15t3 -18t0.5 -15q0 -20 -9 -38t-24 -31.5t-35 -21t-42 -7.5h-394v20q19 0 38.5 2t35 10t25.5 22.5t10 40.5v506q0 22 -9 35.5t-23 20t-31 8.5t-34 2v20h364z" />
    <glyph glyph-name="F" unicode="F" horiz-adv-x="540" 
d="M344 366q26 0 46.5 13t20.5 43h20v-137h-20q0 29 -20.5 42t-46.5 13h-161v-254q0 -23 9 -36t23 -19.5t31.5 -8.5t34.5 -2v-20h-257v20q17 0 34 2t31 8.5t23 19.5t9 36v515q0 22 -9 35.5t-23 20t-31 8.5t-34 2v20h377q31 0 53 -8.5t36 -21.5t20 -29t6 -30q0 -6 -0.5 -14
t-3 -16t-7 -13.5t-12.5 -5.5t-11 6.5t-5 17.5q-9 39 -28.5 61.5t-63.5 22.5h-140q-26 0 -44 -11.5t-18 -39.5v-240h161z" />
    <glyph glyph-name="G" unicode="G" horiz-adv-x="717" 
d="M519 289h170v-238q-59 -29 -123 -43t-129 -14q-80 0 -153 23t-128 67.5t-87.5 110.5t-32.5 153q0 79 30.5 144t82 111.5t120 72t145.5 25.5q25 0 51 -4t52 -8.5t51.5 -8t50.5 -3.5q21 0 37.5 4t36.5 10v-143h-18q-45 60 -113 90t-141 30q-69 0 -124 -25t-93.5 -67.5
t-59 -100.5t-20.5 -125q0 -65 20.5 -124t59 -103.5t93 -71t123.5 -26.5q21 0 55 4.5t66.5 16t56.5 31t24 49.5v77q0 22 -9.5 35t-24.5 20t-33 9t-36 2v20z" />
    <glyph glyph-name="H" unicode="H" horiz-adv-x="826" 
d="M121 601q0 22 -9 35.5t-23 20t-31 8.5t-34 2v20h257v-20q-17 0 -34.5 -2t-31.5 -8.5t-23 -20t-9 -35.5v-227h460v227q0 22 -9 35.5t-23 20t-31 8.5t-34 2v20h256v-20q-17 0 -34 -2t-31 -8.5t-23 -20t-9 -35.5v-515q0 -23 9 -36t23 -19.5t31 -8.5t34 -2v-20h-256v20
q17 0 34 2t31 8.5t23 19.5t9 36v247h-460v-247q0 -23 9 -36t23 -19.5t31.5 -8.5t34.5 -2v-20h-257v20q17 0 34 2t31 8.5t23 19.5t9 36v515z" />
    <glyph glyph-name="I" unicode="I" horiz-adv-x="305" 
d="M121 601q0 22 -9 35.5t-23 20t-31 8.5t-34 2v20h257v-20q-17 0 -34.5 -2t-31.5 -8.5t-23 -20t-9 -35.5v-515q0 -23 9 -36t23 -19.5t31.5 -8.5t34.5 -2v-20h-257v20q17 0 34 2t31 8.5t23 19.5t9 36v515z" />
    <glyph glyph-name="J" unicode="J" horiz-adv-x="521" 
d="M400 212q0 -49 -15.5 -90t-43.5 -70.5t-67 -46t-86 -16.5q-34 0 -67.5 8t-60.5 25.5t-43.5 44t-16.5 63.5q0 23 16 37t36 14t36.5 -13t16.5 -35q0 -21 -15.5 -34t-36.5 -13q13 -39 50.5 -56.5t78.5 -17.5q38 0 67.5 15t49 40.5t29.5 59.5t10 71v403q0 22 -9 35.5t-23 20
t-31 8.5t-34 2v20h256v-20q-17 0 -34 -2t-31 -8.5t-23 -20t-9 -35.5v-389z" />
    <glyph glyph-name="K" unicode="K" horiz-adv-x="639" 
d="M121 601q0 22 -9 35.5t-23 20t-31 8.5t-34 2v20h257v-20q-17 0 -34.5 -2t-31.5 -8.5t-23 -20t-9 -35.5v-240l209 221q23 24 23 49q0 14 -12 25t-35 11v20h191v-20q-37 0 -65.5 -22t-51.5 -48l-219 -232q27 0 54.5 -3t53 -12t48.5 -26t41 -45q25 -37 38 -81t24 -86
q7 -26 23 -48.5t46 -22.5q25 0 44 16t24 41l20 -3q-4 -44 -31.5 -72t-72.5 -28q-29 0 -52.5 12t-40.5 31.5t-28 44t-16 50.5q-6 31 -16.5 67.5t-27.5 68t-43.5 52.5t-63.5 21q-9 0 -20 -2.5t-20.5 -9.5t-16.5 -18t-7 -29v-197q0 -23 9 -36t23 -19.5t31.5 -8.5t34.5 -2v-20
h-257v20q17 0 34 2t31 8.5t23 19.5t9 36v515z" />
    <glyph glyph-name="L" unicode="L" horiz-adv-x="528" 
d="M195 26h183q51 0 78 27t33 75q1 11 3 17.5t11 6.5t14 -6t7.5 -15t3 -18t0.5 -15q0 -20 -9 -38t-25 -31.5t-37 -21t-45 -7.5h-388v20q19 0 38.5 2t35 10t25.5 22.5t10 40.5v506q0 22 -9 35.5t-23 20t-31 8.5t-34 2v20h256v-20q-16 0 -33 -2.5t-31.5 -10t-23.5 -20.5
t-9 -33v-575z" />
    <glyph glyph-name="M" unicode="M" horiz-adv-x="877" 
d="M802 725q11 0 21 -5.5t10 -17.5q0 -9 -7.5 -14t-15.5 -7q-23 -4 -38.5 -21t-15.5 -49v-525q0 -23 8.5 -36t22.5 -19.5t31.5 -8.5t34.5 -2v-20h-257v20q17 0 34.5 2t31.5 8.5t23 19.5t9 36v440l-298 -499l-240 479v-420q0 -23 9 -36t23 -19.5t31 -8.5t34 -2v-20h-226v20
q17 0 34 2t31 8.5t23 19.5t9 36v440q0 39 -14 64.5t-35 41.5t-46.5 24.5t-48.5 13.5l129 71l308 -616l336 566q9 15 21.5 24.5t27.5 9.5z" />
    <glyph glyph-name="N" unicode="N" horiz-adv-x="828" 
d="M139 562q-24 25 -45 40.5t-41 23.5t-41 10.5t-45 2.5l105 95l608 -669v536q0 22 -8.5 35.5t-22.5 20t-31.5 8.5t-34.5 2v20h221v-20q-17 0 -34 -2t-31 -8.5t-23 -20t-9 -35.5v-601h-54l-488 533v-447q0 -23 9 -36t23 -19.5t31.5 -8.5t34.5 -2v-20h-222v20q17 0 34.5 2
t31.5 8.5t23 19.5t9 36v476z" />
    <glyph glyph-name="O" unicode="O" horiz-adv-x="776" 
d="M408 46q71 0 122.5 23t85 61t49.5 87t16 101q0 60 -21 119t-61 106t-98 76.5t-133 29.5q-70 0 -121.5 -22.5t-85.5 -59.5t-50.5 -85.5t-16.5 -99.5q0 -60 21 -120t61 -108t98.5 -78t133.5 -30zM368 -5q-68 0 -128 26t-105.5 70.5t-72 104t-26.5 126.5q0 77 29 146
t79.5 120.5t118.5 81.5t145 30q67 0 127.5 -26t106 -70.5t72 -104t26.5 -126.5q0 -77 -29.5 -146t-80 -120.5t-118 -81.5t-144.5 -30z" />
    <glyph glyph-name="P" unicode="P" horiz-adv-x="597" 
d="M203 687q10 0 28.5 0.5t38.5 1.5t38 1.5t27 0.5q43 0 85.5 -13t76.5 -38t55 -61.5t21 -83.5q0 -51 -19.5 -95.5t-52.5 -77t-77.5 -51.5t-94.5 -19q-29 0 -56 9t-50 28l11 16q21 -11 43.5 -17t46.5 -6q41 0 75.5 15t59 40.5t38.5 60.5t14 76q0 46 -17.5 81.5t-47.5 59
t-69 35.5t-82 12q-29 0 -58 -6t-54 -20v-550q0 -23 9 -36t23 -19.5t31.5 -8.5t34.5 -2v-20h-257v20q17 0 34 2t31 8.5t23 19.5t9 36v515q0 22 -9 35.5t-23 20t-31 8.5t-34 2v20h179v0z" />
    <glyph glyph-name="Q" unicode="Q" horiz-adv-x="752" 
d="M312 68q5 36 31.5 62t69.5 26t70.5 -20.5t44.5 -52.5q38 18 65 45q35 35 54.5 84.5t19.5 109.5q0 63 -25 120.5t-67.5 101.5t-99 70t-119.5 26q-61 0 -111 -19t-86 -54t-55.5 -84t-19.5 -110q0 -53 17.5 -101.5t48 -89t72 -70t90.5 -44.5zM399 120q-24 0 -43 -17t-24 -40
q16 -4 31.5 -6t32.5 -2q36 0 71 8q-11 23 -27 40t-41 17zM350 -5q-67 0 -126.5 26t-103.5 70.5t-70 104t-26 126.5q0 77 30 146t81.5 120.5t120 81.5t145.5 30q67 0 127 -26t104 -70.5t70 -104t26 -126.5q0 -51 -13.5 -98t-37.5 -88.5t-57.5 -76t-73.5 -59.5l3 -13
q4 -17 10.5 -38.5t17 -41.5t26 -33.5t37.5 -13.5q25 0 44 17.5t24 41.5l20 -2q-4 -44 -29 -68.5t-70 -24.5q-32 0 -56 11.5t-41.5 31.5t-29.5 46t-20 55q-31 -11 -64 -17.5t-68 -6.5z" />
    <glyph glyph-name="R" unicode="R" horiz-adv-x="639" 
d="M301 343q34 0 64.5 9.5t53 28.5t35.5 46t13 62q0 43 -14.5 75.5t-39 54t-57.5 32t-70 10.5q-16 0 -34 -3.5t-33.5 -11.5t-25.5 -21.5t-10 -33.5v-248h118zM121 601q0 22 -9 35.5t-23 20t-31 8.5t-34 2v20h142q37 0 72.5 4.5t57.5 4.5q40 0 82.5 -11t77.5 -33.5t57 -56.5
t22 -81q0 -36 -12 -67.5t-34 -56t-53 -42t-69 -24.5q59 -17 84 -62q18 -31 26 -70.5t10 -81.5q2 -27 18.5 -48t45.5 -21q25 0 44 16t24 41l20 -3q-4 -44 -31.5 -72t-72.5 -28q-29 0 -54.5 11t-44.5 30t-30 44.5t-11 54.5q0 40 -8 78t-29 62q-19 23 -46.5 30t-62.5 7
q-10 0 -21.5 -2t-21.5 -7.5t-16.5 -14t-6.5 -21.5v-181q0 -23 9 -36t23 -19.5t31.5 -8.5t34.5 -2v-20h-257v20q17 0 34 2t31 8.5t23 19.5t9 36v515z" />
    <glyph glyph-name="S" unicode="S" horiz-adv-x="508" 
d="M46 513q0 37 13.5 69.5t36.5 57t55 38.5t70 14q23 0 45.5 -4.5t45 -10.5t45 -10.5t45.5 -4.5q17 0 35 8.5t28 24.5l19 -6q-2 -18 -10 -35.5t-21 -31t-30 -21.5t-37 -8q-28 0 -53.5 7t-50 16t-50 16t-53.5 7q-42 0 -66.5 -22.5t-24.5 -64.5q0 -26 14.5 -47.5t36 -38.5
t46 -30t44.5 -23l88 -42q56 -26 91.5 -65t35.5 -105q0 -45 -17 -84.5t-47.5 -68.5t-72.5 -46t-91 -17q-52 0 -101 15t-91 46v89q50 -46 103.5 -75.5t124.5 -29.5q24 0 49.5 9t46 25.5t33.5 39t13 49.5q0 40 -17.5 67t-44.5 46.5t-59 33.5t-62 28q-32 14 -61.5 29t-52.5 36
t-37 50t-14 70z" />
    <glyph glyph-name="T" unicode="T" horiz-adv-x="679" 
d="M380 86q0 -22 9 -35t23 -20t31.5 -9t34.5 -2v-20h-257v20q17 0 34 1.5t31 8.5t23 20t9 36v571h-154q-47 0 -69.5 -21.5t-42.5 -59.5q-2 -5 -7 -8.5t-10 -3.5q-11 0 -11 15q0 12 5.5 32t14 41t18.5 39t19 27q5 5 12 5q6 0 9 -3.5t7 -8.5q5 -7 15.5 -15.5t39.5 -8.5h397
q30 0 43 9t20 17q5 5 8.5 7.5t8.5 2.5q9 0 11.5 -7t2.5 -14q0 -9 -4 -31.5t-10.5 -46.5t-16 -42t-21.5 -18q-6 0 -10 5t-4 11q0 10 4 18.5t4 19.5q0 23 -13.5 31t-33.5 8h-170v-571z" />
    <glyph glyph-name="U" unicode="U" horiz-adv-x="762" 
d="M582 156q-14 -36 -38 -66t-54.5 -52.5t-66.5 -35t-75 -12.5q-45 0 -87 12.5t-74.5 37.5t-52 62t-19.5 87v402q0 20 -7.5 33t-20 20.5t-28.5 10t-34 2.5l-1 20l153 22v-488q0 -84 45.5 -132.5t130.5 -48.5q44 0 85.5 18t73.5 48t51 70.5t19 85.5v339q0 20 -7.5 33
t-20 20.5t-29 10t-33.5 2.5l-1 20l153 22v-596q0 -20 9.5 -37t32.5 -17q19 0 36 15l16 -11q-9 -23 -29 -38t-46 -15q-18 0 -32.5 7t-25.5 19t-17 27.5t-6 32.5v70z" />
    <glyph glyph-name="V" unicode="V" horiz-adv-x="789" 
d="M638 579q7 15 7 32q0 30 -21.5 43t-48.5 13v20h190v-20q-35 0 -56.5 -19.5t-34.5 -50.5l-255 -610h-39l-256 610q-11 26 -32.5 48t-51.5 22h-16v20h245v-20q-28 0 -46 -16t-18 -44q0 -16 6 -28l213 -513l214 513v0z" />
    <glyph glyph-name="W" unicode="W" horiz-adv-x="999" 
d="M850 578q6 16 6 31q0 32 -21.5 45t-49.5 13v20h190v-20q-35 0 -57 -18.5t-33 -50.5l-220 -611h-40l-117 348l-124 -348h-40l-220 611q-25 69 -100 69v20h245v-20q-28 0 -45 -16t-17 -45q0 -16 4 -28l178 -507l106 302l-75 225q-12 36 -37.5 52.5t-62.5 16.5v20h245v-20
q-29 0 -45.5 -16.5t-16.5 -45.5q0 -15 4 -27l163 -505z" />
    <glyph glyph-name="X" unicode="X" horiz-adv-x="690" 
d="M24 20q23 0 45.5 14.5t42.5 40.5l208 263l-184 257q-8 11 -18.5 24t-22.5 23.5t-26.5 17.5t-29.5 7v20h225v-20q-22 0 -35.5 -13t-13.5 -35q0 -21 13 -38l135 -189l150 190q17 20 17 41q0 20 -15 32t-35 12v20h180v-20q-18 0 -42 -14t-36 -29l-202 -257l212 -298
q12 -17 34.5 -33t39.5 -16v-20h-227v20q23 0 40.5 10.5t17.5 36.5q0 9 -3 20t-9 19l-148 207l-162 -207q-19 -23 -19 -41q0 -12 6.5 -21t16 -14t21 -7.5t21.5 -2.5v-20h-197v20z" />
    <glyph glyph-name="Y" unicode="Y" horiz-adv-x="675" 
d="M506 581q14 22 14 37q0 25 -20.5 37t-42.5 12v20h194v-20q-33 0 -58 -20t-39 -42l-193 -286v-233q0 -23 9 -36t23 -19.5t31.5 -8.5t34.5 -2v-20h-257v20q17 0 34.5 2t31.5 8.5t22.5 19.5t8.5 36v224l-178 286q-23 38 -46.5 54.5t-50.5 16.5v20h225v-20q-22 0 -35.5 -13
t-13.5 -35q0 -17 13 -38l139 -226z" />
    <glyph glyph-name="Z" unicode="Z" horiz-adv-x="581" 
d="M93 687h458l-432 -667h256q34 0 60 12.5t45.5 33.5t33 47.5t22.5 54.5h21l-52 -168h-481l437 667h-237q-23 0 -46.5 -9t-44 -24t-36 -34.5t-22.5 -40.5l-5 -18h-21z" />
    <glyph glyph-name="bracketleft" unicode="[" horiz-adv-x="186" 
d="M24 -175v906h138v-20h-65v-866h65v-20h-138z" />
    <glyph glyph-name="backslash" unicode="\" horiz-adv-x="546" 
d="M90 683l432 -836h-66l-432 836h66z" />
    <glyph glyph-name="bracketright" unicode="]" horiz-adv-x="186" 
d="M24 -155h65v866h-65v20h138v-906h-138v20z" />
    <glyph glyph-name="asciicircum" unicode="^" horiz-adv-x="1043" 
d="M969 681q-7 3 -12 8.5t-5 13.5q0 13 11 19t22 6t22.5 -6t11.5 -19q0 -28 -24 -45.5t-60 -27t-77.5 -13t-75.5 -3.5q-29 0 -67 4.5t-69 9.5v-537q0 -23 9 -36.5t23 -21.5t31 -10.5t34 -2.5v-20h-256v20q17 0 34 2.5t31 10.5t23 21.5t9 36.5v546q-29 9 -64 13.5t-73 4.5
q-65 0 -132.5 -14t-123 -44.5t-91 -79t-35.5 -116.5q0 -37 12 -63.5t31 -43t41.5 -24t43.5 -7.5l-89 -61q-38 35 -59 80.5t-21 98.5q0 87 38.5 151t99 106t136 62.5t149.5 20.5q48 0 94 -9.5t93.5 -21t97.5 -21t107 -9.5q45 0 75.5 5t54.5 16z" />
    <glyph glyph-name="underscore" unicode="_" horiz-adv-x="500" 
d="M500 -19v-57h-500v57h500z" />
    <glyph glyph-name="grave" unicode="`" horiz-adv-x="329" 
d="M70 608h75l115 -166h-27z" />
    <glyph glyph-name="a" unicode="a" horiz-adv-x="452" 
d="M300 260q0 55 -31 86t-88 31q-27 0 -48 -7.5t-36 -20t-22.5 -28.5t-7.5 -32q0 -29 25 -53t80 -24q32 14 68 27t60 21zM300 239q-26 -9 -59 -21t-62.5 -29t-50 -39t-20.5 -50q0 -38 24 -59t61 -21q20 0 39.5 6.5t34.5 19t24 30t9 38.5v125zM195 409q34 0 63 -10
t50.5 -29.5t34 -47t12.5 -62.5v-191q0 -22 16 -38t39 -16h6t7 1l5 -13q-20 -15 -47 -15q-29 0 -51.5 18.5t-28.5 46.5q-11 -16 -27.5 -28.5t-35 -21t-37.5 -13t-37 -4.5q-21 0 -41.5 6t-37 17.5t-26.5 29t-10 40.5q0 40 28 69t68 51q-57 9 -83 38t-26 61q0 21 10.5 40.5
t31 35.5t50 25.5t67.5 9.5z" />
    <glyph glyph-name="b" unicode="b" horiz-adv-x="574" 
d="M164 142q0 -28 13 -50t33 -37.5t45.5 -24t50.5 -8.5q38 0 70 13.5t54.5 36.5t35.5 55t13 68t-12 66t-34 52t-53 34.5t-68 12.5q-44 0 -83 -19.5t-65 -54.5v-144v0zM164 320q36 42 88 62.5t106 20.5q39 0 72 -12t57 -34.5t37.5 -54t13.5 -71.5q0 -50 -17.5 -93t-49 -75.5
t-74 -51t-91.5 -18.5q-25 0 -47.5 6t-45.5 14q-11 5 -23.5 8.5t-24.5 3.5q-20 0 -37 -7t-33 -18l-14 13q12 19 20 41t8 45v514q0 18 -8 29t-20.5 16t-27.5 6.5t-29 1.5v20q38 2 72.5 10.5t67.5 26.5v-403v0z" />
    <glyph glyph-name="c" unicode="c" horiz-adv-x="457" 
d="M251 412q18 0 29.5 -2t22.5 -5t24 -5t34 -2q9 0 22.5 3.5t20.5 9.5l14 -9q-6 -26 -27 -40.5t-47 -14.5q-15 0 -28.5 5t-27 11t-27 11t-28.5 5q-23 0 -47 -8t-43.5 -27.5t-32 -51t-12.5 -79.5q0 -41 14.5 -74t40 -56t60 -36t73.5 -13q37 0 71 13t63 36l13 -15
q-73 -76 -181 -76q-44 0 -83 14.5t-68.5 40.5t-47 63.5t-17.5 83.5q0 50 17 90t46 68.5t68.5 44t83.5 15.5z" />
    <glyph glyph-name="d" unicode="d" horiz-adv-x="557" 
d="M390 333q-20 21 -49.5 31.5t-63.5 10.5q-33 0 -65.5 -10.5t-58.5 -32t-42.5 -54t-16.5 -75.5t14 -74.5t36.5 -52.5t52 -31t59.5 -10q38 0 73.5 14.5t60.5 43.5v240v0zM390 58q-31 -32 -72 -48.5t-85 -16.5q-38 0 -73 12t-63 36.5t-44.5 60.5t-16.5 84q0 52 19.5 92.5
t51.5 67.5t73 41t84 14q32 0 64.5 -8.5t61.5 -26.5v231q0 18 -8 31.5t-20 21.5t-27 12t-30 4v20q38 2 72.5 10.5t67.5 26.5v-638q0 -22 12 -37t35 -15q14 0 27 8l14 -13q-11 -17 -28 -25.5t-37 -8.5q-29 0 -51 18t-27 46z" />
    <glyph glyph-name="e" unicode="e" horiz-adv-x="446" 
d="M235 379q-26 0 -51 -9.5t-45.5 -29t-33.5 -49t-15 -68.5h279q0 30 -8.5 58.5t-25 50t-42 34.5t-58.5 13zM90 203q1 -38 14.5 -68.5t37 -52.5t55 -33.5t69.5 -11.5q35 0 67.5 13t58.5 35l14 -14q-70 -76 -171 -76q-44 0 -80.5 14t-62.5 39.5t-41 61.5t-15 80q0 53 19 94
t49.5 69t68.5 42.5t77 14.5q33 0 64 -10.5t55 -32t38.5 -53.5t14.5 -75l-40 -36h-292v0z" />
    <glyph glyph-name="f" unicode="f" horiz-adv-x="354" 
d="M119 391v152q0 30 10 58t28 49.5t43.5 34.5t57.5 13q12 0 23 -4t21.5 -8.5t21 -8t21.5 -3.5q17 0 27.5 6.5t22.5 17.5l11 -8q-5 -29 -21 -46.5t-50 -17.5q-14 0 -25 5.5t-22 12t-21.5 12t-22.5 5.5q-32 0 -50.5 -21.5t-18.5 -52.5v-196h154v-20h-154v-492
q0 -26 -11.5 -47.5t-29.5 -38t-40.5 -28t-44.5 -18.5l-8 18q32 18 55 42.5t23 63.5v500h-95v20h95z" />
    <glyph glyph-name="g" unicode="g" horiz-adv-x="506" 
d="M146 284q0 -21 8 -44t23 -41.5t36.5 -30.5t48.5 -12q22 0 40.5 9t31.5 24.5t20 35.5t7 42q0 23 -8.5 46t-23.5 41t-36.5 29.5t-46.5 11.5q-23 0 -41 -9.5t-31.5 -25t-20.5 -35.5t-7 -41zM118 -14q-17 -8 -29.5 -24t-12.5 -36q0 -32 16 -55t42 -38t59 -22t67 -7
q33 0 63.5 8t53.5 24t37 38t14 51q0 35 -21.5 49.5t-53.5 14.5q-21 0 -41 -3.5t-39.5 -8t-39 -8t-40.5 -3.5t-40 5.5t-35 14.5zM243 417q26 0 51 -6t47 -17q26 31 26 73q0 45 -30 78l13 15q26 -18 41 -46t15 -60q0 -46 -30 -82q24 -20 40 -47t16 -59q0 -28 -13 -52
t-35.5 -42t-53 -28t-65.5 -10q-56 0 -100 23q-20 -14 -32.5 -35t-12.5 -45q0 -29 21.5 -42t47.5 -13q44 0 87.5 10.5t88.5 10.5q22 0 43.5 -6.5t37.5 -19t26 -31.5t10 -43q0 -43 -21 -74t-54.5 -51.5t-76 -30t-85.5 -9.5q-59 0 -101 11.5t-68.5 30.5t-39 42t-12.5 47
q0 29 20.5 55t55.5 37q-12 12 -19 27t-7 32q0 35 20 63.5t49 46.5q-29 20 -48 49.5t-19 64.5q0 28 13 52t35.5 42t53 28.5t65.5 10.5z" />
    <glyph glyph-name="h" unicode="h" 
d="M164 309q29 46 78.5 74t104.5 28q58 0 91.5 -33t33.5 -91v-202q0 -22 12 -37t35 -15q14 0 27 8l14 -13q-11 -17 -28 -25.5t-37 -8.5q-31 0 -54.5 21t-23.5 53v200q0 51 -27 77t-78 26q-25 0 -48 -8.5t-42.5 -22.5t-34 -34t-23.5 -42v-190q0 -19 7.5 -29.5t19 -16t25.5 -7
t28 -1.5v-20h-216v20q14 0 28.5 1.5t26 7t19 16.5t7.5 29v539q0 18 -8 29t-20.5 16t-27.5 6.5t-29 1.5v20q38 2 72.5 10.5t67.5 26.5v-414v0z" />
    <glyph glyph-name="i" unicode="i" horiz-adv-x="268" 
d="M124 559q19 0 30 -15.5t11 -32.5q0 -18 -11 -33t-30 -15t-30 15t-11 33q0 17 11 32.5t30 15.5zM110 295q0 19 -8 29.5t-20.5 16t-27.5 7t-29 1.5v20q38 2 72.5 10t67.5 27v-332q0 -19 7.5 -29.5t19 -16t25.5 -7t28 -1.5v-20h-216v20q14 0 28.5 1.5t26 7t19 16.5t7.5 29
v221z" />
    <glyph glyph-name="j" unicode="j" horiz-adv-x="201" 
d="M135 559q20 0 31 -15.5t11 -32.5q0 -18 -11 -33t-31 -15q-19 0 -30 15t-11 33q0 17 11 32.5t30 15.5zM166 -67q0 -26 -7.5 -51t-22.5 -44.5t-36.5 -32t-49.5 -12.5q-33 0 -56 20l11 16q9 -4 17.5 -6.5t18.5 -2.5q33 0 51.5 25.5t18.5 55.5v394q0 19 -8 29.5t-20 16t-27 7
t-30 1.5v20q38 2 72.5 10t67.5 27v-473z" />
    <glyph glyph-name="k" unicode="k" horiz-adv-x="516" 
d="M28 20q14 0 28.5 1.5t26 7t19 16.5t7.5 29v539q0 18 -8 29t-20.5 16t-27.5 6.5t-29 1.5v20q38 2 72.5 10.5t67.5 26.5v-500l153 102q13 10 13 22q0 9 -9.5 16.5t-27.5 7.5v20h179v-20q-34 0 -60 -13t-54 -32l-95 -63q21 -3 37 -14t29 -27t22.5 -36t18.5 -40
q9 -21 18 -41.5t19 -36.5t22.5 -25.5t28.5 -9.5q5 0 16 2t13 6l3 2l14 -13q-11 -17 -29.5 -26.5t-38.5 -9.5q-26 0 -44 9t-31.5 24.5t-23 35t-17.5 40.5q-9 23 -17 45.5t-19 40.5t-25.5 29t-36.5 11q-16 0 -31 -10.5t-27 -27.5v-117q0 -19 7.5 -29.5t19 -16t25.5 -7t28 -1.5
v-20h-216v20v0z" />
    <glyph glyph-name="l" unicode="l" horiz-adv-x="268" 
d="M28 20q14 0 28.5 1.5t26 7t19 16.5t7.5 29v539q0 18 -8 29t-20.5 16t-27.5 6.5t-29 1.5v20q38 2 72.5 10.5t67.5 26.5v-649q0 -19 7.5 -29.5t19 -16t25.5 -7t28 -1.5v-20h-216v20v0z" />
    <glyph glyph-name="m" unicode="m" horiz-adv-x="824" 
d="M109 295q0 18 -8 29t-20.5 16.5t-27.5 7t-29 1.5v20q38 2 72.5 10t67.5 27v-64q28 31 71 49.5t86 18.5q42 0 75.5 -18.5t45.5 -61.5q32 37 77.5 58.5t89.5 21.5q24 0 44.5 -7.5t36.5 -22.5t25 -39t9 -57v-199q0 -22 12 -37t35 -15q14 0 27 8l14 -13q-11 -17 -28 -25.5
t-37 -8.5q-31 0 -54.5 21t-23.5 53v203q0 27 -7.5 46t-20.5 30.5t-30 17t-36 5.5q-35 0 -70 -18t-58 -50q0 -4 0.5 -7.5t0.5 -7.5v-210q0 -19 7.5 -30t19 -17t26 -8t28.5 -2v-20h-217v20q14 0 28.5 2t26 8t18.5 17t7 30v191q0 55 -29 78.5t-68 23.5q-35 0 -71.5 -16.5
t-59.5 -45.5v-234q0 -19 7.5 -29.5t19 -16t26 -7t28.5 -1.5v-20h-216v20q14 0 28 1.5t25.5 7t19 16.5t7.5 29v221z" />
    <glyph glyph-name="n" unicode="n" horiz-adv-x="594" 
d="M109 295q0 18 -8 29t-20.5 16.5t-27.5 7t-29 1.5v20q38 2 72.5 10t67.5 27v-114q13 26 34 48t46 37.5t54 24.5t59 9q58 0 91.5 -33t33.5 -91v-202q0 -22 12 -37t35 -15q14 0 27 8l14 -13q-11 -17 -28 -25.5t-37 -8.5q-31 0 -54.5 21t-23.5 53v200q0 53 -24.5 78t-77.5 25
q-31 0 -59 -12t-49.5 -32.5t-35.5 -47.5t-17 -57v-148q0 -19 7.5 -29.5t19 -16t26 -7t28.5 -1.5v-20h-216v20q14 0 28 1.5t25.5 7t19 16.5t7.5 29v221z" />
    <glyph glyph-name="o" unicode="o" horiz-adv-x="509" 
d="M255 386q-38 0 -66 -17t-46.5 -44t-28 -60.5t-9.5 -66.5q0 -35 10 -67t29.5 -57t48.5 -39.5t67 -14.5q37 0 64 17t45 44t27 60t9 65q0 34 -9 66.5t-28 57.5t-47 40.5t-66 15.5zM269 414q42 0 79 -15t65 -41t44 -62.5t16 -78.5q0 -47 -19 -88.5t-51.5 -72t-74.5 -48.5
t-88 -18q-42 0 -79 15t-65 41.5t-44 62.5t-16 79q0 47 19 88t51.5 72t74.5 48.5t88 17.5z" />
    <glyph glyph-name="p" unicode="p" horiz-adv-x="541" 
d="M164 63q20 -21 49.5 -31t62.5 -10t65.5 10.5t58.5 31.5t42.5 53t16.5 76q0 43 -14 74.5t-36.5 52.5t-52 31.5t-59.5 10.5q-38 0 -73 -14t-60 -43v-242zM89 -241l-11 15q14 15 22.5 28.5t8.5 36.5v468q0 18 -8 29t-20.5 16t-27.5 6.5t-29 1.5v21q38 2 72.5 10t67.5 27v-77
q31 32 72 47t83 15q37 0 73 -12t63.5 -37t44.5 -62t17 -86q0 -51 -19.5 -90.5t-51.5 -66.5t-73 -40.5t-84 -13.5q-66 0 -125 35v-241z" />
    <glyph glyph-name="q" unicode="q" horiz-adv-x="516" 
d="M402 250q0 28 -12.5 50.5t-33 38.5t-46 25t-50.5 9q-38 0 -69 -13t-53.5 -36t-34.5 -54t-12 -67t12 -68.5t33.5 -56.5t53 -38t70.5 -14q45 0 81.5 23t60.5 59v142v0zM402 70q-32 -41 -80.5 -61t-100.5 -20q-43 0 -77 13.5t-58 37.5t-37 57t-13 73q0 48 17 90t47.5 73
t71.5 49t89 18q28 0 48 -4.5t36.5 -10.5t30.5 -10.5t31 -4.5q20 0 34 6t31 17l14 -14q-13 -19 -20.5 -41t-7.5 -45v-431q0 -19 7.5 -29.5t19.5 -16t27 -7t30 -1.5v-20q-38 -2 -72.5 -10t-67.5 -27v319v0z" />
    <glyph glyph-name="r" unicode="r" horiz-adv-x="372" 
d="M109 295q0 19 -8 29.5t-20.5 16t-27.5 7t-29 1.5v20q38 2 72.5 10t67.5 27v-75q25 36 61 58t78 22q20 0 32.5 -13.5t12.5 -30.5q0 -15 -8 -29.5t-25 -14.5q-15 0 -23 11.5t-10 24.5q-5 1 -8.5 1h-8.5q-42 0 -65.5 -24.5t-35.5 -59.5v-199q0 -19 7.5 -30t19 -17t25.5 -8
t28 -2v-20h-216v20q14 0 28.5 2t26 8t19 17t7.5 30v218z" />
    <glyph glyph-name="s" unicode="s" horiz-adv-x="339" 
d="M315 403q-6 -26 -27 -40.5t-47 -14.5q-15 0 -29 4.5t-28 10t-28 10t-29 4.5q-11 0 -23 -3t-22 -9t-16 -16t-6 -24q0 -18 8 -31t21 -21.5t28.5 -14t29.5 -9.5q25 -7 52 -15.5t49.5 -22.5t37 -35t14.5 -53q0 -33 -13.5 -59t-36 -43.5t-51 -27t-59.5 -9.5q-65 0 -113 42v53
q31 -24 64 -38.5t73 -14.5q16 0 33.5 4t31.5 13t23.5 22.5t9.5 31.5q0 22 -12.5 37t-30.5 25.5t-38.5 17t-37.5 11.5q-24 7 -45.5 15.5t-38 21.5t-26 31.5t-9.5 45.5q0 26 11 46.5t29.5 35t41.5 22t47 7.5q17 0 28.5 -2t23.5 -4q11 -2 25 -4.5t36 -2.5q9 0 18.5 3t16.5 9z
" />
    <glyph glyph-name="t" unicode="t" horiz-adv-x="325" 
d="M290 391v-20h-151v-259q0 -34 15.5 -59.5t53.5 -25.5q21 0 41.5 8.5t37.5 20.5l14 -13q-15 -23 -43.5 -38t-56.5 -15q-51 0 -84.5 29.5t-33.5 82.5v269h-59v20q26 7 43 24.5t27.5 41t16 51t8.5 55.5h20v-172h151z" />
    <glyph glyph-name="u" unicode="u" 
d="M460 85q0 -22 11.5 -37t34.5 -15q14 0 28 8l14 -13q-11 -17 -28.5 -25.5t-37.5 -8.5q-31 0 -54.5 21t-23.5 53v9q-29 -39 -72.5 -64t-91.5 -25q-60 0 -95.5 35t-35.5 95v177q0 18 -8 29t-20.5 16.5t-27.5 7t-29 1.5v20q38 2 72.5 10t67.5 27v-282q0 -46 22 -71.5
t70 -25.5q44 0 84.5 26.5t63.5 65.5v176q0 19 -7.5 29.5t-19.5 16t-27 7t-30 1.5v20q38 2 72.5 10t67.5 27v-321z" />
    <glyph glyph-name="v" unicode="v" horiz-adv-x="517" 
d="M327 65q18 27 37 57t35.5 61.5t27 64t10.5 65.5q0 30 -13 52.5t-39 22.5q-18 0 -36 -11l-13 14q14 17 34.5 26.5t41.5 9.5q37 0 59 -24.5t22 -66.5q0 -44 -18.5 -89t-45.5 -88.5t-57.5 -84t-55.5 -74.5h-19l-112 270q-7 18 -15.5 36t-20 32.5t-27 23.5t-37.5 9
q-26 0 -47 -16l-14 14q14 21 36.5 31.5t46.5 10.5q25 0 44.5 -9.5t34.5 -26t26 -38.5t21 -46l93 -229l1 3v0z" />
    <glyph glyph-name="w" unicode="w" horiz-adv-x="707" 
d="M547 65q17 29 32 57.5t26 55.5q14 34 22 67t8 55q0 34 -15 61t-44 27q-18 0 -36 -11l-13 14q12 17 32 26.5t41 9.5q40 0 61.5 -28t21.5 -71q0 -38 -12 -74.5t-32 -78.5q-22 -46 -47.5 -89t-52.5 -86h-20l-103 236l-104 -236h-31l-157 330q-8 16 -16.5 22t-18.5 6
q-27 0 -47 -31l-18 9q13 35 33.5 51.5t44.5 16.5q21 0 40.5 -14t36.5 -47l137 -275l88 196q-6 15 -14.5 33.5t-20 34.5t-26 27t-33.5 11q-12 0 -24.5 -4t-22.5 -11l-14 13q13 21 35.5 31.5t47.5 10.5q24 0 42 -11.5t32.5 -30t26 -42t22.5 -47.5l92 -214v0z" />
    <glyph glyph-name="x" unicode="x" horiz-adv-x="505" 
d="M481 45l-92 -62l-143 193l-116 -140q-14 -16 -31 -32t-40 -16q-14 0 -24.5 9t-10.5 23t9.5 23t22.5 9q20 0 29 -17l140 169l-107 144q-10 13 -18.5 18t-21.5 5q-20 0 -41 -12l-12 15q12 17 31 27t40 10q52 0 84 -44l85 -115l91 110q14 16 30.5 32.5t39.5 16.5
q14 0 25 -9.5t11 -23.5t-9.5 -23t-23.5 -9q-20 0 -28 17l-115 -139l122 -162q7 -12 26 -12q18 0 36 12z" />
    <glyph glyph-name="y" unicode="y" horiz-adv-x="528" 
d="M309 -36q-5 19 -16 53.5t-26 75.5t-33.5 85.5t-38.5 83.5q-25 47 -50 78t-47 31q-20 0 -33 -14t-23 -29l-18 7q8 35 34 55.5t62 20.5q22 0 42 -12.5t39 -36t37.5 -57t37.5 -75.5q25 -56 45 -114t31 -96q21 36 37.5 75t28 76.5t17.5 71t6 58.5q0 49 -12 69t-35 20
q-18 0 -40 -13l-13 13q14 21 34 31.5t41 10.5q34 0 61 -28t27 -84q0 -33 -12 -76.5t-33.5 -92t-51 -99.5t-64.5 -99q-28 -38 -59 -71t-63 -57.5t-65 -38.5t-65 -14q-21 0 -41.5 12t-20.5 36q0 20 14.5 33t34.5 13q16 0 29.5 -9.5t17.5 -25.5q50 4 97 41t87 92z" />
    <glyph glyph-name="z" unicode="z" horiz-adv-x="394" 
d="M340 0h-316l263 381h-150q-20 0 -34.5 -7.5t-25 -19.5t-18 -27.5t-11.5 -31.5l-20 6l31 100h305l-260 -381h155q19 0 34.5 7.5t26.5 19.5t18.5 27.5t12.5 30.5l19 -6z" />
    <glyph glyph-name="braceleft" unicode="{" horiz-adv-x="331" 
d="M24 245q16 3 35.5 11t37 21.5t29 31t11.5 38.5q0 19 -3.5 38t-8 38t-8 38t-3.5 39q0 41 14.5 76t40 62t60 43.5t74.5 21.5l4 -23q-22 -4 -41.5 -13t-34.5 -23t-23.5 -33t-8.5 -42q0 -42 10.5 -82t10.5 -82q0 -30 -10.5 -55.5t-27.5 -47t-40.5 -38.5t-48.5 -29
q25 -13 48.5 -30t40.5 -38.5t27.5 -47.5t10.5 -57q0 -41 -10 -80t-10 -81q0 -24 8.5 -42.5t23.5 -32.5t34.5 -23.5t40.5 -15.5l-4 -23q-39 6 -73.5 23t-60 43.5t-40.5 61t-15 75.5q0 19 3.5 38t8 38t8 37.5t3.5 37.5q0 22 -11 40t-28 31.5t-37 22t-37 11.5v22z" />
    <glyph glyph-name="bar" unicode="|" horiz-adv-x="112" 
d="M88 -254h-64v1000h64v-1000z" />
    <glyph glyph-name="braceright" unicode="}" horiz-adv-x="331" 
d="M307 223q-17 -3 -37 -11.5t-37 -22t-28 -31.5t-11 -40q0 -19 3.5 -37.5t8 -37.5t8 -38t3.5 -38q0 -41 -15 -75.5t-40.5 -61t-60 -43.5t-73.5 -23l-4 23q21 6 40.5 15.5t34.5 23.5t23.5 32.5t8.5 42.5q0 42 -10 81t-10 80q0 31 10.5 57t27.5 47.5t40 38.5t49 30
q-26 12 -49 29t-40 38.5t-27.5 47t-10.5 55.5q0 42 10.5 82t10.5 82q0 23 -8.5 42t-23.5 33t-34.5 23t-40.5 13l3 23q40 -5 74.5 -21.5t60 -43.5t40.5 -62t15 -76q0 -20 -3.5 -39t-8 -38t-8 -38t-3.5 -38q0 -21 11.5 -38.5t28.5 -31t36.5 -21.5t35.5 -11v-22v0z" />
    <glyph glyph-name="asciitilde" unicode="~" horiz-adv-x="600" 
d="M121 -153q13 -3 29 -3q51 0 99.5 32t92.5 86q-5 19 -15.5 53t-25.5 75t-33 84.5t-38 82.5q-24 46 -48.5 77t-44.5 31q-22 0 -36.5 -9.5t-25.5 -27.5l-18 9q13 32 36 53t60 21q22 0 43 -15t40.5 -39.5t37.5 -57.5t34 -69q26 -57 45 -114t30 -95q32 51 58 108t44 117.5
t27.5 122.5t9.5 122q0 86 -31 137.5t-82 51.5q-23 0 -48 -13.5t-51 -45.5l-17 11q25 45 58.5 66.5t73.5 21.5q28 0 55.5 -13.5t48.5 -40.5t34 -67t13 -92q0 -63 -10.5 -127.5t-29.5 -126.5t-45.5 -120t-58.5 -109q-33 -52 -70 -95t-76.5 -74t-81 -48t-81.5 -17
q-18 0 -35.5 3t-32 10.5t-23 19t-8.5 28.5q0 20 14.5 33.5t34.5 13.5q22 0 35 -15t13 -36z" />
    <glyph glyph-name="nonbreakingspace" unicode="&#xa0;" horiz-adv-x="300" 
 />
    <glyph glyph-name="currency" unicode="&#xa4;" horiz-adv-x="668" 
d="M625 517q-10 29 -31 54t-48.5 43t-58.5 28t-61 10q-39 0 -72 -14.5t-58.5 -40t-44 -60t-30.5 -74.5q-5 -15 -8 -30t-5 -31h398l-31 -55h-372q-1 -5 -1 -9v-9v-9t1 -9h353l-31 -55h-317q2 -15 5 -30.5t8 -29.5q12 -40 30.5 -74.5t44 -60t58.5 -40t72 -14.5q30 0 61 10
t58.5 28t48.5 42.5t31 53.5l19 -3v-105q-93 -57 -204 -57q-60 0 -109 16t-86.5 44.5t-65 67t-43.5 82.5q-6 17 -11 34.5t-8 35.5h-93l31 55h56v36h-82l31 55h57q3 18 8 35.5t11 34.5q16 44 43.5 82.5t65 67t86.5 45t109 16.5q109 0 204 -58v-105l-19 -3v0z" />
    <glyph glyph-name="brokenbar" unicode="&#xa6;" horiz-adv-x="112" 
d="M88 225v-479h-64v479h64zM88 267h-64v479h64v-479z" />
    <glyph glyph-name="section" unicode="&#xa7;" horiz-adv-x="1029" 
d="M1005 433q0 -31 -11 -58.5t-30.5 -49.5t-45.5 -36t-57 -18q0 -36 -19 -60.5t-47.5 -40.5t-61.5 -23t-62 -7q-71 0 -125.5 19.5t-100 52.5t-84.5 76t-78 90q-14 17 -28 33.5t-29 33.5q-9 10 -21 21t-25.5 20.5t-28.5 15.5t-30 6q-30 0 -51 -21.5t-21 -50.5
q0 -30 21.5 -50.5t50.5 -20.5h11l3 -24q-10 -2 -14 -2q-20 0 -37.5 7.5t-30.5 20.5t-21 31t-8 38q0 24 10 43t26.5 33t37.5 21.5t43 7.5q30 0 55.5 -10t45.5 -27l9 -8q-6 18 -6 36q0 26 11.5 51t31.5 43q20 17 46 27t56 10q36 0 66 -14.5t56.5 -39t50.5 -56t48 -64.5
q24 -34 49 -66.5t53.5 -58.5t61 -42t71.5 -16q27 0 51.5 9.5t42.5 26.5t29 40t11 51q0 22 -8.5 42t-23.5 35t-35 23.5t-42 8.5q-29 0 -54 -18t-30 -47l-25 4q4 19 14 35t25 27.5t33 17.5t37 6q28 0 52.5 -10.5t42.5 -28.5t28.5 -42.5t10.5 -52.5zM836 269q-51 0 -92 18
t-75.5 47.5t-64.5 65.5t-57 72q-22 29 -43.5 56.5t-44 48.5t-47 33.5t-51.5 12.5q-19 0 -35.5 -7t-29.5 -19q-13 -13 -19.5 -30t-6.5 -35t8 -37q4 -8 9.5 -16t13.5 -17q11 -11 21 -23.5t21 -25.5q33 -39 72 -82.5t81 -80.5t86.5 -61t88.5 -24q36 0 66.5 8.5t53.5 22.5
q19 12 32 31t13 42z" />
    <glyph glyph-name="copyright" unicode="&#xa9;" horiz-adv-x="733" 
d="M367 663q-67 0 -125.5 -25.5t-102.5 -69.5t-69.5 -102.5t-25.5 -125.5q0 -66 25.5 -125t69.5 -102.5t102.5 -69t125.5 -25.5q66 0 125 25.5t102.5 69t69 102.5t25.5 125t-25.5 125t-69 103t-102.5 69.5t-125 25.5zM367 683q70 0 132.5 -27t109 -74t73.5 -109.5t27 -132.5
q0 -71 -27 -133t-73.5 -108.5t-109 -73.5t-132.5 -27q-71 0 -133.5 27t-109 73.5t-73.5 108.5t-27 133t27 133.5t73.5 109t109 73.5t133.5 27zM546 211v-70q-39 -20 -81.5 -29t-86.5 -9q-54 0 -102.5 15t-85 45t-58.5 74t-22 102q0 53 20 96.5t54.5 74.5t80.5 48t97 17
q24 0 42 -2.5t33.5 -5.5t29.5 -5.5t31 -2.5q14 0 25.5 2.5t25.5 6.5v-95h-12q-30 39 -75.5 59.5t-94.5 20.5q-46 0 -82.5 -17t-62 -45.5t-39.5 -67t-14 -82.5t13.5 -83.5t39 -69t62 -47t82.5 -17.5q21 0 46.5 5.5t49.5 16.5t43 27.5t28 37.5h13z" />
    <glyph glyph-name="guillemotleft" unicode="&#xab;" horiz-adv-x="350" 
d="M175 414h21l-71 -126l71 -125h-21l-151 125zM305 414h21l-71 -126l71 -125h-21l-151 125z" />
    <glyph glyph-name="logicalnot" unicode="&#xac;" horiz-adv-x="468" 
d="M390 285h-366v55h420v-187h-54v132z" />
    <glyph glyph-name="uni00AD" unicode="&#xad;" horiz-adv-x="471" 
d="M447 340v-55h-423v55h423z" />
    <glyph glyph-name="registered" unicode="&#xae;" horiz-adv-x="390" 
d="M195 663q-31 0 -58.5 -12t-48 -32.5t-32.5 -48t-12 -58.5t12 -58.5t32.5 -48t48 -32.5t58.5 -12t58.5 12t47.5 32.5t32 48t12 58.5t-12 58.5t-32 48t-47.5 32.5t-58.5 12zM195 683q35 0 66 -13.5t54.5 -37t37 -54.5t13.5 -66t-13.5 -66.5t-37 -54.5t-54.5 -36.5
t-66 -13.5t-66.5 13.5t-54.5 36.5t-36.5 54.5t-13.5 66.5t13.5 66t36.5 54.5t54.5 37t66.5 13.5zM196 515q21 0 35.5 11t14.5 34q0 22 -16 36.5t-39 14.5q-9 0 -19.5 -4t-10.5 -16v-76h35zM190 405h-81v10q10 0 19.5 2.5t9.5 15.5v161q0 14 -9.5 16.5t-19.5 2.5v10h49
q7 0 19 1.5t19 1.5q13 0 26.5 -3.5t24 -10t17.5 -17.5t7 -26q0 -22 -13 -38.5t-33 -22.5q16 -7 21.5 -21.5t7.5 -29t5 -25.5t15 -11q16 0 20 16l9 -1q-1 -14 -10.5 -23.5t-23.5 -9.5q-26 0 -33.5 15.5t-11.5 34t-11 34t-32 15.5q-6 0 -13 -1.5t-7 -8.5v-59q0 -13 9 -15.5
t20 -2.5v-10z" />
    <glyph glyph-name="degree" unicode="&#xb0;" horiz-adv-x="296" 
d="M75 607q0 -19 7 -36.5t18 -30.5t26 -20.5t30 -7.5q27 0 46 22t19 57q0 19 -7 36.5t-18.5 30.5t-26.5 20.5t-30 7.5q-27 0 -45.5 -22.5t-18.5 -56.5zM148 723q25 0 48 -10t39.5 -26.5t26.5 -39.5t10 -48q0 -26 -10 -48.5t-26.5 -39.5t-39.5 -26.5t-48 -9.5
q-26 0 -48.5 9.5t-39 26.5t-26.5 39.5t-10 48.5q0 25 10 48t26.5 39.5t39 26.5t48.5 10z" />
    <glyph glyph-name="plusminus" unicode="&#xb1;" horiz-adv-x="471" 
d="M447 55v-55h-423v55h423zM208 340v184h55v-184h184v-55h-184v-184h-55v184h-184v55h184z" />
    <glyph glyph-name="mu" unicode="&#xb5;" horiz-adv-x="639" 
d="M472 73q-29 -37 -73 -62.5t-92 -25.5q-33 0 -63.5 13.5t-48.5 42.5q-5 -22 -15.5 -50.5t-26 -53.5t-36.5 -42.5t-47 -17.5q-20 0 -33 12t-13 31q0 21 15.5 35.5t34.5 14.5q16 0 30 -11q20 17 33.5 41t22 51t12.5 54.5t4 52.5v134q0 19 -7.5 29.5t-19.5 16t-27 7t-30 1.5
l-1 20q38 2 72.5 10t67.5 27v-282q0 -45 22.5 -70.5t69.5 -25.5q44 0 85 26.5t64 63.5v177q0 19 -7.5 29.5t-19.5 16t-27 7t-30 1.5l-1 20q38 2 72.5 10t67.5 27v-320q0 -22 12 -37.5t35 -15.5q14 0 27 8l14 -13q-11 -17 -28 -25.5t-37 -8.5q-36 0 -57 23.5t-21 58.5z" />
    <glyph glyph-name="paragraph" unicode="&#xb6;" horiz-adv-x="864" 
d="M544 545q0 16 -3.5 30.5t-11.5 25.5q-11 16 -35 16q-15 0 -27 -9.5t-21 -26t-16 -38t-11 -45.5q-5 -26 -7.5 -53t-4 -51t-2 -43.5t-0.5 -31.5t0.5 -32t2 -44t4 -51t7.5 -53q4 -23 11 -44.5t16 -38t21 -26t27 -9.5t24.5 7t15.5 17.5t8 24t2 25.5v450zM606 95
q0 -17 2 -33.5t13 -30.5q9 -11 33.5 -16t52.5 -9q25 -3 48.5 -7t42.5 -12.5t30.5 -23.5t11.5 -40q0 -22 -17 -36t-38 -14q-22 0 -37 15t-15 35q0 8 5 20q-20 5 -41 6.5t-41 1.5q-47 0 -98.5 1.5t-104 6.5t-104 15t-98.5 27q-49 18 -90.5 45t-72 65.5t-47.5 89.5t-17 118
q0 84 39 147.5t102 108.5q38 28 82.5 49t91.5 34.5t93.5 20t89.5 6.5q49 0 98 4t97 13l20 4l11 -61q-15 -3 -29.5 -5.5t-29.5 -4.5q-20 -3 -35.5 -6.5t-26 -12.5t-16 -25.5t-5.5 -45.5v-450z" />
    <glyph glyph-name="periodcentered" unicode="&#xb7;" horiz-adv-x="165" 
d="M83 331q24 0 41 -17t17 -41q0 -25 -17 -42t-41 -17q-25 0 -42 17t-17 42q0 24 17 41t42 17z" />
    <glyph glyph-name="guillemotright" unicode="&#xbb;" horiz-adv-x="350" 
d="M175 163h-21l71 125l-71 126h21l151 -126zM45 163h-21l71 125l-71 126h21l151 -126z" />
    <glyph glyph-name="afii10023" unicode="&#x401;" horiz-adv-x="528" 
d="M391 687q29 0 49 -8.5t32 -21.5t17 -29t5 -30q0 -6 -1 -14t-3.5 -16t-7 -13.5t-12.5 -5.5t-11 6.5t-5 17.5q-8 39 -27.5 61.5t-63.5 22.5h-116q-26 0 -43.5 -11.5t-17.5 -39.5v-240h135q27 0 47.5 13t20.5 43h20v-137h-20q0 29 -20.5 42t-47.5 13h-135v-219
q0 -42 26 -68.5t68 -26.5h84q51 0 80.5 27t35.5 75q1 11 3 17.5t11 6.5t14 -6t7.5 -15t3 -18t0.5 -15q0 -20 -9 -38t-24 -31.5t-35 -21t-42 -7.5h-394v20q19 0 38.5 2t35 10t25.5 22.5t10 40.5v506q0 22 -9 35.5t-23 20t-31 8.5t-34 2v20h364zM205 806q17 0 28.5 -11.5
t11.5 -28.5t-11.5 -28t-28.5 -11q-16 0 -27.5 11t-11.5 28t11.5 28.5t27.5 11.5zM337 806q17 0 28 -11.5t11 -28.5t-11 -28t-28 -11t-28 11t-11 28t11 28.5t28 11.5z" />
    <glyph glyph-name="afii10053" unicode="&#x404;" horiz-adv-x="703" 
d="M678 698q-2 -18 -10 -36t-21 -32.5t-30 -23t-37 -8.5q-30 0 -57 8t-53 17q-49 17 -94.5 26.5t-85.5 -2.5q-74 -23 -121.5 -92t-55.5 -168h251q27 0 47.5 13t20.5 43h20v-137h-20q0 29 -20.5 42t-47.5 13h-252v-11q0 -65 18.5 -124t54 -103.5t88 -71t121.5 -26.5
q32 0 70 8.5t73.5 25t64 41.5t41.5 57h20v-106q-60 -29 -123 -43t-129 -14q-80 0 -150.5 24t-123 70t-83 113t-30.5 154q0 63 18.5 116t52.5 95t80 72t102 47q43 13 82.5 12.5t78 -6.5t77.5 -13t81 -7q17 0 35 8.5t28 24.5z" />
    <glyph glyph-name="uni0406" unicode="&#x406;" horiz-adv-x="305" 
d="M121 601q0 22 -9 35.5t-23 20t-31 8.5t-34 2v20h257v-20q-17 0 -34.5 -2t-31.5 -8.5t-23 -20t-9 -35.5v-515q0 -23 9 -36t23 -19.5t31.5 -8.5t34.5 -2v-20h-257v20q17 0 34 2t31 8.5t23 19.5t9 36v515z" />
    <glyph glyph-name="afii10056" unicode="&#x407;" horiz-adv-x="305" 
d="M121 601q0 22 -9 35.5t-23 20t-31 8.5t-34 2v20h257v-20q-17 0 -34.5 -2t-31.5 -8.5t-23 -20t-9 -35.5v-515q0 -23 9 -36t23 -19.5t31.5 -8.5t34.5 -2v-20h-257v20q17 0 34 2t31 8.5t23 19.5t9 36v515zM99 803q17 0 28.5 -11.5t11.5 -28.5t-11.5 -28t-28.5 -11
q-16 0 -27.5 11t-11.5 28t11.5 28.5t27.5 11.5zM206 803q17 0 28 -11.5t11 -28.5t-11 -28t-28 -11t-28 11t-11 28t11 28.5t28 11.5z" />
    <glyph glyph-name="afii10062" unicode="&#x40e;" horiz-adv-x="644" 
d="M356 173q-15 -33 -30 -64t-34 -55.5t-42 -39.5t-54 -15q-22 2 -37.5 13t-24.5 27.5t-11 34.5t3.5 33.5t18.5 26.5t34 11q0 -63 39 -71q30 -7 51.5 14.5t41.5 59.5l-214 448q-23 38 -47.5 54.5t-51.5 16.5v20h218v-20q-22 0 -35.5 -13t-13.5 -35l182 -388l163 350
q10 24 7 37q-5 25 -27.5 37t-44.5 12l-4 20h194l4 -20q-33 0 -54.5 -20t-31.5 -42zM198 805q0 14 12 24t34 10q14 0 19 -7.5t10 -22.5q4 -11 8 -21t11 -18t18.5 -12.5t30.5 -4.5q35 0 47 15t19 39q5 17 10.5 24.5t19.5 7.5q21 0 33.5 -10t12.5 -24q0 -34 -43 -54t-99 -20
q-55 0 -100 20q-43 20 -43 54z" />
    <glyph glyph-name="afii10017" unicode="&#x410;" horiz-adv-x="826" 
d="M244 258h295l-154 300zM562 0v20q24 0 44.5 15t20.5 41q0 11 -4 18l-64 124h-334l-65 -136q-6 -14 -6 -25q0 -23 19 -30t39 -7v-20h-196v20q48 0 75 17.5t46 57.5l230 480q-25 29 -50 46t-54 28l115 62l324 -620q6 -12 16 -25t22.5 -23t27 -16.5t29.5 -6.5h5v-20h-240z
" />
    <glyph glyph-name="afii10018" unicode="&#x411;" horiz-adv-x="608" 
d="M183 604v-5v-548q25 -14 54 -20t58 -6q43 0 82 13t69 38t47.5 61t17.5 83q0 54 -23 93t-60.5 59.5t-84.5 20.5t-95 -23l-11 16q61 36 121.5 36t109 -27t78.5 -77t30 -115q0 -47 -21.5 -85t-56 -65t-77.5 -42t-86 -15q-9 0 -27 0.5t-38 1.5t-38.5 1.5t-28.5 0.5h-179v20
q16 0 33.5 2t31.5 8.5t23 19.5t9 36v513q0 22 -9 35.5t-23 20t-31 8.5t-34 2v20h431q30 0 43 9t20 17q5 5 8.5 7.5t8.5 2.5q9 0 11.5 -7t2.5 -14q0 -9 -4 -31.5t-10.5 -46.5t-16 -42t-21.5 -18q-6 0 -10 5t-4 11q0 10 4 18.5t4 19.5q0 23 -13.5 31t-33.5 8h-5h-194
q-26 0 -44 -11.5t-18 -39.5z" />
    <glyph glyph-name="afii10019" unicode="&#x412;" horiz-adv-x="606" 
d="M340 333q-14 -9 -31 -9q-9 0 -21.5 4.5t-12.5 16.5q0 13 14 17t24 4q33 0 63.5 9.5t53.5 28t37 45.5t14 63q0 40 -15.5 68.5t-40.5 47t-56 27t-62 8.5q-24 0 -46.5 -5t-39.5 -14t-27.5 -22t-10.5 -29v-444q0 -27 12.5 -49.5t32.5 -39t44.5 -25.5t49.5 -9q34 0 68.5 8.5
t62 27t44.5 47t17 67.5q0 36 -15 64.5t-39.5 48.5t-55.5 31t-64 13zM24 20q17 0 34.5 3t31.5 10.5t22.5 20t8.5 32.5v515q0 27 -19.5 46.5t-46.5 19.5h-31v20h151q51 0 88 5t60 5q43 0 84.5 -11.5t74 -32.5t52.5 -51.5t20 -68.5q0 -29 -11.5 -54.5t-30 -46t-42 -35.5
t-47.5 -23q32 -8 61 -22t50.5 -35t34.5 -49t13 -64q0 -47 -21.5 -84.5t-55.5 -64t-76.5 -41t-84.5 -14.5h-320v20z" />
    <glyph glyph-name="afii10020" unicode="&#x413;" horiz-adv-x="540" 
d="M397 657h-152q-26 0 -44 -11.5t-18 -39.5v-520q0 -23 9 -36t23 -19.5t31.5 -8.5t34.5 -2v-20h-257v20q17 0 34 2t31 8.5t23 19.5t9 36v515q0 22 -9 35.5t-23 20t-31 8.5t-34 2v20h389q30 0 43 9t20 17q5 5 8.5 7.5t8.5 2.5q9 0 11.5 -7t2.5 -14q0 -9 -4 -31.5
t-10.5 -46.5t-16 -42t-21.5 -18q-6 0 -10 5t-4 11q0 10 4 18.5t4 19.5q0 23 -13.5 31t-33.5 8h-5z" />
    <glyph glyph-name="afii10021" unicode="&#x414;" horiz-adv-x="780" 
d="M85 0q-23 0 -36.5 -10t-21.5 -25t-12.5 -33.5t-10.5 -34.5q-4 -11 -7 -15t-6 -4t-5.5 2.5t-4.5 3.5l22 179q1 6 10 10t19 -4l5 -35h29l264 541q-25 29 -50 46t-54 28l115 62l353 -677h39l18 43q11 8 19.5 4t7.5 -10l-29 -191q-1 -4 -5.5 -6.5t-8.5 -1.5t-6.5 6t0.5 15
q4 16 5 34.5t-5 34.5t-19.5 27t-38.5 11h-586zM95 34h522l-269 524z" />
    <glyph glyph-name="afii10022" unicode="&#x415;" horiz-adv-x="559" 
d="M400 687q29 0 49 -8.5t32 -21.5t17 -29t5 -30q0 -6 -1 -14t-3.5 -16t-7 -13.5t-12.5 -5.5t-11 6.5t-5 17.5q-8 39 -27.5 61.5t-63.5 22.5h-116q-26 0 -43.5 -11.5t-17.5 -39.5v-223h135q27 0 47.5 13t20.5 43h20v-137h-20q0 29 -20.5 42t-47.5 13h-135v-236
q0 -42 26 -68.5t68 -26.5h84q51 0 80.5 27t35.5 75q1 11 3 17.5t11 6.5t14 -6t7.5 -15t3 -18t0.5 -15q0 -20 -9 -38t-24 -31.5t-35 -21t-42 -7.5h-394v20q19 0 38.5 2t35 10t25.5 22.5t10 40.5v506q0 22 -9 35.5t-23 20t-31 8.5t-34 2v20h364z" />
    <glyph glyph-name="afii10024" unicode="&#x416;" horiz-adv-x="992" 
d="M377 20q17 0 34.5 2t31.5 8.5t23 19.5t9 36v197q0 18 -7 29t-16.5 18t-20.5 9.5t-20 2.5q-38 0 -62 -21t-39 -52.5t-23.5 -68t-14.5 -67.5q-5 -26 -16 -50.5t-28 -44t-40.5 -31.5t-52.5 -12q-45 0 -72.5 27.5t-31.5 72.5l20 3q5 -25 24 -41t44 -16q15 0 26.5 6t19.5 16
t14 23t9 26q11 42 24 86t38 81q26 38 49 56t51 24q-20 5 -40.5 32t-33.5 67q-2 6 -4 13t-3 15q-11 56 -28.5 89.5t-53.5 33.5q-25 0 -38 -14t-18 -47q-33 8 -43 34t-1.5 52.5t32.5 46t59 14.5q35 -1 57 -28q23 -26 34.5 -60.5t24.5 -87.5q2 -6 3 -11.5t2 -10.5
q3 -15 5.5 -25.5t4.5 -13.5q10 -37 26.5 -57t37.5 -29t47 -10t55 0v239q0 22 -9 35.5t-23 20t-31.5 8.5t-34.5 2v20h257v-20q-17 0 -34.5 -2t-31.5 -8.5t-23 -20t-9 -35.5v-239q29 -1 55 0t47 10t37 29t27 57q2 3 4.5 13.5t5.5 25.5q1 5 2 10.5t3 11.5q13 53 24.5 87.5
t34.5 60.5q22 27 57 28q35 5 59 -14.5t32.5 -46t-1.5 -52.5t-43 -34q-5 33 -18 47t-38 14q-36 0 -53.5 -33.5t-28.5 -89.5q-1 -8 -3 -15t-4 -13q-13 -40 -33.5 -67t-40.5 -32q28 -6 51 -24t49 -56q25 -37 38 -81t24 -86q3 -13 9 -26t14 -23t19.5 -16t26.5 -6q25 0 44 16
t24 41l20 -3q-4 -45 -31.5 -72.5t-72.5 -27.5q-29 0 -52.5 12t-40.5 31.5t-28 44t-16 50.5q-6 31 -14.5 67.5t-23.5 68t-39.5 52.5t-61.5 21q-9 0 -20 -2.5t-20.5 -9.5t-16.5 -18t-7 -29v-197q0 -23 9 -36t23 -19.5t31.5 -8.5t34.5 -2v-20h-257v20z" />
    <glyph glyph-name="afii10025" unicode="&#x417;" horiz-adv-x="525" 
d="M54 698q10 -16 28 -24.5t35 -8.5q23 0 37.5 2t28 5t28 6.5t37.5 6.5q40 5 79 -2.5t70.5 -26t51 -47t19.5 -65.5q0 -57 -32 -101t-104 -60q35 -3 65.5 -16.5t53 -35.5t35.5 -51.5t13 -64.5q0 -36 -12.5 -67t-33.5 -55.5t-49 -43t-61 -30.5q-57 -20 -116 -20q-52 0 -101 15
t-91 46v89q25 -29 60 -53t74 -39t79 -18.5t73 8.5q38 14 62.5 51t27.5 105q0 35 -7.5 66t-24.5 53q-18 22 -42 32t-51 13t-55.5 2t-55.5 -1q-11 0 -19 2.5t-8 7.5q-1 7 4 10.5t22 3.5h50t51 3.5t47.5 13t38.5 28.5q17 19 24.5 49.5t4.5 77.5q-3 52 -29.5 69.5t-62.5 14.5
q-18 -1 -41.5 -8.5t-46.5 -16.5t-43.5 -16t-33.5 -7q-40 0 -67 27.5t-31 64.5z" />
    <glyph glyph-name="afii10026" unicode="&#x418;" horiz-adv-x="826" 
d="M183 86q0 -23 9 -36t23 -19.5t31.5 -8.5t34.5 -2v-20h-257v20q17 0 34 2t31 8.5t23 19.5t9 36v515q0 22 -9 35.5t-23 20t-31 8.5t-34 2v20h257v-20q-17 0 -34.5 -2t-31.5 -8.5t-23 -20t-9 -35.5v-453l460 449v4q0 22 -9 35.5t-23 20t-31 8.5t-34 2v20h256v-20
q-17 0 -34 -2t-31 -8.5t-23 -20t-9 -35.5v-515q0 -23 9 -36t23 -19.5t31 -8.5t34 -2v-20h-256v20q17 0 34 2t31 8.5t23 19.5t9 36v453l-460 -449v-4z" />
    <glyph glyph-name="afii10027" unicode="&#x419;" horiz-adv-x="826" 
d="M183 86q0 -23 9 -36t23 -19.5t31.5 -8.5t34.5 -2v-20h-257v20q17 0 34 2t31 8.5t23 19.5t9 36v515q0 22 -9 35.5t-23 20t-31 8.5t-34 2v20h257v-20q-17 0 -34.5 -2t-31.5 -8.5t-23 -20t-9 -35.5v-453l460 449v4q0 22 -9 35.5t-23 20t-31 8.5t-34 2v20h256v-20
q-17 0 -34 -2t-31 -8.5t-23 -20t-9 -35.5v-515q0 -23 9 -36t23 -19.5t31 -8.5t34 -2v-20h-256v20q17 0 34 2t31 8.5t23 19.5t9 36v453l-460 -449v-4zM285 805q0 14 12 24t34 10q14 0 19 -7.5t10 -22.5q4 -11 8 -21t11 -18t18.5 -12.5t30.5 -4.5q35 0 47 15t19 39
q5 17 10.5 24.5t19.5 7.5q21 0 33.5 -10t12.5 -24q0 -34 -43 -54t-99 -20q-55 0 -100 20q-43 20 -43 54z" />
    <glyph glyph-name="afii10028" unicode="&#x41a;" horiz-adv-x="643" 
d="M373 497q1 5 2 10.5t3 11.5q13 53 24.5 87.5t34.5 60.5q22 27 57 28q35 5 59 -14.5t32.5 -46t-1.5 -52.5t-43 -34q-5 33 -18 47t-38 14q-36 0 -53.5 -33.5t-28.5 -89.5q-1 -8 -3 -15t-4 -13q-13 -40 -33.5 -67t-40.5 -32q28 -6 51 -24t49 -56q25 -37 38 -81t24 -86
q3 -13 9 -26t14 -23t19.5 -16t26.5 -6q25 0 44 16t24 41l20 -3q-4 -45 -31.5 -72.5t-72.5 -27.5q-29 0 -52.5 12t-40.5 31.5t-28 44t-16 50.5q-4 21 -9.5 45.5t-13 48.5t-18 45.5t-25.5 37.5q-16 17 -42.5 25.5t-51.5 6.5t-43.5 -16t-18.5 -43v-197q0 -23 9 -36t23 -19.5
t31.5 -8.5t34.5 -2v-20h-257v20q17 0 34.5 2t31.5 8.5t23 19.5t9 36v515q0 22 -9 35.5t-23 20t-31.5 8.5t-34.5 2v20h257v-20q-17 0 -34.5 -2t-31.5 -8.5t-23 -20t-9 -35.5v-239q31 0 59.5 -0.5t52.5 7.5t43 28t30 61q2 3 4.5 13.5t5.5 25.5z" />
    <glyph glyph-name="afii10029" unicode="&#x41b;" horiz-adv-x="839" 
d="M421 554q-54 -117 -93 -203.5t-67.5 -148.5t-49.5 -101.5t-40 -62.5t-38.5 -32t-43.5 -8q-30 3 -46.5 25.5t-18 48.5t12 47.5t43.5 22.5q0 -33 7 -49.5t25 -21.5q34 -8 58.5 25t51.5 92l181 387q-25 29 -50 46t-54 28l115 62l324 -620q6 -12 16 -25t22.5 -23t27 -16.5
t29.5 -6.5h5v-20h-240v20q24 0 44.5 15t20.5 41q0 11 -4 18l-64 124z" />
    <glyph glyph-name="afii10030" unicode="&#x41c;" horiz-adv-x="877" 
d="M802 725q11 0 21 -5.5t10 -17.5q0 -9 -7.5 -14t-15.5 -7q-23 -4 -38.5 -21t-15.5 -49v-525q0 -23 8.5 -36t22.5 -19.5t31.5 -8.5t34.5 -2v-20h-257v20q17 0 34.5 2t31.5 8.5t23 19.5t9 36v440l-298 -499l-240 479v-420q0 -23 9 -36t23 -19.5t31 -8.5t34 -2v-20h-226v20
q17 0 34 2t31 8.5t23 19.5t9 36v440q0 39 -14 64.5t-35 41.5t-46.5 24.5t-48.5 13.5l129 71l308 -616l336 566q9 15 21.5 24.5t27.5 9.5z" />
    <glyph glyph-name="afii10031" unicode="&#x41d;" horiz-adv-x="826" 
d="M121 601q0 22 -9 35.5t-23 20t-31 8.5t-34 2v20h257v-20q-17 0 -34.5 -2t-31.5 -8.5t-23 -20t-9 -35.5v-221h460v221q0 22 -9 35.5t-23 20t-31 8.5t-34 2v20h256v-20q-17 0 -34 -2t-31 -8.5t-23 -20t-9 -35.5v-515q0 -23 9 -36t23 -19.5t31 -8.5t34 -2v-20h-256v20
q17 0 34 2t31 8.5t23 19.5t9 36v253h-460v-253q0 -23 9 -36t23 -19.5t31.5 -8.5t34.5 -2v-20h-257v20q17 0 34 2t31 8.5t23 19.5t9 36v515z" />
    <glyph glyph-name="afii10032" unicode="&#x41e;" horiz-adv-x="776" 
d="M408 46q71 0 122.5 23t85 61t49.5 87t16 101q0 60 -21 119t-61 106t-98 76.5t-133 29.5q-70 0 -121.5 -22.5t-85.5 -59.5t-50.5 -85.5t-16.5 -99.5q0 -60 21 -120t61 -108t98.5 -78t133.5 -30zM368 -5q-68 0 -128 26t-105.5 70.5t-72 104t-26.5 126.5q0 77 29 146
t79.5 120.5t118.5 81.5t145 30q67 0 127.5 -26t106 -70.5t72 -104t26.5 -126.5q0 -77 -29.5 -146t-80 -120.5t-118 -81.5t-144.5 -30z" />
    <glyph glyph-name="afii10033" unicode="&#x41f;" horiz-adv-x="826" 
d="M802 687v-20q-17 0 -34 -2t-31 -8.5t-23 -20t-9 -35.5v-515q0 -23 9 -36t23 -19.5t31 -8.5t34 -2v-20h-256v20q17 0 34 2t31 8.5t23 19.5t9 36v573h-460v-573q0 -23 9 -36t23 -19.5t31.5 -8.5t34.5 -2v-20h-257v20q17 0 34 2t31 8.5t23 19.5t9 36v515q0 22 -9 35.5
t-23 20t-31 8.5t-34 2v20h778z" />
    <glyph glyph-name="afii10034" unicode="&#x420;" horiz-adv-x="597" 
d="M203 687q10 0 28.5 0.5t38.5 1.5t38 1.5t27 0.5q43 0 85.5 -13t76.5 -38t55 -61.5t21 -83.5q0 -51 -19.5 -95.5t-52.5 -77t-77.5 -51.5t-94.5 -19q-29 0 -56 9t-50 28l11 16q21 -11 43.5 -17t46.5 -6q41 0 75.5 15t59 40.5t38.5 60.5t14 76q0 46 -17.5 81.5t-47.5 59
t-69 35.5t-82 12q-29 0 -58 -6t-54 -20v-550q0 -23 9 -36t23 -19.5t31.5 -8.5t34.5 -2v-20h-257v20q17 0 34 2t31 8.5t23 19.5t9 36v515q0 22 -9 35.5t-23 20t-31 8.5t-34 2v20h179z" />
    <glyph glyph-name="afii10035" unicode="&#x421;" horiz-adv-x="717" 
d="M689 157v-106q-59 -29 -123 -43t-129 -14q-80 0 -153 23t-128 67.5t-87.5 110.5t-32.5 153q0 79 30.5 144t82 111.5t120 72t145.5 25.5q36 0 62.5 -4t49.5 -8.5t44 -8t47 -3.5q20 0 38 4t38 10v-143h-18q-45 60 -113 90t-141 30q-69 0 -124 -25t-93.5 -67.5t-59 -100.5
t-20.5 -125q0 -65 20.5 -124t59 -103.5t93 -71t123.5 -26.5q32 0 70 8.5t73.5 25t64 41.5t41.5 57h20z" />
    <glyph glyph-name="afii10036" unicode="&#x422;" horiz-adv-x="679" 
d="M380 86q0 -22 9 -35t23 -20t31.5 -9t34.5 -2v-20h-257v20q17 0 34 1.5t31 8.5t23 20t9 36v571h-154q-47 0 -69.5 -21.5t-42.5 -59.5q-2 -5 -7 -8.5t-10 -3.5q-11 0 -11 15q0 12 5.5 32t14 41t18.5 39t19 27q5 5 12 5q6 0 9 -3.5t7 -8.5q5 -7 15.5 -15.5t39.5 -8.5h397
q30 0 43 9t20 17q5 5 8.5 7.5t8.5 2.5q9 0 11.5 -7t2.5 -14q0 -9 -4 -31.5t-10.5 -46.5t-16 -42t-21.5 -18q-6 0 -10 5t-4 11q0 10 4 18.5t4 19.5q0 23 -13.5 31t-33.5 8h-170v-571z" />
    <glyph glyph-name="afii10037" unicode="&#x423;" horiz-adv-x="644" 
d="M356 173q-15 -33 -30 -64t-34 -55.5t-42 -39.5t-54 -15q-22 2 -37.5 13t-24.5 27.5t-11 34.5t3.5 33.5t18.5 26.5t34 11q0 -63 39 -71q30 -7 51.5 14.5t41.5 59.5l-214 448q-23 38 -47.5 54.5t-51.5 16.5v20h218v-20q-22 0 -35.5 -13t-13.5 -35l182 -388l163 350
q10 24 7 37q-5 25 -27.5 37t-44.5 12l-4 20h194l4 -20q-33 0 -54.5 -20t-31.5 -42z" />
    <glyph glyph-name="afii10038" unicode="&#x424;" horiz-adv-x="844" 
d="M453 159q49 -26 103 -25t99 26.5t74 73t29 113.5t-29 114.5t-74 74.5t-99 27.5t-103 -24.5v-380zM294 0v20q17 0 34.5 2t31.5 8.5t23 19.5t9 36v43q-58 -26 -131 -26q-44 0 -87 16.5t-77.5 48.5t-56 77.5t-21.5 104.5q0 58 21.5 104t56 77t77.5 47.5t87 16.5
q73 0 131 -26v32q0 22 -9 35.5t-23 20t-31.5 8.5t-34.5 2v20h257v-20q-17 0 -34.5 -2t-31.5 -8.5t-23 -20t-9 -35.5v-32q58 26 131 26q44 0 87 -16.5t77.5 -47.5t56 -77t21.5 -104q0 -59 -21.5 -104.5t-56 -77.5t-77.5 -48.5t-87 -16.5q-73 0 -131 26v-43q0 -23 9 -36
t23 -19.5t31.5 -8.5t34.5 -2v-20h-257zM392 539q-50 26 -103.5 24.5t-98.5 -27.5t-74 -74.5t-29 -114.5t29 -113.5t74 -73t98.5 -26.5t103.5 25v380z" />
    <glyph glyph-name="afii10039" unicode="&#x425;" horiz-adv-x="690" 
d="M24 20q23 0 45.5 14.5t42.5 40.5l208 263l-184 257q-8 11 -18.5 24t-22.5 23.5t-26.5 17.5t-29.5 7v20h225v-20q-22 0 -35.5 -13t-13.5 -35q0 -21 13 -38l135 -189l150 190q17 20 17 41q0 20 -15 32t-35 12v20h180v-20q-18 0 -42 -14t-36 -29l-202 -257l212 -298
q12 -17 34.5 -33t39.5 -16v-20h-227v20q23 0 40.5 10.5t17.5 36.5q0 9 -3 20t-9 19l-148 207l-162 -207q-19 -23 -19 -41q0 -12 6.5 -21t16 -14t21 -7.5t21.5 -2.5v-20h-197v20z" />
    <glyph glyph-name="afii10040" unicode="&#x426;" horiz-adv-x="831" 
d="M24 0v20q17 0 34 2t31 8.5t23 20t9 35.5v514q0 23 -9 36t-23 19.5t-31 8.5t-34 2v20h257v-20q-17 0 -34.5 -2t-31.5 -8.5t-23 -19.5t-9 -36v-572h460v572q0 23 -9 36t-23 19.5t-31 8.5t-34 2v20h256v-20q-17 0 -34 -2t-31 -8.5t-23 -19.5t-9 -36v-566h63l18 43
q11 8 19.5 4t7.5 -10l-29 -191q-1 -4 -5.5 -6.5t-8.5 -1.5t-6.5 6t0.5 15q4 16 5 34.5t-5 34.5t-19.5 27t-38.5 11h-682z" />
    <glyph glyph-name="afii10041" unicode="&#x427;" horiz-adv-x="769" 
d="M586 601q0 22 -9 35.5t-23 20t-31 8.5t-34 2v20h256v-20q-17 0 -34 -2t-31 -8.5t-23 -20t-9 -35.5v-515q0 -23 9 -36t23 -19.5t31 -8.5t34 -2v-20h-256v20q17 0 34 2t31 8.5t23 19.5t9 36v292q-42 -51 -101.5 -73.5t-123.5 -21.5q-50 0 -94 13.5t-76.5 41t-51.5 69.5
t-19 101v93q0 22 -9 35.5t-23 20t-31 8.5t-34 2v20h257v-20q-17 0 -34.5 -2t-31.5 -8.5t-23 -20t-9 -35.5v-85q0 -51 13 -86.5t37.5 -57.5t59 -31.5t76.5 -9.5q25 0 54 3.5t58.5 13t57 27t48.5 46.5v180z" />
    <glyph glyph-name="afii10042" unicode="&#x428;" horiz-adv-x="1227" 
d="M1194 0h-1166v20q17 0 34 2t31 8.5t23 20t9 35.5v514q0 23 -9 36t-23 19.5t-31 8.5t-34 2v20h257v-20q-17 0 -34.5 -2t-31.5 -8.5t-23 -19.5t-9 -36v-572h393v572q0 23 -9 36t-23 19.5t-31 8.5t-34 2v20h257v-20q-17 0 -34.5 -2t-31.5 -8.5t-23 -19.5t-9 -36v-572h393
v572q0 23 -9 36t-23 19.5t-31 8.5t-34 2v20h256v-20q-17 0 -34 -2t-31 -8.5t-23 -19.5t-9 -36v-514q0 -22 9 -35.5t23 -20t31 -8.5t34 -2v-20z" />
    <glyph glyph-name="afii10043" unicode="&#x429;" horiz-adv-x="1227" 
d="M28 20q17 0 34 2t31 8.5t23 20t9 35.5v514q0 23 -9 36t-23 19.5t-31 8.5t-34 2v20h257v-20q-17 0 -34.5 -2t-31.5 -8.5t-23 -19.5t-9 -36v-572h393v572q0 23 -9 36t-23 19.5t-31 8.5t-34 2v20h257v-20q-17 0 -34.5 -2t-31.5 -8.5t-23 -19.5t-9 -36v-572h393v572
q0 23 -9 36t-23 19.5t-31 8.5t-34 2v20h256v-20q-17 0 -34 -2t-31 -8.5t-23 -19.5t-9 -36v-566h63l18 43q11 8 19.5 4t7.5 -10l-29 -191q-1 -4 -5.5 -6.5t-8.5 -1.5t-6.5 6t0.5 15q4 16 5 34.5t-5 34.5t-19.5 27t-38.5 11h-1070v20z" />
    <glyph glyph-name="afii10044" unicode="&#x42a;" horiz-adv-x="728" 
d="M303 51q25 -14 54 -20t58 -6q43 0 82 13t69 38t47.5 61t17.5 83q0 54 -23 93t-60.5 59.5t-84.5 20.5t-95 -23l-11 16q61 36 121.5 36t109 -27t78.5 -77t30 -115q0 -47 -21.5 -85t-56 -65t-77.5 -42t-86 -15q-9 0 -27 0.5t-38 1.5t-38.5 1.5t-28.5 0.5h-179v20
q16 0 33.5 2t31.5 8.5t23 19.5t9 36v571h-82q-47 0 -69.5 -21.5t-42.5 -59.5q-5 -12 -17 -12q-11 0 -11 15q0 12 5.5 32t14 41t18.5 39t19 27q5 5 12 5q6 0 9 -3.5t7 -8.5q5 -7 15.5 -15.5t39.5 -8.5h242v-20q-17 0 -34.5 -2t-31.5 -8.5t-23 -20t-9 -35.5v-550z" />
    <glyph glyph-name="afii10045" unicode="&#x42b;" horiz-adv-x="908" 
d="M125 601q0 22 -9 35.5t-23 20t-31 8.5t-34 2v20h257v-20q-17 0 -34.5 -2t-31.5 -8.5t-23 -20t-9 -35.5v-550q25 -14 54 -20t58 -6q43 0 82 13t69 38t47.5 61t17.5 83q0 54 -23 93t-60.5 59.5t-84.5 20.5t-95 -23l-11 16q61 36 121.5 36t109 -27t78.5 -77t30 -115
q0 -47 -21.5 -85t-56 -65t-77.5 -42t-86 -15q-9 0 -27 0.5t-38 1.5t-38.5 1.5t-28.5 0.5h-179v20q16 0 33.5 2t31.5 8.5t23 19.5t9 36v515zM720 601q0 22 -9 35.5t-23 20t-31 8.5t-34 2v20h257v-20q-17 0 -34.5 -2t-31.5 -8.5t-23 -20t-9 -35.5v-515q0 -23 9 -36t23 -19.5
t31.5 -8.5t34.5 -2v-20h-257v20q17 0 34 2t31 8.5t23 19.5t9 36v515z" />
    <glyph glyph-name="afii10046" unicode="&#x42c;" horiz-adv-x="612" 
d="M125 601q0 22 -9 35.5t-23 20t-31 8.5t-34 2v20h257v-20q-17 0 -34.5 -2t-31.5 -8.5t-23 -20t-9 -35.5v-550q25 -14 54 -20t58 -6q43 0 82 13t69 38t47.5 61t17.5 83q0 54 -23 93t-60.5 59.5t-84.5 20.5t-95 -23l-11 16q61 36 121.5 36t109 -27t78.5 -77t30 -115
q0 -47 -21.5 -85t-56 -65t-77.5 -42t-86 -15q-9 0 -27 0.5t-38 1.5t-38.5 1.5t-28.5 0.5h-179v20q16 0 33.5 2t31.5 8.5t23 19.5t9 36v515z" />
    <glyph glyph-name="afii10047" unicode="&#x42d;" horiz-adv-x="703" 
d="M43 704q10 -16 28 -24.5t35 -8.5q42 0 81 7t77.5 13t78 6.5t82.5 -12.5q55 -17 101.5 -47t80.5 -72t52.5 -95t18.5 -116q0 -87 -30.5 -154t-83 -113t-123 -70t-150.5 -24q-66 0 -129 14t-123 43v106h20q13 -32 41.5 -57t64 -41.5t73.5 -25t70 -8.5q69 0 121.5 26.5t88 71
t54 103.5t18.5 124v11h-272q-27 0 -47.5 -13t-20.5 -42h-20v137h20q0 -30 20.5 -43t47.5 -13h270q-8 99 -55 168t-121 92q-40 12 -85.5 2.5t-94.5 -26.5q-26 -9 -53 -17t-57 -8q-20 0 -37 8.5t-30 23t-21 32.5t-10 36z" />
    <glyph glyph-name="afii10048" unicode="&#x42e;" horiz-adv-x="1028" 
d="M618 -9q-68 0 -128 26t-105.5 70.5t-72 104t-26.5 126.5v25h-103v-257q0 -23 9 -36t23 -19.5t31.5 -8.5t34.5 -2v-20h-257v20q17 0 34 2t31 8.5t23 19.5t9 36v515q0 22 -9 35.5t-23 20t-31 8.5t-34 2v20h257v-20q-17 0 -34.5 -2t-31.5 -8.5t-23 -20t-9 -35.5v-221h107
q8 43 25 84q29 69 79.5 120.5t118.5 81.5t145 30q67 0 127.5 -26t106 -70.5t72 -104t26.5 -126.5q0 -77 -29.5 -146t-80 -120.5t-118 -81.5t-144.5 -30zM658 42q71 0 122.5 23t85 61t49.5 87t16 101q0 60 -21 119t-61 106t-98 76.5t-133 29.5q-70 0 -121.5 -22.5
t-85.5 -59.5t-50.5 -85.5t-16.5 -99.5q0 -60 21 -120t61 -108t98.5 -78t133.5 -30z" />
    <glyph glyph-name="afii10049" unicode="&#x42f;" horiz-adv-x="607" 
d="M427 343v254q0 20 -10 33.5t-25.5 21.5t-33.5 11.5t-34 3.5q-37 0 -70 -11.5t-57.5 -34t-39 -56t-14.5 -76.5q0 -35 13 -62t35.5 -46t52.5 -28.5t65 -9.5h118zM489 86q0 -23 9 -36t23 -19.5t31 -8.5t34 -2v-20h-257v20q17 0 34.5 2t31.5 8.5t23 19.5t9 36v181
q0 13 -6.5 21.5t-16.5 14t-21.5 7.5t-21.5 2q-44 0 -69.5 -10t-40 -30t-21 -49t-10.5 -68q-3 -29 -9 -56.5t-19 -49t-36 -36t-61 -17.5q-4 0 0 -0.5t-1 -0.5q-45 0 -63.5 27.5t-22.5 72.5l20 3q5 -25 17.5 -41t37.5 -16q7 0 5 0.5t3 2.5q25 7 36.5 30t18 52.5t12 62.5
t18.5 61t37.5 48t68.5 23q-48 2 -86.5 19t-66 44t-42 60.5t-14.5 69.5q0 46 22.5 80.5t57.5 57t77.5 33.5t83.5 11q22 0 57.5 -4.5t72.5 -4.5h142v-20q-17 0 -34 -2t-31 -8.5t-23 -20t-9 -35.5v-515z" />
    <glyph glyph-name="afii10065" unicode="&#x430;" horiz-adv-x="452" 
d="M300 260q0 55 -31 86t-88 31q-27 0 -48 -7.5t-36 -20t-22.5 -28.5t-7.5 -32q0 -29 25 -53t80 -24q32 14 68 27t60 21zM300 239q-26 -9 -59 -21t-62.5 -29t-50 -39t-20.5 -50q0 -38 24 -59t61 -21q20 0 39.5 6.5t34.5 19t24 30t9 38.5v125zM195 409q34 0 63 -10
t50.5 -29.5t34 -47t12.5 -62.5v-191q0 -22 16 -38t39 -16h6t7 1l5 -13q-20 -15 -47 -15q-29 0 -51.5 18.5t-28.5 46.5q-11 -16 -27.5 -28.5t-35 -21t-37.5 -13t-37 -4.5q-21 0 -41.5 6t-37 17.5t-26.5 29t-10 40.5q0 40 28 69t68 51q-57 9 -83 38t-26 61q0 21 10.5 40.5
t31 35.5t50 25.5t67.5 9.5z" />
    <glyph glyph-name="afii10066" unicode="&#x431;" horiz-adv-x="509" 
d="M439 845q-4 -62 -25.5 -106t-52.5 -76t-66.5 -54t-66.5 -41q-33 -20 -63 -40t-53 -50t-37 -75t-14 -114q30 56 86 90.5t122 34.5q42 0 79 -15t65 -41t44 -62.5t16 -78.5q0 -47 -19 -88.5t-51.5 -72t-74.5 -48.5t-88 -18q-50 0 -92 20t-70 55q-21 26 -31.5 62.5
t-13.5 76.5t-1 78.5t5 67.5q11 97 48.5 162t107.5 115q33 24 70.5 44t70 43.5t54.5 54.5t25 76h26zM255 386q-38 0 -66 -17t-46.5 -44t-28 -60.5t-9.5 -66.5q0 -35 10 -67t29.5 -57t48.5 -39.5t67 -14.5q37 0 64 17t45 44t27 60t9 65q0 34 -9 66.5t-28 57.5t-47 40.5
t-66 15.5z" />
    <glyph glyph-name="afii10067" unicode="&#x432;" horiz-adv-x="459" 
d="M434 125q0 -35 -14.5 -59t-38 -38.5t-52 -21t-56.5 -6.5h-245v20q14 0 28.5 1.5t26 7t19 16.5t7.5 29v261q0 18 -7.5 29t-19 16.5t-26 7t-28.5 1.5v20h231q22 0 49 -2t50 -10.5t38.5 -27t15.5 -51.5q0 -37 -29 -61.5t-71 -32.5q19 -1 40.5 -7.5t39.5 -19.5t30 -31t12 -41
zM348 322q0 20 -8 32.5t-21.5 19t-30.5 9t-35 3.5h-23t-26 -1t-24 -2t-17 -2v-149h91q19 0 36.5 4t30 14t20 27.5t7.5 44.5zM366 114q-1 34 -11.5 54t-27.5 29.5t-38.5 11.5t-42.5 2h-82v-181q3 -1 12.5 -2t21.5 -1.5t24.5 -1t20.5 -0.5q19 0 41 4t40.5 14t30.5 27.5
t11 43.5z" />
    <glyph glyph-name="afii10068" unicode="&#x433;" horiz-adv-x="435" 
d="M164 74q0 -19 7.5 -29.5t19 -16t25.5 -7t28 -1.5v-20h-216v20q14 0 28.5 1.5t26 7t19 16.5t7.5 29v261q0 18 -7.5 29t-19 16.5t-26 7t-28.5 1.5v20h365l28 -99l-21 -6q-5 15 -14.5 30.5t-23 27.5t-30 19.5t-36.5 7.5h-133z" />
    <glyph glyph-name="afii10069" unicode="&#x434;" horiz-adv-x="523" 
d="M106 0q-23 0 -37.5 -8t-23.5 -21t-14.5 -29.5t-11.5 -32.5q-8 -22 -14.5 -19t-7.5 17l16 110q1 6 8 10t17 -4l7 -2h18l159 301l-8 16q-16 17 -32 26.5t-35 16.5l96 36l218 -395h28l7 6q11 8 17 4t5 -10l-17 -129q-1 -4 -4.5 -6.5t-7 -1.5t-6 5.5t-2.5 15.5q0 19 -1.5 36
t-8.5 30t-20.5 20.5t-38.5 7.5h-306zM90 21l300 1l-155 277z" />
    <glyph glyph-name="afii10070" unicode="&#x435;" horiz-adv-x="446" 
d="M235 379q-26 0 -51 -6.5t-45.5 -22.5t-33.5 -42.5t-15 -65.5h279q0 61 -33.5 99t-100.5 38zM90 222q1 -38 14.5 -71.5t37 -59t55 -40t69.5 -14.5q35 0 67.5 13t58.5 35l14 -14q-70 -76 -171 -76q-44 0 -80.5 14t-62.5 39.5t-41 61.5t-15 80q0 53 19 94t49.5 69t68.5 42.5
t77 14.5q33 0 64 -7.5t55 -25.5t38.5 -47t14.5 -72l-40 -36h-292z" />
    <glyph glyph-name="afii10072" unicode="&#x436;" horiz-adv-x="740" 
d="M267 0v20q13 0 27.5 1.5t26 7t19 16t7.5 29.5v122q-17 3 -29.5 4t-22.5 0t-18 -3t-17 -6q-28 -12 -42 -37t-25 -62q-5 -18 -12 -35.5t-18 -30.5t-28.5 -21t-42.5 -8q-32 0 -54 21.5t-24 47.5l14 1q4 -14 16.5 -28t29.5 -14q13 0 22.5 7.5t16.5 20.5t12 29t11 34
q11 34 36.5 63.5t64.5 33.5q-26 17 -39 40.5t-21.5 45.5t-18 37.5t-28.5 16.5q-14 1 -25.5 -8.5t-8.5 -28.5q-17 9 -24 25.5t-5 33t14.5 28.5t36.5 12q32 -1 48.5 -27t28.5 -59q11 -32 24.5 -60t46.5 -41q26 -11 45.5 -11h35.5v118q0 19 -7.5 29.5t-19 16t-26 7t-27.5 1.5
v20h216v-20q-14 0 -28 -1.5t-25.5 -7t-19 -16t-7.5 -29.5v-118q16 0 35 -0.5t45 10.5q33 13 46.5 41t24.5 60q12 33 28.5 59t48.5 27q24 0 36.5 -12t14.5 -28.5t-5.5 -33t-23.5 -25.5q3 19 -8.5 28.5t-25.5 8.5q-20 -1 -29 -16.5t-17.5 -37.5t-21.5 -45.5t-39 -40.5
q39 -4 64.5 -33.5t36.5 -63.5q6 -18 11 -34t12 -29t16 -20.5t23 -7.5q17 0 29.5 14t16.5 28l14 -1q-2 -26 -24 -47.5t-54 -21.5q-26 0 -43 8t-28 21t-18 30.5t-12 35.5q-11 37 -25 62t-42 37q-9 4 -17 6.5t-17.5 3t-22 0t-29.5 -3.5v-122q0 -19 7.5 -29.5t19 -16t25.5 -7
t28 -1.5v-20h-216z" />
    <glyph glyph-name="afii10073" unicode="&#x437;" horiz-adv-x="395" 
d="M279 338q-3 27 -16.5 37t-34.5 9q-20 0 -39 -6t-37 -13t-36.5 -13t-37.5 -6q-26 0 -45.5 14.5t-25.5 40.5l14 9q7 -6 20.5 -9.5t22.5 -3.5q27 0 48 3.5t41 7t41 5t48 -2.5q47 -5 73.5 -24.5t30.5 -60.5q3 -33 -17 -61.5t-76 -38.5q57 -4 88 -30.5t31 -68.5
q-1 -35 -21 -59.5t-51.5 -40t-71 -22.5t-78.5 -7q-21 0 -37 2t-30.5 6.5t-28.5 11.5t-31 16v65q21 -17 48.5 -32.5t57 -25t58.5 -12t52.5 5.5t38.5 28.5t17 56.5q0 43 -26 68q-14 13 -34 18t-41 6t-41.5 -1.5t-36.5 -4.5q-8 -1 -15 5t-7 8t0.5 6t3 7t6.5 5.5t12 1.5
q40 -5 76.5 -5t63.5 23q13 11 19 32.5t4 49.5z" />
    <glyph glyph-name="afii10074" unicode="&#x438;" 
d="M467 74q0 -19 7.5 -29.5t19 -16t25.5 -7t28 -1.5v-20h-216v20q14 0 28.5 1.5t26 7t19 16.5t7.5 29v225l-248 -231q1 -17 9 -26.5t19 -14t25 -6t27 -1.5v-20h-216v20q14 0 28.5 1.5t26 7t19 16.5t7.5 29v261q0 18 -7.5 29t-19 16.5t-26 7t-28.5 1.5v20h216v-20
q-14 0 -28 -1.5t-25.5 -7t-19 -16t-7.5 -29.5v-227l248 227q0 18 -7.5 29t-19.5 16.5t-26 7t-28 1.5v20h216v-20q-14 0 -28 -1.5t-25.5 -7t-19 -16t-7.5 -29.5v-261z" />
    <glyph glyph-name="afii10075" unicode="&#x439;" 
d="M467 335q0 19 7.5 29.5t19 16t25.5 7t28 1.5v20h-216v-20q14 0 28 -1.5t26 -7t19.5 -16.5t7.5 -29l-248 -227v227q0 19 7.5 29.5t19 16t25.5 7t28 1.5v20h-216v-20q14 0 28.5 -1.5t26 -7t19 -16.5t7.5 -29v-261q0 -18 -7.5 -29t-19 -16.5t-26 -7t-28.5 -1.5v-20h216v20
q-13 0 -27 1.5t-25 6t-19 14t-9 26.5l248 231v-225q0 -18 -7.5 -29t-19 -16.5t-26 -7t-28.5 -1.5v-20h216v20q-14 0 -28 1.5t-25.5 7t-19 16t-7.5 29.5v261zM164 530q0 13 10.5 21.5t30.5 8.5q11 0 15.5 -6t9.5 -20q3 -9 6.5 -18t10 -16t16.5 -11t27 -4q31 0 42 13.5
t17 33.5q5 15 10 21.5t16 6.5q19 0 30 -8.5t11 -21.5q0 -29 -38 -47q-39 -17 -88 -17q-48 0 -88 17q-38 18 -38 47z" />
    <glyph glyph-name="afii10076" unicode="&#x43a;" horiz-adv-x="516" 
d="M159 217q8 0 19 -0.5t24 0.5t27 3.5t27 7.5q33 13 46.5 41t24.5 60q12 33 28.5 59t48.5 27q24 0 36.5 -12t14.5 -28.5t-5.5 -33t-23.5 -25.5q3 19 -8.5 28.5t-25.5 8.5q-20 -1 -29 -16.5t-17.5 -37.5t-21.5 -45.5t-39 -40.5q39 -4 64.5 -33.5t36.5 -63.5q6 -18 11 -34
t12 -29t16 -20.5t23 -7.5q17 0 29.5 14t16.5 28l14 -1q-2 -26 -24 -47.5t-54 -21.5q-26 0 -43 8t-28 21t-18 30.5t-12 35.5q-11 37 -25 62t-42 37q-36 15 -103 5v-122q0 -19 7.5 -29.5t19 -16t25.5 -7t28 -1.5v-20h-216v20q14 0 28.5 1.5t26 7t19 16.5t7.5 29v261
q0 18 -7.5 29t-19 16.5t-26 7t-28.5 1.5v20h216v-20q-14 0 -28 -1.5t-25.5 -7t-19 -16t-7.5 -29.5v-118z" />
    <glyph glyph-name="afii10077" unicode="&#x43b;" horiz-adv-x="535" 
d="M442 74q11 -19 20 -30t18.5 -16.5t19.5 -7t24 -1.5v-19h-205v18q14 0 28 2t23 8t11 17t-7 28l-127 226q-34 -80 -59 -133.5t-43.5 -87t-31.5 -50t-23.5 -23t-20 -6.5h-19.5q-21 2 -31.5 18t-10.5 34.5t11 33.5t32 16q-3 -20 1 -31.5t12.5 -16t19 -1t20.5 14.5
q4 6 12.5 18t23.5 39.5t37.5 75.5t55.5 125l-7 13q-16 17 -32 26.5t-35 16.5l96 36z" />
    <glyph glyph-name="afii10078" unicode="&#x43c;" horiz-adv-x="638" 
d="M593 418q4 -22 -3 -29.5t-17.5 -10.5t-20.5 -5.5t-11 -13.5v-285q0 -19 7.5 -29.5t19 -16t25.5 -7t28 -1.5v-20h-216v20q14 0 28.5 1.5t26 7t19 16.5t7.5 29l1 223l-199 -289l-160 252q-5 9 -9.5 16.5t-9.5 15.5v-230q0 -13 6.5 -20.5t17 -11.5t22.5 -5t23 -1v-24h-157
v24q11 0 21.5 1t19 5t14 11.5t5.5 20.5v263q-19 17 -37 24t-37 11l90 64l218 -333q50 75 87 128.5t62.5 90t42 58t27 33.5t15.5 16t8 5q11 4 22.5 4.5t13.5 -8.5z" />
    <glyph glyph-name="afii10079" unicode="&#x43d;" 
d="M467 74q0 -19 7.5 -29.5t19 -16t25.5 -7t28 -1.5v-20h-216v20q14 0 28.5 1.5t26 7t19 16.5t7.5 29v143h-248v-143q0 -19 7.5 -29.5t19 -16t25.5 -7t28 -1.5v-20h-216v20q14 0 28.5 1.5t26 7t19 16.5t7.5 29v261q0 18 -7.5 29t-19 16.5t-26 7t-28.5 1.5v20h216v-20
q-14 0 -28 -1.5t-25.5 -7t-19 -16t-7.5 -29.5v-94h248v94q0 18 -7.5 29t-19 16.5t-26 7t-28.5 1.5v20h216v-20q-14 0 -28 -1.5t-25.5 -7t-19 -16t-7.5 -29.5v-261z" />
    <glyph glyph-name="afii10080" unicode="&#x43e;" horiz-adv-x="484" 
d="M241 386q-38 0 -66 -17t-46.5 -44t-28 -60.5t-9.5 -66.5q0 -35 10 -67t29.5 -57t48.5 -39.5t67 -14.5q37 0 64 17t45 44t27 60t9 65q0 34 -9 66.5t-28 57.5t-47 40.5t-66 15.5zM255 414q42 0 79 -15t65 -41t44 -62.5t16 -78.5q0 -47 -19 -88.5t-51.5 -72t-74.5 -48.5
t-88 -18q-42 0 -79 15t-65 41.5t-44 62.5t-16 79q0 47 19 88t51.5 72t74.5 48.5t88 17.5z" />
    <glyph glyph-name="afii10081" unicode="&#x43f;" 
d="M467 74q0 -19 7.5 -29.5t19 -16t25.5 -7t28 -1.5v-20h-216v20q14 0 28.5 1.5t26 7t19 16.5t7.5 29v310h-249l1 -310q0 -19 7.5 -29.5t19 -16t25.5 -7t28 -1.5v-20h-216v20q14 0 28.5 1.5t26 7t19 16.5t7.5 29v261q0 18 -6.5 29t-17.5 16.5t-24.5 7t-27.5 1.5v20h508v-20
q-14 0 -27 -1.5t-23.5 -7t-17 -16t-6.5 -29.5v-261z" />
    <glyph glyph-name="afii10082" unicode="&#x440;" horiz-adv-x="533" 
d="M156 63q20 -21 49.5 -31t62.5 -10t65.5 10.5t58.5 31.5t42.5 53t16.5 76q0 43 -14 74.5t-36.5 52.5t-52 31.5t-59.5 10.5q-38 0 -73 -14t-60 -43v-242zM81 -241l-11 15q14 15 22.5 28.5t8.5 36.5v468q0 18 -8 29t-20.5 16t-27.5 6.5t-29 1.5v21q38 2 72.5 10t67.5 27v-77
q31 32 72 47t83 15q37 0 73 -12t63.5 -37t44.5 -62t17 -86q0 -51 -19.5 -90.5t-51.5 -66.5t-73 -40.5t-84 -13.5q-66 0 -125 35v-241z" />
    <glyph glyph-name="afii10083" unicode="&#x441;" horiz-adv-x="457" 
d="M251 412q18 0 29.5 -2t22.5 -5t24 -5t34 -2q9 0 22.5 3.5t20.5 9.5l14 -9q-6 -26 -27 -40.5t-47 -14.5q-15 0 -28.5 5t-27 11t-27 11t-28.5 5q-23 0 -47 -8t-43.5 -27.5t-32 -51t-12.5 -79.5q0 -41 14.5 -74t40 -56t60 -36t73.5 -13q37 0 71 13t63 36l13 -15
q-73 -76 -181 -76q-44 0 -83 14.5t-68.5 40.5t-47 63.5t-17.5 83.5q0 49 17 89.5t46 69t68.5 44t83.5 15.5z" />
    <glyph glyph-name="afii10084" unicode="&#x442;" horiz-adv-x="455" 
d="M39 410l387 -1l28 -99l-21 -6q-5 15 -14.5 30.5t-23 27.5t-30 19.5t-36.5 7.5h-68v-315q0 -19 7.5 -29.5t19 -16t25.5 -7t28 -1.5v-20h-216v20q14 0 28.5 1.5t26 7t19 16.5t7.5 29v316h-70q-20 0 -36.5 -7.5t-30 -19.5t-23 -27.5t-14.5 -30.5l-21 6z" />
    <glyph glyph-name="afii10085" unicode="&#x443;" horiz-adv-x="528" 
d="M309 -36q-5 19 -16 53.5t-26 75.5t-33.5 85.5t-38.5 83.5q-25 47 -50 78t-47 31q-20 0 -33 -14t-23 -29l-18 7q8 35 34 55.5t62 20.5q22 0 42 -12.5t39 -36t37.5 -57t37.5 -75.5q25 -56 45 -114t31 -96q21 36 37.5 75t28 76.5t17.5 71t6 58.5q0 49 -12 69t-35 20
q-18 0 -40 -13l-13 13q14 21 34 31.5t41 10.5q34 0 61 -28t27 -84q0 -33 -12 -76.5t-33.5 -92t-51 -99.5t-64.5 -99q-28 -38 -59 -71t-63 -57.5t-65 -38.5t-65 -14q-21 0 -41.5 12t-20.5 36q0 20 14.5 33t34.5 13q16 0 29.5 -9.5t17.5 -25.5q50 4 97 41t87 92z" />
    <glyph glyph-name="afii10086" unicode="&#x444;" horiz-adv-x="738" 
d="M259 -193q14 0 28.5 1.5t26 7t19 16.5t7.5 29v198q-28 -32 -65.5 -46t-74.5 -14q-34 0 -67 12.5t-58.5 37.5t-41 62.5t-15.5 87.5q0 52 18 92.5t47.5 68t66.5 42t76 14.5q29 0 58.5 -8.5t55.5 -25.5l1 231q0 18 -8 29t-20.5 16t-27.5 6.5t-29 1.5v20q38 2 72.5 10.5
t67.5 26.5l-1 -373q28 33 67 48t77 15q34 0 67 -12.5t59 -37.5t42 -62.5t16 -87.5q0 -52 -18.5 -92.5t-48 -68t-67 -42t-76.5 -14.5q-30 0 -60.5 9t-57.5 27v-171q0 -19 7.5 -29.5t19 -16t25.5 -7t28 -1.5v-20h-216v20zM395 65q19 -21 47.5 -31.5t58.5 -10.5t59.5 11t53 33
t38 55.5t14.5 77.5q0 43 -12.5 75.5t-33 53.5t-47 31.5t-54.5 10.5q-34 0 -67.5 -14t-56.5 -43v-249zM238 389q-30 0 -59.5 -11t-53 -33t-38 -55.5t-14.5 -77.5t12.5 -76t33 -53t47 -31.5t54.5 -10.5q33 0 65 13t55 41v254q-19 20 -46 30t-56 10z" />
    <glyph glyph-name="afii10087" unicode="&#x445;" horiz-adv-x="505" 
d="M486 39l-92 -62l-148 199l-116 -140q-14 -16 -31 -32t-40 -16q-14 0 -24.5 9t-10.5 23t9.5 23t22.5 9q20 0 29 -17l140 169l-107 144q-10 13 -18.5 18t-21.5 5q-20 0 -41 -12l-12 15q12 17 31 27t40 10q52 0 84 -44l85 -115l91 110q14 16 30.5 32.5t39.5 16.5
q14 0 25 -9.5t11 -23.5t-9.5 -23t-23.5 -9q-20 0 -28 17l-115 -139l127 -168q7 -12 26 -12q18 0 36 12z" />
    <glyph glyph-name="afii10088" unicode="&#x446;" horiz-adv-x="583" 
d="M33 0v20q14 0 27.5 1.5t24.5 7t17.5 16.5t6.5 29v260q0 18 -7.5 29t-19 16.5t-26 7t-28.5 1.5v20h216v-20q-14 0 -28 -1.5t-25.5 -7t-19 -16t-7.5 -29.5l-1 -314h249v314q0 18 -7.5 29t-19 16.5t-26 7t-28.5 1.5v20h216v-20q-14 0 -28 -1.5t-25.5 -7t-19 -16t-7.5 -29.5
v-312h59l7 6q11 8 17 4t5 -10l-17 -121q-1 -4 -4.5 -7.5t-7 -4.5t-6 2.5t-2.5 14.5q0 19 -1.5 36t-8.5 30t-20.5 20.5t-38.5 7.5h-416z" />
    <glyph glyph-name="afii10089" unicode="&#x447;" horiz-adv-x="552" 
d="M392 335q0 18 -7.5 29t-19 16.5t-26 7t-28.5 1.5v20h216v-20q-14 0 -28 -1.5t-25.5 -7t-19 -16t-7.5 -29.5v-261q0 -19 7.5 -29.5t19 -16t25.5 -7t28 -1.5v-20h-216v20q14 0 28.5 1.5t26 7t19 16.5t7.5 29l-1 163q-29 -39 -73 -64t-92 -25q-60 0 -95 36t-35 96v55
q0 18 -7.5 29t-19 16.5t-26 7t-28.5 1.5v20h216v-20q-14 0 -27.5 -1.5t-25 -7t-18.5 -16t-7 -29.5v-49q0 -46 21 -73.5t69 -27.5q45 0 85 25.5t63 64.5z" />
    <glyph glyph-name="afii10090" unicode="&#x448;" horiz-adv-x="847" 
d="M26 0v20q14 0 27.5 1.5t24.5 7t17.5 16.5t6.5 29v260q0 18 -7.5 29t-19 16.5t-26 7t-28.5 1.5v20h216v-20q-14 0 -28 -1.5t-26 -7t-19.5 -16t-7.5 -29.5v-314h233v314q0 18 -7.5 29t-19 16.5t-26 7t-28.5 1.5v20h216v-20q-14 0 -28 -1.5t-25.5 -7t-19 -16t-7.5 -29.5
l-1 -314h233v314q0 18 -7.5 29t-19 16.5t-26 7t-28.5 1.5v20h216v-20q-14 0 -28 -1.5t-25.5 -7t-19 -16t-7.5 -29.5v-260q0 -18 6.5 -29t17.5 -16.5t24.5 -7t27.5 -1.5v-20h-781z" />
    <glyph glyph-name="afii10091" unicode="&#x449;" horiz-adv-x="847" 
d="M26 0v20q14 0 27.5 1.5t24.5 7t17.5 16.5t6.5 29v260q0 18 -7.5 29t-19 16.5t-26 7t-28.5 1.5v20h216v-20q-14 0 -28 -1.5t-26 -7t-19.5 -16t-7.5 -29.5v-314h233v314q0 18 -7.5 29t-19 16.5t-26 7t-28.5 1.5v20h216v-20q-14 0 -28 -1.5t-25.5 -7t-19 -16t-7.5 -29.5
l-1 -314h233v314q0 18 -7.5 29t-19 16.5t-26 7t-28.5 1.5v20h216v-20q-14 0 -28 -1.5t-25.5 -7t-19 -16t-7.5 -29.5v-312h59l7 6q11 8 17 4t5 -10l-17 -121q-1 -4 -4.5 -7.5t-7 -4.5t-6 2.5t-2.5 14.5q0 19 -1.5 36t-8.5 30t-20.5 20.5t-38.5 7.5h-687z" />
    <glyph glyph-name="afii10092" unicode="&#x44a;" horiz-adv-x="555" 
d="M311 409v-20q-14 0 -28 -1.5t-25.5 -7t-19 -16t-7.5 -29.5v-261q0 -19 7.5 -30t18.5 -17t25 -8t27 -2q33 0 62 7.5t50.5 23.5t34 41.5t12.5 60.5q0 36 -16 61.5t-42.5 38.5t-60.5 12.5t-69 -16.5l-9 16q45 24 91.5 25t84 -16t61.5 -50.5t24 -78.5q0 -40 -20 -68
t-51.5 -45t-71 -24t-79.5 -5h-215v20q14 0 28.5 1.5t26.5 7t19 16.5t7 29l-1 316h-42q-20 0 -36.5 -7.5t-30 -19.5t-23 -27.5t-14.5 -30.5l-21 6l28 99z" />
    <glyph glyph-name="afii10093" unicode="&#x44b;" horiz-adv-x="750" 
d="M204 262q45 24 91.5 25t84 -16t61.5 -50.5t24 -78.5q0 -40 -20 -68t-51.5 -45t-71 -24t-79.5 -5h-215v20q14 0 28.5 1.5t26 7t19 16.5t7.5 29v261q0 18 -7.5 29t-19 16.5t-26 7t-28.5 1.5v20h216v-20q-14 0 -28 -1.5t-25.5 -7t-19 -16t-7.5 -29.5v-261q0 -19 7.5 -30
t18.5 -17t25 -8t27 -2q33 0 62 7.5t50.5 23.5t34 41.5t12.5 60.5q0 36 -16 61.5t-42.5 38.5t-60.5 12.5t-69 -16.5zM645 335q0 19 7.5 29.5t19 16t25.5 7t28 1.5v20h-216v-20q14 0 28.5 -1.5t26 -7t19 -16.5t7.5 -29v-261q0 -18 -7.5 -29t-19 -16.5t-26 -7t-28.5 -1.5v-20
h216v20q-14 0 -28 1.5t-25.5 7t-19 16t-7.5 29.5v261z" />
    <glyph glyph-name="afii10094" unicode="&#x44c;" horiz-adv-x="488" 
d="M204 262q45 24 91.5 25t84 -16t61.5 -50.5t24 -78.5q0 -40 -20 -68t-51.5 -45t-71 -24t-79.5 -5h-215v20q14 0 28.5 1.5t26 7t19 16.5t7.5 29v261q0 18 -7.5 29t-19 16.5t-26 7t-28.5 1.5v20h216v-20q-14 0 -28 -1.5t-25.5 -7t-19 -16t-7.5 -29.5v-261q0 -19 7.5 -30
t18.5 -17t25 -8t27 -2q33 0 62 7.5t50.5 23.5t34 41.5t12.5 60.5q0 36 -16 61.5t-42.5 38.5t-60.5 12.5t-69 -16.5z" />
    <glyph glyph-name="afii10095" unicode="&#x44d;" horiz-adv-x="416" 
d="M141 357q-16 -7 -28.5 -12t-30.5 -5q-26 0 -45.5 17.5t-25.5 43.5l14 9q7 -6 20.5 -9.5t22.5 -3.5q23 0 37.5 3t31.5 6q44 8 89.5 4.5t86.5 -32.5q35 -25 58 -65.5t25 -92.5q3 -51 -12 -91.5t-43 -69t-67.5 -44.5t-87.5 -19q-39 -2 -84.5 5.5t-81.5 24.5l-3 68l21 1
q9 -21 25 -35.5t36 -24t41 -13.5t41 -3q39 2 68 18t47.5 41t27 58t7.5 70h-157q-22 0 -38.5 -7t-16.5 -30h-16v94h16q0 -24 16.5 -29t38.5 -5h156q-4 31 -14 59t-25 48q-17 22 -34 31.5t-35.5 10.5t-38.5 -5.5t-42 -15.5z" />
    <glyph glyph-name="afii10096" unicode="&#x44e;" horiz-adv-x="725" 
d="M491 414q42 0 79 -15t65 -41t44 -62.5t16 -78.5q0 -47 -19 -88.5t-51.5 -72t-74.5 -48.5t-88 -18q-42 0 -79 15t-65 41.5t-44 62.5t-16 79q0 14 1 28l-95 1v-143q0 -19 7.5 -29.5t19 -16t25.5 -7t28 -1.5v-20h-216v20q14 0 28.5 1.5t26 7t19 16.5t7.5 29v261
q0 18 -7.5 29t-19 16.5t-26 7t-28.5 1.5v20h216v-20q-14 0 -28 -1.5t-25.5 -7t-19 -16t-7.5 -29.5v-94l100 -1q5 19 13 36q19 41 51.5 72t74.5 48.5t88 17.5zM477 386q-38 0 -66 -17t-46.5 -44t-28 -60.5t-9.5 -66.5q0 -35 10 -67t29.5 -57t48.5 -39.5t67 -14.5q37 0 64 17
t45 44t27 60t9 65q0 34 -9 66.5t-28 57.5t-47 40.5t-66 15.5z" />
    <glyph glyph-name="afii10097" unicode="&#x44f;" horiz-adv-x="502" 
d="M335 384q-23 2 -50.5 2h-51.5q-18 -1 -35 -4t-30.5 -10.5t-21.5 -20t-8 -32.5q0 -30 7.5 -48t20 -28t29.5 -13.5t37 -3.5h103v158zM209 207q-31 0 -56 8.5t-42.5 22.5t-27 32t-9.5 37q0 33 15.5 53t38.5 31t49.5 14.5t49.5 3.5h243v-20q-14 0 -28.5 -1.5t-26 -7
t-19 -16.5t-7.5 -29v-261q0 -18 7.5 -29t19 -16.5t26 -7t28.5 -1.5v-20h-217v20q14 0 28.5 1.5t26 6.5t19 16t7.5 29v132q-32 1 -60 -1t-49.5 -13.5t-36 -33.5t-20.5 -61q-5 -19 -11 -37t-16 -31.5t-25 -22t-38 -8.5q-29 0 -48 22.5t-21 49.5l12 1q4 -15 15 -29.5t26 -14.5
q12 0 20.5 8t14.5 21.5t10.5 30.5t9.5 36q11 35 34 58t58 27z" />
    <glyph glyph-name="afii10071" unicode="&#x451;" horiz-adv-x="437" 
d="M226 379q-26 0 -51 -9.5t-45.5 -29t-33.5 -49t-15 -68.5h279q0 30 -8.5 58.5t-25 50t-42 34.5t-58.5 13zM81 203q1 -38 14.5 -68.5t37 -52.5t55 -33.5t69.5 -11.5q35 0 67.5 13t58.5 35l14 -14q-70 -76 -171 -76q-44 0 -80.5 14t-62.5 39.5t-41 61.5t-15 80q0 53 19 94
t49.5 69t68.5 42.5t77 14.5q33 0 64 -10.5t55 -32t38.5 -53.5t14.5 -75l-40 -36h-292zM167 527q17 0 28.5 -11.5t11.5 -28.5t-11.5 -28t-28.5 -11q-16 0 -27.5 11t-11.5 28t11.5 28.5t27.5 11.5zM294 527q17 0 28 -11.5t11 -28.5t-11 -28t-28 -11t-28 11t-11 28t11 28.5
t28 11.5z" />
    <glyph glyph-name="afii10101" unicode="&#x454;" horiz-adv-x="424" 
d="M273 357q-23 9 -42.5 15.5t-38 5.5t-35.5 -10.5t-34 -31.5q-16 -20 -25.5 -48t-13.5 -59h156q22 0 38.5 5t16.5 29h16v-94h-16q0 23 -16.5 30t-38.5 7h-158q-1 -37 8 -70t27.5 -58t47.5 -41t68 -18q19 -1 40.5 3t41.5 13.5t36 24t25 35.5l21 -1l-3 -68
q-36 -17 -81.5 -24.5t-84.5 -5.5q-48 3 -87.5 18.5t-68 43t-43.5 67.5t-12 91q2 52 25.5 94.5t58.5 67.5q41 29 86.5 32.5t89.5 -4.5q17 -3 31.5 -6t37.5 -3q9 0 22.5 3.5t20.5 9.5l14 -9q-6 -26 -25.5 -43.5t-45.5 -17.5q-18 0 -30.5 5t-28.5 12z" />
    <glyph glyph-name="afii10103" unicode="&#x456;" horiz-adv-x="282" 
d="M165 335q0 19 7.5 29.5t19 16t25.5 7t28 1.5v20h-216v-20q14 0 28.5 -1.5t26 -7t19 -16.5t7.5 -29v-261q0 -18 -7.5 -29t-19 -16.5t-26 -7t-28.5 -1.5v-20h216v20q-14 0 -28 1.5t-25.5 7t-19 16t-7.5 29.5v261zM134 559q19 0 30 -15.5t11 -32.5q0 -18 -11 -33t-30 -15
t-30 15t-11 33q0 17 11 32.5t30 15.5z" />
    <glyph glyph-name="afii10104" unicode="&#x457;" horiz-adv-x="282" 
d="M165 335q0 19 7.5 29.5t19 16t25.5 7t28 1.5v20h-216v-20q14 0 28.5 -1.5t26 -7t19 -16.5t7.5 -29v-261q0 -18 -7.5 -29t-19 -16.5t-26 -7t-28.5 -1.5v-20h216v20q-14 0 -28 1.5t-25.5 7t-19 16t-7.5 29.5v261zM81 541q17 0 28.5 -11.5t11.5 -28.5t-11.5 -28t-28.5 -11
q-16 0 -27.5 11t-11.5 28t11.5 28.5t27.5 11.5zM188 541q17 0 28 -11.5t11 -28.5t-11 -28t-28 -11t-28 11t-11 28t11 28.5t28 11.5z" />
    <glyph glyph-name="afii10110" unicode="&#x45e;" horiz-adv-x="528" 
d="M309 -36q-5 19 -16 53.5t-26 75.5t-33.5 85.5t-38.5 83.5q-25 47 -50 78t-47 31q-20 0 -33 -14t-23 -29l-18 7q8 35 34 55.5t62 20.5q22 0 42 -12.5t39 -36t37.5 -57t37.5 -75.5q25 -56 45 -114t31 -96q21 36 37.5 75t28 76.5t17.5 71t6 58.5q0 49 -12 69t-35 20
q-18 0 -40 -13l-13 13q14 21 34 31.5t41 10.5q34 0 61 -28t27 -84q0 -33 -12 -76.5t-33.5 -92t-51 -99.5t-64.5 -99q-28 -38 -59 -71t-63 -57.5t-65 -38.5t-65 -14q-21 0 -41.5 12t-20.5 36q0 20 14.5 33t34.5 13q16 0 29.5 -9.5t17.5 -25.5q50 4 97 41t87 92zM172 530
q0 13 10.5 21.5t30.5 8.5q11 0 15.5 -6t9.5 -20q3 -9 6.5 -18t10 -16t16.5 -11t27 -4q31 0 42 13.5t17 33.5q5 15 10 21.5t16 6.5q19 0 30 -8.5t11 -21.5q0 -29 -38 -47q-39 -17 -88 -17q-48 0 -88 17q-38 18 -38 47z" />
    <glyph glyph-name="afii10146" unicode="&#x462;" horiz-adv-x="732" 
d="M154 565q-47 0 -69.5 -21.5t-42.5 -59.5q-2 -5 -7 -8.5t-10 -3.5q-11 0 -11 15q0 12 5.5 32t14 41t18.5 39t19 27q5 5 12 5q6 0 9 -3.5t7 -8.5q5 -7 15.5 -15.5t39.5 -8.5h91v6q0 22 -9 35.5t-23 20t-31 8.5t-34 2v20h257v-20q-17 0 -34.5 -2t-31.5 -8.5t-23 -20
t-9 -35.5v-6h125q30 0 43 9t20 17q5 5 8.5 7.5t8.5 2.5q9 0 11.5 -7t2.5 -14q0 -9 -4 -31.5t-10.5 -46.5t-16 -42t-21.5 -18q-6 0 -10 5t-4 11q0 10 4 18.5t4 19.5q0 23 -13.5 31t-33.5 8h-114v-514q25 -14 54 -20t58 -6q43 0 82 13t69 38t47.5 61t17.5 83q0 54 -23 93
t-60.5 59.5t-84.5 20.5t-95 -23l-11 16q61 36 121.5 36t109 -27t78.5 -77t30 -115q0 -47 -21.5 -85t-56 -65t-77.5 -42t-86 -15q-9 0 -27 0.5t-38 1.5t-38.5 1.5t-28.5 0.5h-179v20q16 0 33.5 2t31.5 8.5t23 19.5t9 36v479h-91z" />
    <glyph glyph-name="afii10194" unicode="&#x463;" horiz-adv-x="532" 
d="M223 723v-649q0 -19 7.5 -30t18.5 -17t25 -8t27 -2q33 0 62 7.5t50.5 23.5t34 41.5t12.5 60.5q0 36 -16 60t-42.5 34.5t-60.5 8.5t-69 -18l-9 16q45 24 91.5 27t84 -12.5t61.5 -47t24 -76.5q0 -40 -20 -68t-51.5 -45t-71 -24t-79.5 -5h-215v20q14 0 28.5 1.5t26 7
t19 16.5t7.5 29v539q0 18 -8 29t-20.5 16t-27.5 6.5t-29 1.5v20q38 2 72.5 10.5t67.5 26.5zM170 390h-41q-40 0 -63 -22t-34 -53l-21 6l21 89l331 -1l24 -89l-21 -6q-11 31 -35.5 52.5t-64.5 22.5z" />
    <glyph glyph-name="afii10147" unicode="&#x472;" horiz-adv-x="776" 
d="M368 -5q-68 0 -128 26t-105.5 70.5t-72 104t-26.5 126.5q0 77 29 146t79.5 120.5t118.5 81.5t145 30q67 0 127.5 -26t106 -70t72 -103.5t26.5 -126.5q0 -77 -29.5 -146t-80 -121t-118.5 -82t-144 -30zM408 46q71 0 122.5 23t85 61t49.5 87t16 101q0 21 -3 44
q-35 -43 -71.5 -58.5t-75.5 -13t-81.5 18t-88.5 34.5q-42 18 -79 26t-68 2.5t-57.5 -27t-47.5 -63.5q13 -47 39.5 -89.5t64.5 -75t87 -51.5t108 -19zM368 649q-70 0 -121.5 -22.5t-85.5 -59.5t-50.5 -85.5t-16.5 -99.5q0 -37 7 -69q22 42 55.5 66.5t72 33.5t79 4t77.5 -22
q31 -15 70 -33.5t78.5 -26.5t76 2t63.5 54q-11 50 -36.5 96.5t-64 82.5t-90 57.5t-114.5 21.5z" />
    <glyph glyph-name="afii10195" unicode="&#x473;" horiz-adv-x="484" 
d="M255 414q42 0 79 -15t65 -41t44 -62.5t16 -78.5q0 -47 -19 -88.5t-51.5 -72t-74.5 -48.5t-88 -18q-42 0 -79 15t-65 41.5t-44 62.5t-16 79q0 47 19 88t51.5 72t74.5 48.5t88 17.5zM241 386q-38 0 -66 -17t-46.5 -44t-28 -60.5t-9.5 -66.5v-10.5t1 -10.5q13 29 31.5 45.5
t39.5 22t42 1t40 -17.5q16 -11 34.5 -23t38 -15.5t38 5.5t33.5 39q-3 30 -14 57.5t-29.5 48.5t-44.5 33.5t-60 12.5zM246 20q36 0 63 16.5t45 42t27 57.5t10 64q-20 -26 -40.5 -37t-42 -11t-43.5 9.5t-45 24.5q-22 14 -39.5 21.5t-32 4.5t-27 -17t-25.5 -44q11 -55 49 -93
t101 -38z" />
    <glyph glyph-name="afii10050" unicode="&#x490;" horiz-adv-x="506" 
d="M245 657q-26 0 -44 -11.5t-18 -39.5v-520q0 -23 9 -36t23 -19.5t31.5 -8.5t34.5 -2v-20h-257v20q16 0 33.5 2t31.5 8.5t23 19.5t9 36v515q0 22 -9 35.5t-23 20t-31.5 8.5t-33.5 2v20l351 1h5q20 0 32 6.5t20 17t15 24.5t18 29q4 6 11.5 11t13.5 5q12 0 9 -18t-12 -42
t-21 -46.5t-18 -31.5q-5 -7 -12 -14t-16 -7q-5 0 -6.5 2.5t-3.5 7.5q-1 4 -2.5 8.5t-6 8.5t-13.5 6.5t-24 2.5z" />
    <glyph glyph-name="afii10098" unicode="&#x491;" horiz-adv-x="412" 
d="M163 389l1 -315q0 -19 7.5 -29.5t19 -16t25.5 -7t28 -1.5v-20h-216v20q14 0 28.5 1.5t26 7t19 16.5t7.5 29v261q0 18 -7.5 29t-19 16.5t-26 7t-28.5 1.5v20h268q20 0 36.5 7.5t30 19.5t23 27t14.5 30l21 -6l-28 -98h-230z" />
    <glyph glyph-name="endash" unicode="&#x2013;" horiz-adv-x="486" 
d="M76 218q-11 0 -20 -4t-16 -9l-16 9q5 27 30.5 41.5t51.5 14.5h304q11 0 19.5 4t15.5 10l17 -10q-5 -27 -28.5 -41.5t-53.5 -14.5h-304v0z" />
    <glyph glyph-name="emdash" unicode="&#x2014;" horiz-adv-x="886" 
d="M76 218q-11 0 -20 -4t-16 -9l-16 9q5 27 30.5 41.5t51.5 14.5h704q11 0 19.5 4t15.5 10l17 -10q-5 -27 -28.5 -41.5t-53.5 -14.5h-704v0z" />
    <glyph glyph-name="quoteleft" unicode="&#x2018;" horiz-adv-x="192" 
d="M168 727q-76 -31 -93 -113q4 1 12 1q24 0 41 -17t17 -41q0 -25 -17 -42t-41 -17q-16 0 -28 7t-19.5 18t-11.5 25.5t-4 28.5q0 31 10.5 58.5t29 49t43.5 37.5t54 24z" />
    <glyph glyph-name="quoteright" unicode="&#x2019;" horiz-adv-x="192" 
d="M24 517q76 31 93 113q-4 -1 -12 -1q-24 0 -41.5 17t-17.5 41q0 25 17.5 42t41.5 17q16 0 28 -7t19.5 -18.5t11.5 -25.5t4 -28q0 -31 -10.5 -58.5t-29.5 -49t-44 -37.5t-53 -24z" />
    <glyph glyph-name="quotesinglbase" unicode="&#x201a;" horiz-adv-x="192" 
d="M24 -114q76 31 93 113q-4 -1 -12 -1q-24 0 -41.5 17t-17.5 41t17.5 41.5t41.5 17.5q16 0 28 -7t19.5 -18.5t11.5 -25.5t4 -28q0 -31 -10.5 -58.5t-29.5 -49t-44 -37.5t-53 -24z" />
    <glyph glyph-name="quotedblleft" unicode="&#x201c;" horiz-adv-x="332" 
d="M168 727q-76 -31 -93 -113q4 1 12 1q24 0 41 -17t17 -41q0 -25 -17 -42t-41 -17q-16 0 -28 7t-19.5 18t-11.5 25.5t-4 28.5q0 31 10.5 58.5t29 49t43.5 37.5t54 24zM308 727q-76 -31 -93 -113q4 1 12 1q24 0 41 -17t17 -41q0 -25 -17 -42t-41 -17q-16 0 -28 7t-19.5 18
t-11.5 25.5t-4 28.5q0 31 10.5 58.5t29 49t43.5 37.5t54 24z" />
    <glyph glyph-name="quotedblright" unicode="&#x201d;" horiz-adv-x="332" 
d="M164 517q76 31 93 113q-4 -1 -12 -1q-24 0 -41.5 17t-17.5 41q0 25 17.5 42t41.5 17q16 0 28 -7t19.5 -18.5t11.5 -25.5t4 -28q0 -31 -10.5 -58.5t-29.5 -49t-44 -37.5t-53 -24zM24 517q76 31 93 113q-4 -1 -12 -1q-24 0 -41.5 17t-17.5 41q0 25 17.5 42t41.5 17
q16 0 28 -7t19.5 -18.5t11.5 -25.5t4 -28q0 -31 -10.5 -58.5t-29.5 -49t-44 -37.5t-53 -24z" />
    <glyph glyph-name="quotedblbase" unicode="&#x201e;" horiz-adv-x="332" 
d="M24 -114q76 31 93 113q-4 -1 -12 -1q-24 0 -41.5 17t-17.5 41t17.5 41.5t41.5 17.5q16 0 28 -7t19.5 -18.5t11.5 -25.5t4 -28q0 -31 -10.5 -58.5t-29.5 -49t-44 -37.5t-53 -24zM164 -114q76 31 93 113q-4 -1 -12 -1q-24 0 -41.5 17t-17.5 41t17.5 41.5t41.5 17.5
q16 0 28 -7t19.5 -18.5t11.5 -25.5t4 -28q0 -31 -10.5 -58.5t-29.5 -49t-44 -37.5t-53 -24z" />
    <glyph glyph-name="dagger" unicode="&#x2020;" horiz-adv-x="599" 
d="M387 -69q-51 -9 -87 -48q-36 39 -88 48q16 50 29 103.5t22 108.5t14.5 109t5.5 105q-48 -5 -91 -25t-76 -52q-14 31 -37.5 55t-54.5 38q31 14 54.5 38t37.5 55q33 -32 75.5 -51.5t91.5 -24.5q-4 54 -26 102t-58 86q33 15 59 40.5t42 59.5q15 -34 41 -59.5t59 -40.5
q-35 -38 -57 -86t-26 -102q48 5 90.5 24.5t75.5 51.5q14 -31 38 -55t54 -38q-30 -14 -54 -38t-38 -55q-33 32 -75.5 52t-91.5 25q0 -51 5.5 -105t14.5 -109t22 -108.5t29 -103.5z" />
    <glyph glyph-name="daggerdbl" unicode="&#x2021;" horiz-adv-x="555" 
d="M358 280q-15 -13 -26 -23.5t-18.5 -22.5t-12.5 -26t-8 -33q45 4 84 22t70 47q26 -58 84 -84q-58 -26 -84 -84q-31 29 -70 47t-84 22q4 -50 24 -93.5t53 -77.5q-64 -28 -92 -91q-29 63 -93 91q33 34 53 77.5t24 93.5q-45 -4 -84 -22t-69 -47q-13 28 -35 49.5t-50 34.5
q28 13 50 34.5t35 49.5q31 -29 70 -47t84 -22q-4 19 -9 33t-12.5 26t-18.5 23t-26 23q15 13 26 24t18.5 23t12.5 26t9 33q-45 -4 -84 -22t-70 -47q-13 28 -35 49.5t-50 34.5q28 13 50 34.5t35 49.5q30 -29 69 -47t84 -22q-4 50 -24 93.5t-53 77.5q64 28 93 91q28 -63 92 -91
q-33 -34 -53 -77.5t-24 -93.5q45 4 84 22t70 47q26 -58 84 -84q-58 -26 -84 -84q-31 29 -70 47t-84 22q6 -38 20.5 -59t44.5 -47z" />
    <glyph glyph-name="bullet" unicode="&#x2022;" horiz-adv-x="346" 
d="M173 492q31 0 58 -11.5t47 -31.5t32 -47t12 -58t-12 -58t-32 -47.5t-47 -32t-58 -11.5t-58 11.5t-47.5 32t-32 47.5t-11.5 58t11.5 58t32 47t47.5 31.5t58 11.5z" />
    <glyph glyph-name="ellipsis" unicode="&#x2026;" horiz-adv-x="495" 
d="M83 115q24 0 41 -17.5t17 -41.5t-17 -41t-41 -17q-25 0 -42 17t-17 41t17 41.5t42 17.5zM248 115q24 0 41 -17.5t17 -41.5t-17 -41t-41 -17q-25 0 -42 17t-17 41t17 41.5t42 17.5zM413 115q24 0 41 -17.5t17 -41.5t-17 -41t-41 -17q-25 0 -42 17t-17 41t17 41.5t42 17.5z
" />
    <glyph glyph-name="perthousand" unicode="&#x2030;" horiz-adv-x="873" 
d="M580 247q0 -34 -12.5 -71.5t-35.5 -69t-54.5 -52t-69.5 -20.5q-41 0 -61 28.5t-20 66.5q0 32 12 69t34 69t52.5 53t66.5 21q19 0 35.5 -8t28 -21t18 -30t6.5 -35zM441 87q19 0 34 12.5t25 30.5t15 38t5 36q0 12 -3 27.5t-10 29t-18 22.5t-26 9q-20 0 -35 -13.5t-25.5 -33
t-16 -41t-5.5 -37.5q0 -13 3.5 -27t10.5 -26t18.5 -19.5t27.5 -7.5zM435 601q-37 -29 -81.5 -43.5t-91.5 -14.5q8 -12 11 -26t3 -28q0 -34 -12.5 -71.5t-35.5 -69t-54.5 -52t-69.5 -20.5q-41 0 -60.5 28.5t-19.5 66.5q0 32 12 69t33.5 69t52 53.5t67.5 21.5q17 0 34 -3
t34 -3q64 0 121.5 26t96.5 79h35l-346 -729h-94l365 647v0zM137 330q19 0 34 12t25 30t15 38.5t5 36.5q0 12 -3 27t-10 28.5t-18 23t-26 9.5q-20 0 -35 -13.5t-25.5 -33t-16 -41t-5.5 -37.5q0 -14 3.5 -28t11 -25.5t18.5 -19t27 -7.5zM849 247q0 -34 -12.5 -71.5t-35.5 -69
t-54.5 -52t-69.5 -20.5q-41 0 -61 28.5t-20 66.5q0 32 12 69t34 69t52.5 53t66.5 21q19 0 35.5 -8t28 -21t18 -30t6.5 -35zM709 87q20 0 35 12.5t24.5 30.5t14.5 38t5 36q0 12 -3 27.5t-9.5 29t-17.5 22.5t-26 9q-20 0 -35 -13.5t-25.5 -33t-16 -41t-5.5 -37.5
q0 -13 3.5 -27t10.5 -26t18 -19.5t27 -7.5z" />
    <glyph glyph-name="guilsinglleft" unicode="&#x2039;" horiz-adv-x="220" 
d="M175 414h21l-71 -126l71 -125h-21l-151 125z" />
    <glyph glyph-name="guilsinglright" unicode="&#x203a;" horiz-adv-x="220" 
d="M45 163h-21l71 125l-71 126h21l151 -126z" />
    <glyph glyph-name="Euro" unicode="&#x20ac;" horiz-adv-x="668" 
d="M625 517q-10 29 -31 54t-48.5 43t-58.5 28t-61 10q-39 0 -72 -14.5t-58.5 -40t-44 -60t-30.5 -74.5q-5 -15 -8 -30t-5 -31h398l-31 -55h-372q-1 -5 -1 -9v-9v-9t1 -9h353l-31 -55h-317q2 -15 5 -30.5t8 -29.5q12 -40 30.5 -74.5t44 -60t58.5 -40t72 -14.5q30 0 61 10
t58.5 28t48.5 42.5t31 53.5l19 -3v-105q-93 -57 -204 -57q-60 0 -109 16t-86.5 44.5t-65 67t-43.5 82.5q-6 17 -11 34.5t-8 35.5h-93l31 55h56v36h-82l31 55h57q3 18 8 35.5t11 34.5q16 44 43.5 82.5t65 67t86.5 45t109 16.5q109 0 204 -58v-105l-19 -3v0z" />
    <glyph glyph-name="afii61352" unicode="&#x2116;" horiz-adv-x="1065" 
d="M139 562q-24 25 -45 40.5t-41 23.5t-41 10.5t-45 2.5l105 95l608 -669v536q0 22 -8.5 35.5t-22.5 20t-31.5 8.5t-34.5 2v20h221v-20q-17 0 -34 -2t-31 -8.5t-23 -20t-9 -35.5v-601h-54l-488 533v-447q0 -23 9 -36t23 -19.5t31.5 -8.5t34.5 -2v-20h-222v20q17 0 34.5 2
t31.5 8.5t23 19.5t9 36v476zM858 249q-20 0 -33 -12l-16 10q5 27 26.5 40.5t47.5 13.5q18 0 36 -3t36 -3q19 0 33 11l16 -9q-5 -27 -26.5 -40.5t-47.5 -13.5q-18 0 -36 3t-36 3zM1044 556q0 -34 -12.5 -71.5t-35.5 -69t-54.5 -52t-69.5 -20.5q-41 0 -60.5 28.5t-19.5 66.5
q0 32 12 69t33.5 69t52 53t67.5 21q19 0 35 -8t27.5 -21t18 -30t6.5 -35zM905 396q19 0 34 12.5t25 30.5t15 38t5 36q0 12 -3 27.5t-10 29t-18 22.5t-26 9q-20 0 -35 -13.5t-25.5 -33t-16 -41t-5.5 -37.5q0 -13 3.5 -27t11 -26t18.5 -19.5t27 -7.5z" />
    <glyph glyph-name="trademark" unicode="&#x2122;" horiz-adv-x="642" 
d="M580 705q6 11 19 11q5 0 9.5 -3t4.5 -8t-3.5 -7t-7.5 -3q-8 -2 -13.5 -8.5t-5.5 -14.5v-202q0 -9 7 -16t16 -7h12v-12h-98v12q12 0 23.5 3.5t11.5 19.5v160l-111 -187l-89 178v-151q0 -16 11.5 -19.5t23.5 -3.5v-12h-86v12q12 0 23 3.5t11 19.5v168q0 18 -14 32t-31 16
l-3 11l46 26l117 -233l127 215v0zM163 685v-215q0 -16 11.5 -19.5t23.5 -3.5v-12h-98v12q12 0 23.5 3.5t11.5 19.5v215h-57q-17 0 -25 -7.5t-15 -21.5q-4 -6 -9 -6t-5 9q0 7 2.5 16.5t6.5 18.5t9 15t9 6q5 0 8 -5l5.5 -5.5t13.5 -3.5h151q11 0 16 3.5t7 5.5q3 5 8 5
t6.5 -3.5t1.5 -6.5q0 -4 -1.5 -13t-4.5 -18.5t-7.5 -16.5t-9.5 -7q-7 0 -7 7q0 4 2 9t2 7q0 8 -5 10t-12 2h-62z" />
    </font>
</defs>
</svg>
