<svg xmlns="http://www.w3.org/2000/svg" viewBox="0 0 336.012 336.012"><g fill="#1a172a"><path d="M130.888 211.974c-5.929-9.894-9.752-25.558-9.839-43.567-.082-16.388 3.269-33.537 9.257-44.638-41.62-8.528-118.468-8.131-118.468-8.131s-26.635 15.539 0 46.167c26.635 30.633 0 58.154 0 58.154 76.098-.001 108.107-5.407 119.05-7.985z"/><path d="M140.978 136.893l.729-1.343 1.528-.049c.087-.005 6.298-.201 16.741-.332-3.867-11.286-9.377-18.215-14.511-18.215-3.312.016-6.744 2.937-9.779 8.001-5.357 8.947-9.453 24.666-9.361 43.425.092 18.515 4.09 33.211 9.366 41.603 3.138 4.993 6.723 7.762 10.209 7.762v2.633l.038-2.633c6.625-.033 13.516-10.079 16.926-26.439.854.098 1.713.201 2.578.299.87.103 1.746.207 2.622.315 34.636 4.177 74.863 10.628 74.863 10.628 39.123-32.613 65.704-28.055 66.275-31.4.571-3.345-.261-8.985-.261-8.985l-16.578 1.376c-15.577 4.319-32.798 11.846-46.33 24.976l-.946.919-75.119-11.281-2.616-.392-2.611-.392-8.67-1.3-5.113-.767-8.153.68.81 13.353c3.318.283 6.87.631 10.574 1.017-1.849 8.561-4.721 14.087-7.952 14.087-5.58 0-10.1-16.399-10.1-36.627 0-2.975.109-5.472.294-7.653-.12-7.058.674-16.114 4.547-23.266z"/><path d="M332.966 147.483c-.517-.185-1.066-.315-1.648-.315-1.496 0-2.774.707-3.633 1.746-24.481-3.285-50.143-5.363-74.624-6.641-.783 3.437-5.2 6.075-10.584 6.075-5.869 0-10.622-3.133-10.731-7.016a1523.553 1523.553 0 0 0-53.923-.946c-3.916 0-7.539.016-10.894.038-.914.005-1.768.016-2.633.022-.919.011-1.86.016-2.73.027-8.148.092-13.951.228-16.573.305-.957 2.072-1.61 4.335-2.105 6.636-1.795 8.349-.995 17.383-.5 21.201l13.919 2.094 8.692 1.305 2.633.397 2.627.397 3.796.571 69.228 10.399c8.621-8.11 18.564-14.076 28.615-18.536 21.968-9.747 44.415-12.107 54.913-12.651a4.324 4.324 0 0 0 1.741 2.578c.783.555 1.708.946 2.763.946 1.931 0 3.584-1.115 4.308-2.698.25-.544.392-1.142.392-1.779s-.147-1.229-.392-1.779c-.504-1.098-1.466-1.946-2.657-2.376z"/></g></svg>