<svg xmlns="http://www.w3.org/2000/svg" viewBox="0 0 183.84 73.2"><defs><style>.cls-1{fill:#070a12;}</style></defs><title>Ресурс 2</title><g id="Слой_2" data-name="Слой 2"><g id="Layer_1" data-name="Layer 1"><path class="cls-1" d="M54.08,18.56c11.2-2.09,13-12.44,22.14-15.11C67.86,5,65.1,15.07,54.11,17.23c-11.3,2.23-17.26-5.72-18.32-9.65-1.15-4.26,1-7.42,4.13-7.33,3.71.11,5.18,5.55,1.86,6.84-2.06.82-3.71-1.56-2.34-2.74s1,1.5,1.51,1.26C42.44,5,41,3.05,39.66,3.67,37,4.88,38.57,9.4,42.26,8.24,46.36,7,45.14.07,39.9,0c-3.25,0-5.68,3.66-4.41,7.78C37.39,14,45.14,20.23,54.08,18.56Z"/><path class="cls-1" d="M27.15,5.62a8.34,8.34,0,0,0-9.91,6.84c-1.31,7.68,7.15,10.47,9.53,5.91a3.09,3.09,0,0,0-1.72-4.53,2.09,2.09,0,0,0-1.84.35,1.54,1.54,0,0,0-.39,2,1.12,1.12,0,0,0,1.5.4.79.79,0,0,0,.15-.12.58.58,0,0,0,.12-.3.55.55,0,1,0-.86.39,1.16,1.16,0,0,1-.61-.52,1.26,1.26,0,0,1,.3-1.49,1.83,1.83,0,0,1,1.79-.25,2.87,2.87,0,0,1,1.41,4.16c-2.23,4.05-10.61,1.41-8.7-5.91a7.9,7.9,0,0,1,8.92-5.93c7.84,1.35,9.21,12,21,12.34C35.77,17.51,35.29,7.29,27.15,5.62Z"/><path class="cls-1" d="M74.25,2C63,4.1,61.26,14.45,52.1,17.12,60.46,15.59,63.22,5.49,74.22,3.33,85.51,1.11,91.47,9.06,92.54,13c1.15,4.25-1,7.41-4.14,7.33-3.71-.11-5.18-5.55-1.86-6.85,2.06-.81,3.71,1.56,2.35,2.74s-1-1.5-1.52-1.25c-1.49.65-.07,2.55,1.3,1.94,2.68-1.22,1.09-5.73-2.61-4.57-4.1,1.29-2.87,8.16,2.36,8.24,3.26,0,5.68-3.67,4.42-7.78C90.93,6.56,83.18.34,74.25,2Z"/><path class="cls-1" d="M129.76,18.56c-11.2-2.09-13-12.44-22.14-15.11C116,5,118.74,15.07,129.73,17.23,141,19.46,147,11.51,148.05,7.58c1.15-4.26-1-7.42-4.13-7.33-3.72.11-5.18,5.55-1.86,6.84,2.06.82,3.71-1.56,2.34-2.74s-1,1.5-1.51,1.26c-1.49-.66-.07-2.56,1.29-1.94,2.68,1.21,1.09,5.73-2.6,4.57C137.48,7,138.7.07,143.94,0c3.25,0,5.67,3.66,4.41,7.78C146.44,14,138.7,20.23,129.76,18.56Z"/><path class="cls-1" d="M156.69,5.62a8.34,8.34,0,0,1,9.91,6.84c1.31,7.68-7.15,10.47-9.53,5.91a3.09,3.09,0,0,1,1.72-4.53,2.09,2.09,0,0,1,1.84.35,1.54,1.54,0,0,1,.39,2,1.13,1.13,0,0,1-1.51.4l-.14-.12a.52.52,0,0,1-.13-.3.55.55,0,1,1,1.1-.11.54.54,0,0,1-.24.5,1.11,1.11,0,0,0,.62-.52,1.25,1.25,0,0,0-.31-1.49,1.81,1.81,0,0,0-1.78-.25,2.87,2.87,0,0,0-1.41,4.16c2.23,4.05,10.61,1.41,8.7-5.91A7.9,7.9,0,0,0,157,6.59c-7.84,1.35-9.21,12-21,12.34C148.07,17.51,148.55,7.29,156.69,5.62Z"/><path class="cls-1" d="M109.59,2c11.21,2.09,13,12.44,22.15,15.11-8.36-1.53-11.12-11.63-22.12-13.79C98.33,1.11,92.37,9.06,91.3,13c-1.15,4.25,1,7.41,4.14,7.33,3.71-.11,5.18-5.55,1.86-6.85C95.23,12.66,93.59,15,95,16.21s1-1.5,1.52-1.25c1.49.65.06,2.55-1.3,1.94-2.68-1.22-1.09-5.73,2.61-4.57,4.1,1.29,2.87,8.16-2.36,8.24-3.26,0-5.68-3.67-4.42-7.78C92.91,6.56,100.66.34,109.59,2Z"/><path class="cls-1" d="M54.08,54.64c11.2,2.1,13,12.44,22.14,15.11C67.86,68.23,65.1,58.13,54.11,56c-11.3-2.23-17.26,5.72-18.32,9.66-1.15,4.26,1,7.41,4.13,7.32,3.71-.1,5.18-5.54,1.86-6.84-2.06-.82-3.71,1.56-2.34,2.74s1-1.5,1.51-1.25c1.49.65.07,2.55-1.29,1.93C37,68.32,38.57,63.8,42.26,65c4.1,1.29,2.88,8.16-2.36,8.23-3.25,0-5.68-3.66-4.41-7.78C37.39,59.2,45.14,53,54.08,54.64Z"/><path class="cls-1" d="M27.15,67.58a8.34,8.34,0,0,1-9.91-6.84c-1.31-7.68,7.15-10.46,9.53-5.91a3.1,3.1,0,0,1-1.72,4.54A2.12,2.12,0,0,1,23.21,59a1.54,1.54,0,0,1-.39-2,1.13,1.13,0,0,1,1.5-.4.87.87,0,0,1,.15.13.58.58,0,0,1,.12.3.55.55,0,1,1-.86-.4,1.16,1.16,0,0,0-.61.52,1.26,1.26,0,0,0,.3,1.49,1.81,1.81,0,0,0,1.79.25,2.87,2.87,0,0,0,1.41-4.16c-2.23-4-10.61-1.41-8.7,5.91a7.9,7.9,0,0,0,8.92,5.93c7.84-1.35,9.21-12,21-12.34C35.77,55.69,35.29,65.92,27.15,67.58Z"/><path class="cls-1" d="M74.25,71.19C63,69.1,61.26,58.75,52.1,56.09c8.36,1.52,11.12,11.62,22.12,13.78,11.29,2.22,17.25-5.72,18.32-9.66,1.15-4.25-1-7.41-4.14-7.32-3.71.1-5.18,5.54-1.86,6.84,2.06.82,3.71-1.56,2.35-2.74s-1,1.5-1.52,1.26c-1.49-.66-.07-2.56,1.3-1.94,2.68,1.21,1.09,5.73-2.61,4.56-4.1-1.29-2.87-8.16,2.36-8.23,3.26,0,5.68,3.66,4.42,7.78C90.93,66.64,83.18,72.87,74.25,71.19Z"/><path class="cls-1" d="M129.76,54.64c-11.2,2.1-13,12.44-22.14,15.11C116,68.23,118.74,58.13,129.73,56c11.3-2.23,17.26,5.72,18.32,9.66,1.15,4.26-1,7.41-4.13,7.32-3.72-.1-5.18-5.54-1.86-6.84,2.06-.82,3.71,1.56,2.34,2.74s-1-1.5-1.51-1.25c-1.49.65-.07,2.55,1.29,1.93,2.68-1.21,1.09-5.73-2.6-4.56-4.1,1.29-2.88,8.16,2.36,8.23,3.25,0,5.67-3.66,4.41-7.78C146.44,59.2,138.7,53,129.76,54.64Z"/><path class="cls-1" d="M156.69,67.58a8.34,8.34,0,0,0,9.91-6.84c1.31-7.68-7.15-10.46-9.53-5.91a3.1,3.1,0,0,0,1.72,4.54,2.12,2.12,0,0,0,1.84-.36,1.54,1.54,0,0,0,.39-2,1.14,1.14,0,0,0-1.51-.4l-.14.13a.52.52,0,0,0-.13.3.56.56,0,0,0,.5.6.55.55,0,0,0,.6-.5.54.54,0,0,0-.24-.5,1.11,1.11,0,0,1,.62.52,1.25,1.25,0,0,1-.31,1.49,1.78,1.78,0,0,1-1.78.25,2.87,2.87,0,0,1-1.41-4.16c2.23-4,10.61-1.41,8.7,5.91A7.9,7.9,0,0,1,157,66.61c-7.84-1.35-9.21-12-21-12.34C148.07,55.69,148.55,65.92,156.69,67.58Z"/><path class="cls-1" d="M109.59,71.19c11.21-2.09,13-12.44,22.15-15.1-8.36,1.52-11.12,11.62-22.12,13.78-11.29,2.22-17.25-5.72-18.32-9.66-1.15-4.25,1-7.41,4.14-7.32,3.71.1,5.18,5.54,1.86,6.84-2.07.82-3.71-1.56-2.35-2.74s1,1.5,1.52,1.26c1.49-.66.06-2.56-1.3-1.94-2.68,1.21-1.09,5.73,2.61,4.56,4.1-1.29,2.87-8.16-2.36-8.23-3.26,0-5.68,3.66-4.42,7.78C92.91,66.64,100.66,72.87,109.59,71.19Z"/><path class="cls-1" d="M13,31.51A2.84,2.84,0,0,0,12.63,35a2.59,2.59,0,0,0,.31.41,1.84,1.84,0,0,0-1,0,15.81,15.81,0,0,0-1.38.79,3.92,3.92,0,0,1-1.31.37A4.17,4.17,0,0,1,10.6,37a15.81,15.81,0,0,0,1.38.79,1.84,1.84,0,0,0,1,.05,3.15,3.15,0,0,0-.31.41A2.84,2.84,0,0,0,13,41.69a1.6,1.6,0,0,0,2.52-.23.68.68,0,0,0-.55-1c-.48,0-.7.41-.52.67s.41-.18.53.06c.28.58-1,1.14-1.62.18S14.08,39.79,15,39s1.62-2.27,2.45-2.38c-.83-.1-1.53-1.56-2.45-2.37s-2.27-1.45-1.64-2.39,1.9-.39,1.62.19c-.11.23-.32-.24-.53,0s0,.69.52.67a.68.68,0,0,0,.55-1A1.6,1.6,0,0,0,13,31.51Z"/><path class="cls-1" d="M4,36.09A3.48,3.48,0,0,0,.11,38.56a2.21,2.21,0,0,0,2.12,3c1.6-.1,2.08-2.1,1-2.24-.43-.06-.68.7,0,.88a1,1,0,0,1-1.11.74c-2.27-.19-1.38-4.67,1.79-3,.94.48,1.19,1.5,1.48,2.55C5.8,41.89,6.78,42.78,8,42.19,10.47,41,7,36.34,4,36.09Z"/><path class="cls-1" d="M4,37.12A3.5,3.5,0,0,1,.11,34.64a2.2,2.2,0,0,1,2.12-2.95c1.6.09,2.08,2.1,1,2.24-.43,0-.68-.71,0-.89a1,1,0,0,0-1.11-.74C-.15,32.49.74,37,3.91,35.36c.94-.48,1.19-1.51,1.48-2.55C5.8,31.31,6.78,30.42,8,31,10.47,32.19,7,36.87,4,37.12Z"/><path class="cls-1" d="M11.8,22.49c-2.18,2.64-2.14,6.58-3.26,6.35-.75-.16.2-4.21,2.82-6.82s7.24-4.31,10.93-1.18a6,6,0,0,1,1.18,8.29c-1.87,2.56-5,3.28-7.07,1.77a3.45,3.45,0,0,1-1-5c1.4-1.79,3.94-1.09,3.92.64a.55.55,0,0,1-1.08.16c-.21-.67.58-1.05-.43-1.47-1.35-.57-3.22,1.13-2.58,3.22,1,3.17,5.08,2.56,7.15-.11a5,5,0,0,0-.52-6.9C18.2,18.09,13.93,19.89,11.8,22.49Z"/><path class="cls-1" d="M7.56,30.21a.64.64,0,0,0,.91.1.65.65,0,0,0,.09-.91.64.64,0,0,0-.9-.09A.63.63,0,0,0,7.56,30.21Z"/><path class="cls-1" d="M11.79,50.71c-2.17-2.64-2.13-6.58-3.25-6.34-.75.15.2,4.21,2.82,6.81s7.24,4.31,10.93,1.18a6,6,0,0,0,1.18-8.29c-1.87-2.56-5-3.28-7.07-1.77a3.45,3.45,0,0,0-1,5c1.4,1.79,3.94,1.1,3.92-.64a.55.55,0,0,0-1.08-.15c-.21.66.58,1-.43,1.47-1.35.57-3.22-1.13-2.58-3.23,1-3.17,5.08-2.55,7.15.11a5,5,0,0,1-.52,6.9C18.2,55.12,13.93,53.31,11.79,50.71Z"/><path class="cls-1" d="M7.56,43a.64.64,0,1,1,1,.81.64.64,0,0,1-.9.1A.65.65,0,0,1,7.56,43Z"/><path class="cls-1" d="M170.83,31.51a2.84,2.84,0,0,1,.38,3.47,2.59,2.59,0,0,1-.31.41,1.84,1.84,0,0,1,1,0,15.81,15.81,0,0,1,1.38.79,3.92,3.92,0,0,0,1.31.37,4.17,4.17,0,0,0-1.31.37c-.46.21-.92.63-1.38.79a1.85,1.85,0,0,1-1,.05,3.15,3.15,0,0,1,.31.41,2.84,2.84,0,0,1-.38,3.47,1.61,1.61,0,0,1-2.53-.23.68.68,0,0,1,.56-1c.48,0,.7.41.52.67s-.41-.18-.53.06c-.28.58,1,1.14,1.62.18s-.71-1.57-1.64-2.38-1.62-2.27-2.45-2.38c.83-.1,1.53-1.56,2.45-2.37s2.27-1.45,1.64-2.39-1.9-.39-1.62.19c.11.23.32-.24.53,0s0,.69-.52.67a.68.68,0,0,1-.55-1A1.6,1.6,0,0,1,170.83,31.51Z"/><path class="cls-1" d="M179.88,36.09a3.48,3.48,0,0,1,3.85,2.47,2.21,2.21,0,0,1-2.12,3c-1.6-.1-2.09-2.1-1-2.24.43-.06.68.7,0,.88a1,1,0,0,0,1.11.74c2.27-.19,1.38-4.67-1.79-3-.94.48-1.19,1.5-1.48,2.55-.41,1.49-1.39,2.38-2.62,1.79C173.37,41,176.83,36.34,179.88,36.09Z"/><path class="cls-1" d="M179.88,37.12a3.5,3.5,0,0,0,3.85-2.48,2.2,2.2,0,0,0-2.12-2.95c-1.6.09-2.09,2.1-1,2.24.43,0,.68-.71,0-.89a1,1,0,0,1,1.11-.74c2.27.19,1.38,4.67-1.79,3.06-1-.48-1.19-1.51-1.48-2.55-.41-1.5-1.39-2.39-2.62-1.8C173.37,32.19,176.83,36.87,179.88,37.12Z"/><path class="cls-1" d="M172,22.49c2.18,2.64,2.14,6.58,3.26,6.35.75-.16-.2-4.21-2.82-6.82s-7.24-4.31-10.93-1.18a6,6,0,0,0-1.18,8.29c1.86,2.56,5,3.28,7.07,1.77a3.45,3.45,0,0,0,1-5c-1.4-1.79-3.94-1.09-3.92.64a.55.55,0,0,0,1.08.16c.21-.67-.58-1.05.43-1.47,1.35-.57,3.22,1.13,2.58,3.22-1,3.17-5.08,2.56-7.15-.11a5,5,0,0,1,.52-6.9C165.64,18.09,169.91,19.89,172,22.49Z"/><path class="cls-1" d="M176.28,30.21a.64.64,0,0,1-.91.1.65.65,0,0,1,.82-1A.64.64,0,0,1,176.28,30.21Z"/><path class="cls-1" d="M172,50.71c2.18-2.64,2.14-6.58,3.26-6.34.75.15-.2,4.21-2.82,6.81s-7.24,4.31-10.93,1.18a6,6,0,0,1-1.18-8.29c1.87-2.56,5-3.28,7.07-1.77a3.45,3.45,0,0,1,1,5c-1.4,1.79-3.94,1.1-3.92-.64a.55.55,0,0,1,1.08-.15c.21.66-.58,1,.43,1.47,1.35.57,3.22-1.13,2.58-3.23-1-3.17-5.08-2.55-7.15.11a5,5,0,0,0,.52,6.9C165.64,55.12,169.91,53.31,172,50.71Z"/><path class="cls-1" d="M176.28,43a.64.64,0,1,0-1,.81.64.64,0,1,0,1-.81Z"/></g></g></svg>