<svg xmlns="http://www.w3.org/2000/svg" viewBox="0 0 61.19 10.87"><defs><style>.cls-1{fill:#080711;}</style></defs><title>Ресурс 1</title><g id="Слой_2" data-name="Слой 2"><g id="Layer_1" data-name="Layer 1"><path class="cls-1" d="M7.81,0C5.59.42,5.43,2.69,3.91,3.7A1.21,1.21,0,0,1,2,2.84,1.62,1.62,0,0,0,3,5.43H3A1.63,1.63,0,0,0,2,8a1.2,1.2,0,0,1,1.93-.86c1.52,1,1.68,3.28,3.9,3.65,3.05.52,4.29-3.79,8.59-5.39C12.1,3.84,10.86-.48,7.81,0Zm8.58,5.39c-4.34.19-5.53,2.86-8.24,2.38-1.72-.31-1.72-1.88-4-2.38h0c2.24-.49,2.24-2.06,4-2.37C10.86,2.57,12.06,5.25,16.39,5.43Z"/><path class="cls-1" d="M16.37,5.43A31.58,31.58,0,0,1,12.43.94a19.51,19.51,0,0,0,5.36,3.28,18.37,18.37,0,0,0,4.79,1.21,18,18,0,0,0-4.79,1.22,19.7,19.7,0,0,0-5.36,3.27A32.72,32.72,0,0,1,16.37,5.43Z"/><path class="cls-1" d="M.9,6.41a5.76,5.76,0,0,1-.9-1,6.43,6.43,0,0,1,.9-1s.4.66.62,1C1.3,5.75.9,6.41.9,6.41Z"/><path class="cls-1" d="M44.78,5.43c4.3,1.6,5.54,5.91,8.6,5.39,2.21-.37,2.37-2.65,3.9-3.65A1.2,1.2,0,0,1,59.21,8a1.63,1.63,0,0,0-1-2.6h0a1.62,1.62,0,0,0,1-2.59,1.21,1.21,0,0,1-1.94.86C55.75,2.69,55.59.42,53.38,0,50.32-.48,49.08,3.84,44.78,5.43ZM53,3.06c1.72.31,1.72,1.88,4,2.37h0c-2.25.5-2.24,2.07-4,2.38-2.72.48-3.91-2.19-8.25-2.38C49.13,5.25,50.32,2.57,53,3.06Z"/><path class="cls-1" d="M44.81,5.43A31.69,31.69,0,0,0,48.76.94,19.66,19.66,0,0,1,43.4,4.22a18.37,18.37,0,0,1-4.79,1.21A18,18,0,0,1,43.4,6.65a19.85,19.85,0,0,1,5.36,3.27A32.83,32.83,0,0,0,44.81,5.43Z"/><path class="cls-1" d="M60.29,6.41a7,7,0,0,0,.9-1,8,8,0,0,0-.9-1s-.41.66-.63,1C59.88,5.75,60.28,6.41,60.29,6.41Z"/><path class="cls-1" d="M39.4,5.43a2,2,0,0,0-2.29-2C35.4,3.58,34.37,5,30.7,5.43c3.67.4,4.7,1.86,6.41,2.06A2,2,0,0,0,39.4,5.43Z"/><path class="cls-1" d="M21.78,5.43a2,2,0,0,1,2.29-2c1.72.2,2.74,1.66,6.41,2.05-3.67.4-4.69,1.86-6.41,2.06A2,2,0,0,1,21.78,5.43Z"/><path class="cls-1" d="M30.59,6.47a1,1,0,1,1,1-1A1,1,0,0,1,30.59,6.47Z"/></g></g></svg>