<svg xmlns="http://www.w3.org/2000/svg" viewBox="0 0 52.99 70.3"><defs><style>.cls-1{fill:#1d1d1b;}</style></defs><title>Ресурс 3</title><g id="Слой_2" data-name="Слой 2"><g id="Layer_1" data-name="Layer 1"><path class="cls-1" d="M5,40.65a4.87,4.87,0,0,1,3.48-5.4,3.09,3.09,0,0,1,4.15,3c-.13,2.24-3,2.93-3.15,1.37-.08-.6,1-1,1.24,0a1.44,1.44,0,0,0,1-1.56c-.26-3.18-6.56-1.93-4.29,2.53.67,1.32,2.12,1.67,3.58,2.07,2.1.57,3.36,2,2.53,3.68C12,49.8,5.37,44.93,5,40.65Z"/><path class="cls-1" d="M22.09,50.2C19.45,48,15.51,48.07,15.74,47c.16-.75,4.21.2,6.82,2.82S26.87,57,23.74,60.7a6,6,0,0,1-8.29,1.18c-2.56-1.87-3.29-5-1.77-7.07a3.43,3.43,0,0,1,5-1c1.8,1.4,1.1,3.94-.63,3.92a.55.55,0,0,1-.16-1.08c.66-.21,1,.58,1.47-.43.57-1.35-1.13-3.22-3.22-2.58-3.17,1-2.56,5.08.1,7.15a5,5,0,0,0,6.9-.52C26.49,56.61,24.69,52.34,22.09,50.2Z"/><path class="cls-1" d="M14.36,46a.64.64,0,1,0,.81,1,.64.64,0,1,0-.81-1Z"/><path class="cls-1" d="M5,29.66a4.88,4.88,0,0,0,3.48,5.4,3.09,3.09,0,0,0,4.15-3c-.13-2.24-3-2.93-3.15-1.37-.08.6,1,.95,1.24,0a1.45,1.45,0,0,1,1,1.56c-.26,3.18-6.56,1.94-4.29-2.52.67-1.33,2.12-1.68,3.58-2.08,2.1-.57,3.36-1.95,2.53-3.68C12,20.5,5.37,25.37,5,29.66Z"/><path class="cls-1" d="M22.09,20.1c-2.64,2.17-6.58,2.14-6.35,3.25.16.75,4.21-.2,6.82-2.82s4.31-7.24,1.18-10.92a6,6,0,0,0-8.29-1.18c-2.56,1.86-3.29,5-1.77,7.06a3.44,3.44,0,0,0,5,1c1.8-1.41,1.1-3.95-.63-3.92a.54.54,0,0,0-.16,1.07c.66.21,1-.57,1.47.43.57,1.35-1.13,3.22-3.22,2.58-3.17-1-2.56-5.08.1-7.14a5,5,0,0,1,6.9.52C26.49,13.69,24.69,18,22.09,20.1Z"/><path class="cls-1" d="M14.36,24.34a.65.65,0,1,1,.91-.1A.65.65,0,0,1,14.36,24.34Z"/><path class="cls-1" d="M48,40.65a4.89,4.89,0,0,0-3.47-5.41,3.1,3.1,0,0,0-4.16,3c.13,2.24,2.95,2.93,3.15,1.37.08-.6-1-1-1.24,0a1.46,1.46,0,0,1-1-1.57c.26-3.18,6.56-1.93,4.29,2.53-.67,1.32-2.12,1.67-3.58,2.07-2.1.57-3.36,2-2.53,3.68C41,49.8,47.62,44.93,48,40.65Z"/><path class="cls-1" d="M30.91,50.2C33.55,48,37.48,48.07,37.25,47c-.15-.75-4.21.2-6.81,2.82S26.12,57,29.25,60.7a6,6,0,0,0,8.29,1.18c2.56-1.87,3.29-5,1.77-7.07a3.43,3.43,0,0,0-5-1c-1.8,1.4-1.1,3.94.63,3.92a.55.55,0,0,0,.16-1.08c-.66-.21-1,.58-1.47-.43C33,54.88,34.73,53,36.82,53.65c3.18,1,2.56,5.08-.1,7.15a5,5,0,0,1-6.9-.52C26.5,56.61,28.3,52.34,30.91,50.2Z"/><path class="cls-1" d="M38.63,46a.64.64,0,1,1-.81,1,.64.64,0,1,1,.81-1Z"/><path class="cls-1" d="M48,29.66a4.88,4.88,0,0,1-3.47,5.4,3.1,3.1,0,0,1-4.16-3c.13-2.24,2.95-2.93,3.15-1.37.08.6-1,.95-1.24,0a1.45,1.45,0,0,0-1,1.56c.26,3.18,6.56,1.94,4.29-2.52-.67-1.33-2.12-1.68-3.58-2.08-2.1-.57-3.36-1.95-2.53-3.68C41,20.5,47.62,25.37,48,29.66Z"/><path class="cls-1" d="M30.91,20.1c2.64,2.17,6.57,2.14,6.34,3.25-.15.75-4.21-.2-6.81-2.81s-4.32-7.25-1.19-10.93a6,6,0,0,1,8.29-1.18c2.56,1.86,3.29,5,1.77,7.06a3.44,3.44,0,0,1-5,1c-1.8-1.41-1.1-3.95.63-3.92a.54.54,0,0,1,.16,1.07c-.66.21-1-.57-1.47.43-.57,1.35,1.13,3.22,3.22,2.58,3.18-1,2.56-5.08-.1-7.15a5,5,0,0,0-6.9.53C26.5,13.69,28.3,18,30.91,20.1Z"/><path class="cls-1" d="M38.63,24.34a.65.65,0,1,0-.91-.1A.65.65,0,0,0,38.63,24.34Z"/><path class="cls-1" d="M28.29,3.8c0-1.74-1.1-2.14-1.79-2.14s-1.76.4-1.8,2.14c-.09,3.31,1.88,7.79,1.54,9.68.09-2.67-2.54-6.3-2.58-9.66C23.62,1.27,25,.09,26.5,0c1.5.09,2.87,1.27,2.84,3.82-.05,3.36-2.68,7-2.59,9.66C26.41,11.59,28.38,7.11,28.29,3.8Z"/><path class="cls-1" d="M28.29,66.5c0,1.74-1.1,2.14-1.79,2.14s-1.76-.4-1.8-2.14c-.09-3.31,1.88-7.79,1.54-9.68.09,2.68-2.54,6.31-2.58,9.66,0,2.55,1.33,3.74,2.84,3.82,1.5-.08,2.87-1.27,2.84-3.82-.05-3.35-2.68-7-2.59-9.66C26.41,58.71,28.38,63.19,28.29,66.5Z"/><path class="cls-1" d="M27.15,14.81a.66.66,0,1,0-.65.66A.65.65,0,0,0,27.15,14.81Z"/><path class="cls-1" d="M27.15,55.49a.66.66,0,0,0-.65-.66.66.66,0,0,0,0,1.32A.66.66,0,0,0,27.15,55.49Z"/><path class="cls-1" d="M4.59,33.62c-1.24-1.45-.81-2-1.35-3.18-.19,1.08-1.31,1.88-1.1,3.26A5.41,5.41,0,0,0,0,35.15a5.54,5.54,0,0,0,2.14,1.46c-.21,1.37.91,2.17,1.1,3.26.54-1.15.11-1.73,1.35-3.19a5.89,5.89,0,0,1,1.83-1.53A5.89,5.89,0,0,1,4.59,33.62Z"/><path class="cls-1" d="M48.4,33.62c1.24-1.45.81-2,1.35-3.18.19,1.08,1.31,1.88,1.1,3.26A5.41,5.41,0,0,1,53,35.15a5.54,5.54,0,0,1-2.14,1.46c.21,1.37-.91,2.17-1.1,3.26-.54-1.15-.11-1.73-1.35-3.19a6,6,0,0,0-1.82-1.53A6,6,0,0,0,48.4,33.62Z"/></g></g></svg>