<svg xmlns="http://www.w3.org/2000/svg" viewBox="0 0 150.83 25.79"><defs><style>.cls-1{fill:#35302c;}</style></defs><title>Ресурс 1</title><g id="Слой_2" data-name="Слой 2"><g id="Layer_1" data-name="Layer 1"><path class="cls-1" d="M92.63,6.57c-.34-1-1.86-2.72-2.75-2.87A14.24,14.24,0,0,0,88.17,3a10.56,10.56,0,0,0-1.48-.25,16.63,16.63,0,0,0-10.58,2.9c-.14.1-.28.2-.41.31l-.41-.31a16.63,16.63,0,0,0-10.58-2.9A11,11,0,0,0,63.22,3a15.52,15.52,0,0,0-1.7.72c-.89.15-2.41,1.85-2.75,2.87a7.23,7.23,0,0,0-.45,5.88A6.27,6.27,0,0,0,61.62,16c1.64.73,3.23.52,3.51.09s-2-.63-3.35-1.45a5.71,5.71,0,0,1-2.88-7c.8-3.2,4.34-5,7.65-4.67a15.91,15.91,0,0,1,8.9,3.24L75,6.51l-.41.38a14.79,14.79,0,0,0-4.28,11c.08,3.1,1.27,7.94,5.37,7.94S81,21,81.07,17.85a14.79,14.79,0,0,0-4.28-11l-.41-.38L76,6.14a15.94,15.94,0,0,1,8.9-3.24c3.3-.3,6.84,1.47,7.65,4.67a5.71,5.71,0,0,1-2.88,7c-1.38.82-3.69.89-3.35,1.45s1.87.64,3.51-.09a6.27,6.27,0,0,0,3.3-3.52,7.23,7.23,0,0,0-.45-5.88Zm-16.1.55a15.22,15.22,0,0,1,3.84,7.7c.73,3.66.38,9.55-4.67,9.9-5-.35-5.4-6.24-4.67-9.9a15.15,15.15,0,0,1,3.84-7.7c.13-.14.27-.27.4-.4s.28-.26.43-.38c.14.12.29.25.42.38s.28.26.41.4Z"/><path class="cls-1" d="M65.2,12.52a3.52,3.52,0,0,0,1.92-.88c.52-.51.63-1.61,1.34-1.91s.71.21.72.73c0,2.22-3.87,2.69-5.37,2.37a3.13,3.13,0,0,1-2.21-1.57,4,4,0,0,1-.2-2.73,4.22,4.22,0,0,1,4.1-3.24,11.92,11.92,0,0,1,5.13,1.6,19.8,19.8,0,0,1,2,1.1c.49.33.84.61,1.38.93a8.83,8.83,0,0,1,3,2.28,2.31,2.31,0,0,1,.18,2.22,1.64,1.64,0,0,1-2.87.11,1.71,1.71,0,0,1-.11-1.38A2,2,0,0,1,74.56,11a8.12,8.12,0,0,1,2-1.86,28.47,28.47,0,0,1,7.9-3.83A5.42,5.42,0,0,1,88,5.5a4.22,4.22,0,0,1,2,2.8,5.33,5.33,0,0,1,.19.94c0,.55-.18.81-.17,1.17.07.63-1,1.72-1.62,2a6.29,6.29,0,0,1-3.77.58,4.9,4.9,0,0,1-2.83-1.31c-.86-.8-1.11-1.85-.77-2.16s1.08.81,1.84,1.4a5.23,5.23,0,0,0,4.82,1.24c2.08-.43,2.76-3,1.71-4.84C88.57,5.18,86,5.07,84.14,5.75a39.08,39.08,0,0,0-5.66,2.79,9,9,0,0,0-3.3,2.37,2.9,2.9,0,0,0-.63,1.78,1.19,1.19,0,0,0,1,1.12,1.13,1.13,0,0,0,1.28-1.12,2.55,2.55,0,0,0-.92-2,16,16,0,0,0-3.56-2.08,29.94,29.94,0,0,0-4.72-2.4,4.52,4.52,0,0,0-4.25.28,4,4,0,0,0-1.5,3.81,2.58,2.58,0,0,0,1.47,2A3.54,3.54,0,0,0,65.2,12.52Z"/><path class="cls-1" d="M72.9,1.76h0a2,2,0,0,0,.18.33c.14.17.21.06.17.1s.38.2.84.56c.2.19,1.32,1.66.74,1.32-.4-.2-1-1-1.55-1.34a7,7,0,0,0-1.36-.94,7.58,7.58,0,0,0-1.42-.52A10.24,10.24,0,0,0,69.11.83a11.34,11.34,0,0,0-5.77.44,10,10,0,0,1-1.21.38,5.12,5.12,0,0,0-.92.22c-.64.28-1.17.74-1.78,1.07-.34.19-.71.29-1.06.46a12.11,12.11,0,0,0-1.57.82,4.57,4.57,0,0,1-.68.32A1.51,1.51,0,0,1,55.6,5a12,12,0,0,0-1.37.73,17.86,17.86,0,0,1-4.44,2.36,19.55,19.55,0,0,1-3.9,1,5.14,5.14,0,0,0-.53.1c-.31,0-.47-.13-.67,0s-1.08,0-1.46-.07a15.55,15.55,0,0,1-2.11-.54c-.83-.22-2.6-1.2-2.12-2,.29-.49,1-.08,1.46.32a9.54,9.54,0,0,0,2.59,1.68c2.19.81,4.77.1,6.85-.88C51,7.18,52,6.49,53.06,5.9c.72-.4,1.45-.77,2.09-1.19a19.53,19.53,0,0,1,2.06-1.33C58,3,58.94,2.61,59.72,2.24S61.06,1.32,61.84,1a15.59,15.59,0,0,1,3-.74,10.81,10.81,0,0,1,5.41.26c.51.25,1,.47,1.5.76a4,4,0,0,0,.52.2A1.94,1.94,0,0,1,72.9,1.76Z"/><path class="cls-1" d="M43.71,5.1c-2.49-1-3.17-2.4-2.84-2.67s1.57.51,3.41,1.2a14.73,14.73,0,0,0,8.95.65A11.38,11.38,0,0,1,50.28,5.5,11.6,11.6,0,0,1,43.71,5.1Z"/><path class="cls-1" d="M45.7,12.28c-2.87.69-4.17-.67-3.91-1,.22-.49,1.66,0,3.52-.53A39.49,39.49,0,0,0,51,8.17a8.74,8.74,0,0,1,3.11-.94,10.68,10.68,0,0,0-2.71,1.61C50,9.92,48.08,11.62,45.7,12.28Z"/><path class="cls-1" d="M49.4,13.74C47.83,14.33,47,14,47,13.5s.84-.81,1.86-1.22a15.48,15.48,0,0,0,4.42-3C53.23,9.15,52.28,12.56,49.4,13.74Z"/><path class="cls-1" d="M53.13,13.85c-.87.78-1.53.81-1.75.39s.08-1,.62-1.48c1-1,2.49-2.79,2.52-2.76A6.68,6.68,0,0,1,53.13,13.85Z"/><path class="cls-1" d="M48.59,2.61c-1.13-1-1.1-1.81-.71-2s1,.25,1.68.79C50.83,2.54,53.62,3,53.6,3S50.88,4.31,48.59,2.61Z"/><path class="cls-1" d="M78.9,2.52h0a1.62,1.62,0,0,0-.34.06c-.2.08-.12.18-.15.13s-.29.28-.72.62c-.18.17-1.74,1.13-1.36.6a7.28,7.28,0,0,1,1.56-1.35,13,13,0,0,1,1.41-.91A7.48,7.48,0,0,1,80.61.83,8,8,0,0,1,82.06.34a10.83,10.83,0,0,1,6.1.23A7.06,7.06,0,0,1,89.4,1a6.73,6.73,0,0,0,.82.52c.64.28,1.34.43,2,.76.35.18.65.43,1,.64.57.36,1.13.79,1.49,1a3.25,3.25,0,0,1,.61.45,1.44,1.44,0,0,1,.62.26,11.82,11.82,0,0,0,1.29.87c1.52.7,2.94,1.59,4.42,2.33a10,10,0,0,0,3.81,1.09,3.17,3.17,0,0,0,.54,0c.29,0,.46.12.65,0A6.68,6.68,0,0,1,108,8.66a5.41,5.41,0,0,0,1.79-.91c.66-.45,1.69-1.78,2.47-1.29.5.32-.09,1-.62,1.44a8.67,8.67,0,0,1-3.22,1.16A12.11,12.11,0,0,1,101.24,8a30.35,30.35,0,0,1-3.3-1.59c-.72-.42-1.39-.9-2.06-1.26A22.07,22.07,0,0,1,93.74,4a25.88,25.88,0,0,0-2.3-1.49c-.72-.38-1.52-.46-2.25-.79a16.09,16.09,0,0,0-2.84-1,9.35,9.35,0,0,0-5.11.45,10,10,0,0,0-1.47.62,2.58,2.58,0,0,0-.41.33A4,4,0,0,1,78.9,2.52Z"/><path class="cls-1" d="M107,3.63c2.11-.85,3-1.58,3.41-1.2s-.67,1.85-2.85,2.67a11.66,11.66,0,0,1-6.56.41,11.58,11.58,0,0,1-3-1.23A14.81,14.81,0,0,0,107,3.63Z"/><path class="cls-1" d="M106,10.76c2.17.54,3.26,0,3.52.53.31.36-1.45,1.67-3.91,1s-4.25-2.35-5.74-3.44a11.07,11.07,0,0,0-2.71-1.61,8.74,8.74,0,0,1,3.11.94A38.91,38.91,0,0,0,106,10.76Z"/><path class="cls-1" d="M102.48,12.28c1.2.46,1.87.68,1.85,1.22s-1.09.77-2.44.24C99,12.56,98.06,9.15,98.06,9.26A15.27,15.27,0,0,0,102.48,12.28Z"/><path class="cls-1" d="M99.29,12.76c.63.54.84,1,.62,1.48s-1,.29-1.75-.39A6.58,6.58,0,0,1,96.77,10S98.25,11.73,99.29,12.76Z"/><path class="cls-1" d="M101.73,1.38c.76-.65,1.21-1,1.68-.79s.28,1.19-.71,2c-2.29,1.71-5.11.28-5,.38S100.47,2.55,101.73,1.38Z"/><path class="cls-1" d="M34,6.32C33.21,8,36.9,7.79,35.23,6.11,34.85,5.72,34.29,5.58,34,6.32Z"/><path class="cls-1" d="M30.6,6c-1,.44-.29,1.66.64,1.27S31.65,5.53,30.6,6Z"/><path class="cls-1" d="M26.47,6.39c-.87,1.33,2,1.21,1.32-.12C27.47,5.68,26.76,5.92,26.47,6.39Z"/><path class="cls-1" d="M22.81,6.32c-.75,1.63,2.94,1.47,1.27-.21C23.7,5.72,23.14,5.58,22.81,6.32Z"/><path class="cls-1" d="M19.45,6c-1,.44-.28,1.66.64,1.27S20.5,5.53,19.45,6Z"/><path class="cls-1" d="M15.32,6.39c-.87,1.33,2,1.21,1.32-.12C16.32,5.68,15.61,5.92,15.32,6.39Z"/><path class="cls-1" d="M11.66,6.32c-.75,1.63,2.95,1.47,1.28-.21C12.55,5.72,12,5.58,11.66,6.32Z"/><path class="cls-1" d="M8.3,6C7.31,6.44,8,7.66,9,7.27S9.35,5.53,8.3,6Z"/><path class="cls-1" d="M3.83,6.32c-.74,1.63,3,1.47,1.29-.21C4.73,5.72,4.17,5.58,3.83,6.32Z"/><path class="cls-1" d="M.48,6c-1,.44-.28,1.66.64,1.27S1.53,5.53.48,6Z"/><path class="cls-1" d="M149.11,6.32c-.74,1.63,2.95,1.47,1.28-.21C150,5.72,149.45,5.58,149.11,6.32Z"/><path class="cls-1" d="M145.76,6c-1,.44-.28,1.66.64,1.27S146.81,5.53,145.76,6Z"/><path class="cls-1" d="M141.29,6.32c-.74,1.63,3,1.47,1.28-.21C142.19,5.72,141.62,5.58,141.29,6.32Z"/><path class="cls-1" d="M137.93,6c-1,.44-.28,1.66.65,1.27S139,5.53,137.93,6Z"/><path class="cls-1" d="M133.8,6.39c-.86,1.33,2,1.21,1.32-.12C134.81,5.68,134.1,5.92,133.8,6.39Z"/><path class="cls-1" d="M130.14,6.32c-.74,1.63,3,1.47,1.28-.21C131,5.72,130.48,5.58,130.14,6.32Z"/><path class="cls-1" d="M126.79,6c-1,.44-.28,1.66.64,1.27S127.84,5.53,126.79,6Z"/><path class="cls-1" d="M122.66,6.39c-.87,1.33,2,1.21,1.32-.12C123.66,5.68,123,5.92,122.66,6.39Z"/><path class="cls-1" d="M119,6.32c-.74,1.63,3,1.47,1.29-.21C119.89,5.72,119.33,5.58,119,6.32Z"/><path class="cls-1" d="M115.64,6c-1,.44-.28,1.66.65,1.27S116.69,5.53,115.64,6Z"/></g></g></svg>